<?xml version="1.0" encoding="UTF-8"?>
<svg version="1.1" xmlns="http://www.w3.org/2000/svg" width="280" height="280">
<path d="M0 0 C4.84498859 1.87060711 7.99462446 5.89686971 11.49023438 9.56835938 C14.47418761 12.64330991 17.28102524 14.81518794 21 17 C21 17.66 21 18.32 21 19 C21.72316406 19.26296875 22.44632813 19.5259375 23.19140625 19.796875 C26.05618731 21.02406911 28.36866407 22.49258374 30.9375 24.25 C40.17496632 30.21327004 50.05678833 34.53754314 61 36 C61 36.66 61 37.32 61 38 C65.4582769 38.05867342 69.91645273 38.09382135 74.375 38.125 C75.62667969 38.14175781 76.87835938 38.15851563 78.16796875 38.17578125 C103.27732362 38.30724384 122.81832944 26.99603519 140.5 9.75 C142.96594448 7.30006815 144.87016303 5.22785115 146.59375 2.203125 C147.0578125 1.47609375 147.521875 0.7490625 148 0 C148.99 0 149.98 0 151 0 C148.65889727 17.97140625 142.36103038 32.78210233 131 47 C130.43152344 47.74507812 129.86304688 48.49015625 129.27734375 49.2578125 C120.41249397 60.12943047 107.7969194 68.51822507 95 74 C94.16210938 74.37511719 93.32421875 74.75023437 92.4609375 75.13671875 C73.80168821 83.10392202 53.48893964 84.3062734 34 79 C32.62908203 78.65775391 32.62908203 78.65775391 31.23046875 78.30859375 C20.87511545 75.52489663 13.67945531 71.26026662 8 62 C-2.12781025 43.79991816 -6.27080459 23.27033523 -1.52197266 2.73242188 C-1 1 -1 1 0 0 Z " fill="#FBBD57" transform="translate(82,152)"/>
<path d="M0 0 C1.68247473 1.58757905 3.34980447 3.19139446 5 4.8125 C5.84820312 5.64523438 6.69640625 6.47796875 7.5703125 7.3359375 C21.19661621 21.22512809 30.6576995 40.8378873 31.4375 60.5 C31.13087433 69.69877011 26.42538326 78.52698533 21 85.8125 C20.34 85.8125 19.68 85.8125 19 85.8125 C18.7525 86.369375 18.505 86.92625 18.25 87.5 C12.84708295 97.49539655 1.95175135 104.03755962 -7.8125 109.3125 C-8.70835815 109.80133667 -8.70835815 109.80133667 -9.62231445 110.30004883 C-14.00760478 112.57334371 -18.21251256 113.75914743 -23 114.8125 C-24.27379891 110.61164948 -23.42265118 107.97046359 -22.1875 103.75 C-19.19163402 93.44292318 -17.60810058 83.5681384 -17.625 72.8125 C-17.62661133 71.72960693 -17.62822266 70.64671387 -17.62988281 69.53100586 C-17.95504076 47.88090585 -24.39629571 27.72374509 -39.203125 11.5546875 C-41.08435779 9.62558109 -41.08435779 9.62558109 -44 7.8125 C-44 7.1525 -44 6.4925 -44 5.8125 C-46.475 4.8225 -46.475 4.8225 -49 3.8125 C-49 3.1525 -49 2.4925 -49 1.8125 C-49.69867188 1.55210938 -50.39734375 1.29171875 -51.1171875 1.0234375 C-54.26595414 -0.29921515 -57.14888446 -1.88797799 -60.125 -3.5625 C-69.70524698 -8.72768909 -78.62283632 -11.56338633 -89.33886719 -13.14941406 C-94.79906039 -13.98656039 -94.79906039 -13.98656039 -97 -16.1875 C-92.58645377 -21.90876363 -81.29887937 -23.029567 -74.4375 -23.9375 C-47.25515015 -26.02844999 -20.46549129 -18.48495988 0 0 Z " fill="#F23A37" transform="translate(202,70.1875)"/>
<path d="M0 0 C5.16540152 3.44360102 9.75614465 7.41556343 14.25 11.6875 C13.25 13.6875 13.25 13.6875 11.38330078 14.38598633 C10.57876465 14.59505615 9.77422852 14.80412598 8.9453125 15.01953125 C8.057229 15.25784668 7.16914551 15.49616211 6.25415039 15.74169922 C5.30403076 15.99193848 4.35391113 16.24217773 3.375 16.5 C-4.3641107 18.63390077 -11.65605221 20.8586826 -18.75 24.6875 C-19.88824219 25.2959375 -21.02648437 25.904375 -22.19921875 26.53125 C-31.33327696 31.52708525 -39.55631223 37.09416291 -46.75 44.6875 C-47.8946875 45.739375 -47.8946875 45.739375 -49.0625 46.8125 C-65.23191405 64.1100127 -69.36936408 84.46426187 -68.84326172 107.38232422 C-68.65764044 111.97037686 -67.89700461 116.25241551 -66.75 120.6875 C-66.43546875 121.9353125 -66.1209375 123.183125 -65.796875 124.46875 C-64.30110087 130.27434613 -62.69601467 136.01451973 -60.75 141.6875 C-65.70626427 140.20430567 -68.59183312 137.3478106 -72.125 133.75 C-72.98544922 132.87927856 -72.98544922 132.87927856 -73.86328125 131.9909668 C-78.66221482 127.01044093 -82.44645289 121.77585542 -85.75 115.6875 C-86.20761719 114.85605469 -86.66523437 114.02460938 -87.13671875 113.16796875 C-90.2595674 107.21298708 -92.74547479 101.10369393 -94.75 94.6875 C-95.05164063 93.73230469 -95.35328125 92.77710938 -95.6640625 91.79296875 C-102.31942139 66.57102454 -97.19757955 41.17286523 -85.12890625 18.6640625 C-80.16188981 10.34996783 -72.98785214 0.99992752 -64.75 -4.3125 C-64.09 -4.3125 -63.43 -4.3125 -62.75 -4.3125 C-62.75 -4.9725 -62.75 -5.6325 -62.75 -6.3125 C-44.06650568 -17.450737 -17.59300876 -10.74176752 0 0 Z " fill="#7C1C68" transform="translate(144.75,72.3125)"/>
<path d="M0 0 C1 3 1 3 0.29296875 4.875 C-0.07183594 5.57625 -0.43664062 6.2775 -0.8125 7 C-2.50981467 10.53178608 -3.29918158 13.49016963 -3.75 17.375 C-4.84940517 24.28003596 -8.60894721 28.7400463 -13 34 C-13.66773438 34.85335937 -14.33546875 35.70671875 -15.0234375 36.5859375 C-19.30727602 41.81797743 -22.54134578 44.07373471 -29 46 C-29.495 46.99 -29.495 46.99 -30 48 C-30.639375 48.309375 -31.27875 48.61875 -31.9375 48.9375 C-34.31971493 49.95345922 -34.31971493 49.95345922 -36 53 C-38.28515625 53.80859375 -38.28515625 53.80859375 -41.0625 54.4375 C-44.70607762 55.34602844 -48.03731505 56.34327409 -51.4375 57.9375 C-63.16518233 63.43154938 -73.73552119 65.19663763 -86.5625 65.25 C-88.38104492 65.2809375 -88.38104492 65.2809375 -90.23632812 65.3125 C-100.91713453 65.35831579 -115.44257765 64.26495516 -123.6640625 56.41015625 C-125.0625 54.75 -125.0625 54.75 -127 52 C-126.44957031 52.27972656 -125.89914063 52.55945313 -125.33203125 52.84765625 C-103.4367535 63.66693085 -81.02536086 64.93887817 -57.98339844 57.33447266 C-45.63711098 53.05656579 -35.54910938 46.87658203 -26.09375 37.8203125 C-24 36 -24 36 -21 35 C-19.94873383 33.15342618 -19.94873383 33.15342618 -19 31 C-18.01654047 29.63377355 -17.01431405 28.28097846 -16 26.9375 C-11.82767401 21.09624362 -8.6261897 14.80839845 -5.37695312 8.42553711 C-4.96767578 7.62510986 -4.55839844 6.82468262 -4.13671875 6 C-3.77280029 5.278125 -3.40888184 4.55625 -3.03393555 3.8125 C-2 2 -2 2 0 0 Z " fill="#E4AA2C" transform="translate(226,165)"/>
<path d="M0 0 C4.84498859 1.87060711 7.99462446 5.89686971 11.49023438 9.56835938 C14.47418761 12.64330991 17.28102524 14.81518794 21 17 C21 17.66 21 18.32 21 19 C21.72574219 19.26554687 22.45148438 19.53109375 23.19921875 19.8046875 C26.00170928 21.00072948 28.30479352 22.40329107 30.8125 24.125 C31.60269531 24.66382813 32.39289063 25.20265625 33.20703125 25.7578125 C34.09455078 26.37269531 34.09455078 26.37269531 35 27 C32 28 32 28 30.2109375 27.29296875 C29.60507813 26.92816406 28.99921875 26.56335938 28.375 26.1875 C27.76398438 25.83042969 27.15296875 25.47335938 26.5234375 25.10546875 C25 24 25 24 24 22 C23.01 21.67 22.02 21.34 21 21 C21 21.99 21 22.98 21 24 C20.34 24 19.68 24 19 24 C19 23.34 19 22.68 19 22 C18.34 22 17.68 22 17 22 C15.75573909 20.49378942 14.51383244 18.98538662 13.296875 17.45703125 C11.72755364 15.69390815 10.1500367 14.93168257 8 14 C7.01 13.01 6.02 12.02 5 11 C4.67 16.28 4.34 21.56 4 27 C3.67 27 3.34 27 3 27 C2.1279551 37.68255 6.04771177 48.45955357 10.265625 58.14453125 C11 60 11 60 11 62 C11.99 62.33 12.98 62.66 14 63 C14 64.65 14 66.3 14 68 C13.34 68 12.68 68 12 68 C9.37296284 64.17591389 7.21153136 60.07518139 5 56 C4.60167969 55.27296875 4.20335938 54.5459375 3.79296875 53.796875 C-1.47074923 43.1436131 -3.35299218 31.26648359 -3.375 19.5 C-3.37741699 18.28219849 -3.37741699 18.28219849 -3.37988281 17.03979492 C-3.1233051 3.1233051 -3.1233051 3.1233051 0 0 Z " fill="#F5BC55" transform="translate(82,152)"/>
<path d="M0 0 C4.93676263 1.60901893 9.82590975 3.30023873 14.6875 5.125 C18.45167919 6.51013335 21.9891087 7.56639013 26 8 C26 8.66 26 9.32 26 10 C30.4582769 10.05867342 34.91645273 10.09382135 39.375 10.125 C40.62667969 10.14175781 41.87835938 10.15851563 43.16796875 10.17578125 C52.69287389 10.22564986 61.09439037 9.36993401 70 5.875 C74.81751825 4 74.81751825 4 77 4 C77 4.66 77 5.32 77 6 C76.01 6 75.02 6 74 6 C74 6.66 74 7.32 74 8 C74.66 8 75.32 8 76 8 C76 8.66 76 9.32 76 10 C61.93465396 16.63985705 48.33580753 17.7007861 33 17 C32.34 16.67 31.68 16.34 31 16 C29.16999112 15.70754605 27.33585994 15.44064048 25.5 15.1875 C19.58405517 14.25152322 14.43420861 12.4766526 9 10 C9 9.34 9 8.68 9 8 C8.071875 7.979375 7.14375 7.95875 6.1875 7.9375 C3 7 3 7 1.93359375 5.375 C1.20025229 3.61781467 0.59224075 1.80962451 0 0 Z " fill="#FCC46E" transform="translate(117,180)"/>
<path d="M0 0 C1.24885269 3.60779667 0.61776684 6.29339893 0 10 C0.185625 10.7425 0.37125 11.485 0.5625 12.25 C0.7790625 13.11625 0.7790625 13.11625 1 14 C0.34 14.66 -0.32 15.32 -1 16 C-1.33 15.67 -1.66 15.34 -2 15 C-2.33 15.66 -2.66 16.32 -3 17 C-2.01 17.33 -1.02 17.66 0 18 C-0.03480469 18.87785156 -0.03480469 18.87785156 -0.0703125 19.7734375 C-0.36492634 33.7886387 -0.0200086 53.9699871 8 66 C8.4246844 68.15395488 8.77090033 70.32402939 9.0625 72.5 C9.51667276 75.83310259 9.93568845 78.80706535 11 82 C10.505 82.99 10.505 82.99 10 84 C10.99 84 11.98 84 13 84 C13.33 85.98 13.66 87.96 14 90 C5.66228763 82.36305591 1.2361443 70.68227263 -2 60 C-2.2990625 59.04996094 -2.598125 58.09992188 -2.90625 57.12109375 C-7.86238324 38.42086879 -6.05664396 18.16993188 0 0 Z " fill="#641252" transform="translate(52,107)"/>
<path d="M0 0 C-0.66 0.33 -1.32 0.66 -2 1 C-2 1.66 -2 2.32 -2 3 C-5.28531218 2.63496531 -6.02549068 1.97026088 -8.25 -0.625 C-10.6373852 -3.18736133 -10.6373852 -3.18736133 -12.921875 -3.0703125 C-14.30748829 -2.85674053 -15.68845436 -2.61048368 -17.0625 -2.33203125 C-19.5562398 -1.90467665 -21.58370966 -2.32041834 -24 -3 C-24 -3.66 -24 -4.32 -24 -5 C-25.01191406 -5.14308594 -26.02382812 -5.28617188 -27.06640625 -5.43359375 C-29.51389092 -5.7860121 -31.95964842 -6.15094355 -34.40234375 -6.53515625 C-42.46885113 -7.73844741 -50.0989884 -8.12354429 -58.234375 -8.00390625 C-63.19987549 -7.99875532 -68.07290474 -8.41542938 -73 -9 C-73.33 -9.99 -73.66 -10.98 -74 -12 C-49.05021995 -19.96269576 -21.88237596 -13.12942557 0 0 Z " fill="#F94845" transform="translate(190,61)"/>
<path d="M0 0 C0.99 0.33 1.98 0.66 3 1 C2.32904297 1.98226562 2.32904297 1.98226562 1.64453125 2.984375 C-10.96163379 22.01457723 -16.110445 44.16227844 -12.25 66.8125 C-11.86531848 68.54906229 -11.4453457 70.27799661 -11 72 C-10.68546875 73.2478125 -10.3709375 74.495625 -10.046875 75.78125 C-8.55110087 81.58684613 -6.94601467 87.32701973 -5 93 C-10.22654901 91.52357373 -13.16826439 88.17768064 -16.8125 84.375 C-17.40998047 83.76398438 -18.00746094 83.15296875 -18.62304688 82.5234375 C-20.08895106 81.02235161 -21.54542993 79.51207138 -23 78 C-22.67 77.01 -22.34 76.02 -22 75 C-20.68 75.66 -19.36 76.32 -18 77 C-18 77.66 -18 78.32 -18 79 C-17.34 79 -16.68 79 -16 79 C-15.80811676 74.20291909 -16.0977156 70.43866361 -18 66 C-18.66 65.67 -19.32 65.34 -20 65 C-19.505 64.505 -19.505 64.505 -19 64 C-18.63239269 61.67182036 -18.29758419 59.3381615 -18 57 C-17.67 57 -17.34 57 -17 57 C-16.67 49.41 -16.34 41.82 -16 34 C-14.515 33.505 -14.515 33.505 -13 33 C-13.11859375 32.29875 -13.2371875 31.5975 -13.359375 30.875 C-14.19326484 24.73757076 -14.12043943 21.061971 -10.92578125 15.7265625 C-9.69609331 13.43322044 -9.68097123 11.55223015 -10 9 C-8.576875 8.9071875 -8.576875 8.9071875 -7.125 8.8125 C-6.09375 8.544375 -5.0625 8.27625 -4 8 C-2.66096786 5.65245602 -2.66096786 5.65245602 -2 3 C-1.34 2.01 -0.68 1.02 0 0 Z " fill="#70195E" transform="translate(89,121)"/>
<path d="M0 0 C0.99 0.33 1.98 0.66 3 1 C-4.84358389 8.0592255 -12.36387755 12.69354154 -22 17 C-22.88816406 17.40089844 -23.77632813 17.80179688 -24.69140625 18.21484375 C-43.29505117 26.12811165 -63.58638282 27.28576528 -83 22 C-83.91394531 21.77183594 -84.82789062 21.54367188 -85.76953125 21.30859375 C-91.54446043 19.75619343 -97.17355414 17.60609167 -102 14 C-102.33 13.01 -102.66 12.02 -103 11 C-100.50127009 11.49974598 -98.45646784 12.24813425 -96.125 13.3125 C-90.32492792 15.87767349 -84.10723746 17.34859109 -78 19 C-77.40026367 19.17869629 -76.80052734 19.35739258 -76.18261719 19.54150391 C-71.05834988 20.61794395 -65.65147207 20.22853228 -60.4375 20.25 C-59.21224609 20.270625 -57.98699219 20.29125 -56.72460938 20.3125 C-48.96704079 20.34556369 -42.34987029 19.45991283 -35 17 C-33.83726562 16.649375 -32.67453125 16.29875 -31.4765625 15.9375 C-30.53554687 15.628125 -29.59453125 15.31875 -28.625 15 C-27.66851562 14.690625 -26.71203125 14.38125 -25.7265625 14.0625 C-22.94972876 13.07262133 -22.94972876 13.07262133 -20.4375 11.43359375 C-17.96217724 9.97775488 -16.18602659 9.49236489 -13.375 9.0625 C-9.76269135 8.40356394 -9.76269135 8.40356394 -7.125 5.875 C-6.568125 4.946875 -6.568125 4.946875 -6 4 C-5.01 4 -4.02 4 -3 4 C-2.67 3.01 -2.34 2.02 -2 1 C-1.34 0.67 -0.68 0.34 0 0 Z " fill="#E9C370" transform="translate(199,209)"/>
<path d="M0 0 C-1.134375 0.45375 -2.26875 0.9075 -3.4375 1.375 C-7.04721692 2.57095806 -7.04721692 2.57095806 -8 5 C-8.99 5.33 -9.98 5.66 -11 6 C-11.25652344 6.60199219 -11.51304688 7.20398438 -11.77734375 7.82421875 C-13.5705771 11.01537202 -16.42126737 12.17547328 -19.5625 13.8125 C-28.88197829 18.89899891 -36.39534629 24.94611178 -43.5625 32.8125 C-46 35 -46 35 -50 35 C-50.226875 35.928125 -50.45375 36.85625 -50.6875 37.8125 C-52.21799908 41.52942635 -53.39794214 42.37907396 -57 44 C-57.66 44 -58.32 44 -59 44 C-57.67997942 40.42705968 -56.10478612 37.36046508 -54 34.1875 C-53.484375 33.39730469 -52.96875 32.60710937 -52.4375 31.79296875 C-51.963125 31.20128906 -51.48875 30.60960938 -51 30 C-50.34 30 -49.68 30 -49 30 C-49 28.68 -49 27.36 -49 26 C-47.390625 24.65625 -47.390625 24.65625 -45.25 23.5 C-41.99571194 21.64287095 -39.60934086 19.70970013 -37 17 C-36.34 17 -35.68 17 -35 17 C-35 16.34 -35 15.68 -35 15 C-32.8828125 13.4921875 -32.8828125 13.4921875 -30.125 11.875 C-29.22007813 11.33617188 -28.31515625 10.79734375 -27.3828125 10.2421875 C-25 9 -25 9 -23 9 C-23 8.34 -23 7.68 -23 7 C-18.10640679 4.72840612 -13.16526799 2.61367432 -8.125 0.6875 C-7.22007812 0.34074219 -6.31515625 -0.00601563 -5.3828125 -0.36328125 C-3 -1 -3 -1 0 0 Z " fill="#520D44" transform="translate(139,87)"/>
<path d="M0 0 C14.89009936 8.18955465 23.43381845 27.77720034 27.96875 43.3203125 C31.60295237 57.55427179 30.12628696 66.9885661 22.875 79.625 C21.3671875 82.1640625 21.3671875 82.1640625 20 84 C19.34 84 18.68 84 18 84 C17.34 85.32 16.68 86.64 16 88 C15.67 88 15.34 88 15 88 C14.53601311 83.3429464 15.96180655 80.8050579 18.375 76.875 C19.31472656 75.32425781 19.31472656 75.32425781 20.2734375 73.7421875 C21.4892171 71.81124343 22.73427855 69.89858217 24 68 C24.66 68 25.32 68 26 68 C25.07790923 57.51728392 23.66297988 47.59276075 20.8046875 37.453125 C20.03713105 34.15933906 19.8451532 31.36533712 20 28 C19.34 28 18.68 28 18 28 C18 26.68 18 25.36 18 24 C17.01 23.67 16.02 23.34 15 23 C15.33 22.01 15.66 21.02 16 20 C15.01 19.67 14.02 19.34 13 19 C12 17.33333333 11 15.66666667 10 14 C9.01 13.67 8.02 13.34 7 13 C7 11.35 7 9.7 7 8 C5.35 8 3.7 8 2 8 C1.34 5.36 0.68 2.72 0 0 Z " fill="#E7534E" transform="translate(203,72)"/>
<path d="M0 0 C0.33 0.99 0.66 1.98 1 3 C1.66 3 2.32 3 3 3 C3.103125 4.0725 3.20625 5.145 3.3125 6.25 C3.68576322 9.89155324 3.68576322 9.89155324 5.46923828 11.91503906 C11.38897974 19.9779724 9.22901406 34.63949365 9.125 44.25 C9.114943 45.88150488 9.10582199 47.51301581 9.09765625 49.14453125 C9.07587452 53.0965067 9.04149726 57.04818442 9 61 C8.01 61.495 8.01 61.495 7 62 C6.9729957 63.45823212 6.95360213 64.91660675 6.9375 66.375 C6.92589844 67.18710938 6.91429687 67.99921875 6.90234375 68.8359375 C6.85533666 71.04937142 6.85533666 71.04937142 8 73 C10.64 72.67 13.28 72.34 16 72 C13.37801226 74.15377564 11.35595828 75.40072174 8 76 C8 76.66 8 77.32 8 78 C13.445 77.505 13.445 77.505 19 77 C15.76866397 79.42350203 13.64082275 80.71529119 10 82.125 C8.7315625 82.62386719 8.7315625 82.62386719 7.4375 83.1328125 C5.3015372 83.89272234 3.20881938 84.49892523 1 85 C-0.57890151 80.98737768 0.63595117 77.95772161 1.8125 73.9375 C4.80844334 63.63015704 6.3910547 53.75580729 6.375 43 C6.37411377 41.91710693 6.37322754 40.83421387 6.37231445 39.71850586 C6.22828557 29.78782385 4.63779503 20.5490589 2 11 C1.69191406 9.88109375 1.38382813 8.7621875 1.06640625 7.609375 C0.41829287 5.38904399 -0.25687826 3.18995725 -1 1 C-0.67 0.67 -0.34 0.34 0 0 Z " fill="#D64740" transform="translate(178,100)"/>
<path d="M0 0 C0.99 0.495 0.99 0.495 2 1 C-0.90620346 4.9261691 -4.12106649 7.9494666 -8 10.875 C-8.86202026 11.5251709 -8.86202026 11.5251709 -9.74145508 12.18847656 C-26.19575755 24.39760063 -43.1824519 30.16521561 -63.5625 30.25 C-64.77486328 30.270625 -65.98722656 30.29125 -67.23632812 30.3125 C-77.91713453 30.35831579 -92.44257765 29.26495516 -100.6640625 21.41015625 C-102.0625 19.75 -102.0625 19.75 -104 17 C-103.44957031 17.27972656 -102.89914063 17.55945313 -102.33203125 17.84765625 C-80.4367535 28.66693085 -58.02536086 29.93887817 -34.98339844 22.33447266 C-21.26833903 17.58229538 -10.26792639 10.26792639 0 0 Z " fill="#9A6706" transform="translate(203,200)"/>
<path d="M0 0 C0.495 0.99 0.495 0.99 1 2 C0.07421875 3.91796875 0.07421875 3.91796875 -1.3125 6.1875 C-3.05866034 9.16793258 -4.09707755 11.36404082 -5 14.75 C-7.44106296 22.68345463 -17.28885725 28.52590484 -24 33 C-27.13671875 33.4140625 -27.13671875 33.4140625 -30.6875 33.625 C-32.45673828 33.73714844 -32.45673828 33.73714844 -34.26171875 33.8515625 C-35.16535156 33.90054688 -36.06898438 33.94953125 -37 34 C-37 33.34 -37 32.68 -37 32 C-36.03320312 31.52691406 -35.06640625 31.05382812 -34.0703125 30.56640625 C-19.58613866 23.28702743 -9.16853352 13.33604876 0 0 Z " fill="#880C07" transform="translate(223,144)"/>
<path d="M0 0 C16.99672976 1.54515725 31.58469683 10.86065784 44 22 C44.65613281 22.58523437 45.31226563 23.17046875 45.98828125 23.7734375 C53.79399375 31.14646084 60.32936976 40.90576684 64 51 C63.65625 53.3515625 63.65625 53.3515625 63 55 C62.32880451 53.5437455 61.66318193 52.08492133 61 50.625 C60.62875 49.81289062 60.2575 49.00078125 59.875 48.1640625 C59 46 59 46 59 44 C58.01 44 57.02 44 56 44 C55.731875 43.401875 55.46375 42.80375 55.1875 42.1875 C54.11763032 39.96966765 54.11763032 39.96966765 52.4375 38.4375 C51 37 51 37 50 34 C49.01 33.67 48.02 33.34 47 33 C46.66666667 31.66666667 46.33333333 30.33333333 46 29 C45.01 28.67 44.02 28.34 43 28 C43 27.34 43 26.68 43 26 C41.43752272 24.49339338 41.43752272 24.49339338 39.5 23 C37.53125 21.4375 37.53125 21.4375 36 20 C36 19.34 36 18.68 36 18 C35.47148437 17.74863281 34.94296875 17.49726562 34.3984375 17.23828125 C31.39120567 15.68568762 28.52915357 13.92534018 25.625 12.1875 C19.5891107 8.6434401 13.64673112 6.22442165 6.9609375 4.10546875 C4.15791565 3.05895795 2.26323641 1.92651099 0 0 Z " fill="#A91A13" transform="translate(121,53)"/>
<path d="M0 0 C4.84498859 1.87060711 7.99462446 5.89686971 11.49023438 9.56835938 C14.47418761 12.64330991 17.28102524 14.81518794 21 17 C21 17.66 21 18.32 21 19 C21.72574219 19.26554687 22.45148438 19.53109375 23.19921875 19.8046875 C26.00170928 21.00072948 28.30479352 22.40329107 30.8125 24.125 C31.60269531 24.66382813 32.39289063 25.20265625 33.20703125 25.7578125 C34.09455078 26.37269531 34.09455078 26.37269531 35 27 C32 28 32 28 30.2109375 27.29296875 C29.60507813 26.92816406 28.99921875 26.56335938 28.375 26.1875 C27.76398438 25.83042969 27.15296875 25.47335938 26.5234375 25.10546875 C25 24 25 24 24 22 C23.01 21.67 22.02 21.34 21 21 C21 21.99 21 22.98 21 24 C20.34 24 19.68 24 19 24 C19 23.34 19 22.68 19 22 C18.34 22 17.68 22 17 22 C15.7534056 20.49096467 14.50919172 18.97973171 13.2890625 17.44921875 C11.71917413 15.68428365 10.12558815 14.99636945 8 14 C3.22222222 9.66666667 3.22222222 9.66666667 2 6 C1.34 9.3 0.68 12.6 0 16 C-0.33 16 -0.66 16 -1 16 C-1 22.27 -1 28.54 -1 35 C-1.33 35 -1.66 35 -2 35 C-3.26372646 30.10685114 -3.18378902 25.26724297 -3.1875 20.25 C-3.19974609 19.3940625 -3.21199219 18.538125 -3.22460938 17.65625 C-3.23766433 11.91206826 -2.70709256 6.51000592 -1 1 C-0.67 0.67 -0.34 0.34 0 0 Z " fill="#FBC368" transform="translate(82,152)"/>
<path d="M0 0 C3.70869909 1.32359932 6.53387431 2.94246466 9.625 5.375 C10.38039062 5.96023437 11.13578125 6.54546875 11.9140625 7.1484375 C13.9465663 8.95257009 15.45823099 10.77081806 17 13 C16.45762695 13.18030762 15.91525391 13.36061523 15.35644531 13.54638672 C11.35424376 14.87845252 7.35428974 16.21653705 3.359375 17.5703125 C1.82291667 18.08854167 0.28645833 18.60677083 -1.25 19.125 C-2.02601563 19.38925781 -2.80203125 19.65351562 -3.6015625 19.92578125 C-7.38028451 21.19610247 -11.0534172 22.35276042 -15 23 C-14.505 21.515 -14.505 21.515 -14 20 C-13.01 20 -12.02 20 -11 20 C-10.67 19.01 -10.34 18.02 -10 17 C-7.9375 15.8125 -7.9375 15.8125 -6 15 C-6.66 14.67 -7.32 14.34 -8 14 C-6.75108386 13.51801537 -5.50081192 13.03954323 -4.25 12.5625 C-3.55390625 12.29566406 -2.8578125 12.02882813 -2.140625 11.75390625 C-0.10940997 11.03853307 1.9035291 10.48634348 4 10 C3.67 9.38125 3.34 8.7625 3 8.125 C2 6 2 6 2 4 C1.36525925 2.65117592 0.70151152 1.3153341 0 0 Z " fill="#490B3B" transform="translate(142,72)"/>
<path d="M0 0 C0.99 0 1.98 0 3 0 C1.39946285 12.37643084 -1.91547804 23.1087057 -8 34 C-9.53998526 30.05802514 -8.37922994 27.33448862 -7.0625 23.4375 C-5.47018524 18.81135403 -5.47018524 18.81135403 -5 14 C-5 13.34 -5 12.68 -5 12 C-4.34 12 -3.68 12 -3 12 C-3 11.01 -3 10.02 -3 9 C-3.33 9.66 -3.66 10.32 -4 11 C-4.66 11 -5.32 11 -6 11 C-6.0928125 11.8971875 -6.0928125 11.8971875 -6.1875 12.8125 C-7.33554682 15.90339529 -9.10547052 16.5880344 -12 18 C-12.66 18 -13.32 18 -14 18 C-14 18.66 -14 19.32 -14 20 C-14.99 20.33 -15.98 20.66 -17 21 C-18.19990303 22.52420114 -19.39966743 24.04851262 -20.59765625 25.57421875 C-22.70606991 27.71787052 -25.1547907 28.22403383 -28 29 C-28.33 29.66 -28.66 30.32 -29 31 C-31.32156597 31.40729228 -33.6568787 31.74438677 -36 32 C-33.85167766 29.65027244 -31.84163069 28.28536817 -29 26.875 C-18.9575767 21.42246871 -7.11926061 12.22889852 -1.40625 2.203125 C-0.9421875 1.47609375 -0.478125 0.7490625 0 0 Z " fill="#F2C15F" transform="translate(230,152)"/>
<path d="M0 0 C-2.475 1.485 -2.475 1.485 -5 3 C-3.74896484 3.18175781 -3.74896484 3.18175781 -2.47265625 3.3671875 C13.99202615 5.81897297 30.22967932 9.19112161 42 22 C42.763125 22.556875 43.52625 23.11375 44.3125 23.6875 C44.869375 24.120625 45.42625 24.55375 46 25 C46 25.66 46 26.32 46 27 C46.99 27.33 47.98 27.66 49 28 C48.505 29.485 48.505 29.485 48 31 C45.96166576 29.7260411 43.96147874 28.38938077 42 27 C42 26.34 42 25.68 42 25 C39.525 24.01 39.525 24.01 37 23 C37 22.34 37 21.68 37 21 C36.30132812 20.73960938 35.60265625 20.47921875 34.8828125 20.2109375 C31.73404586 18.88828485 28.85111554 17.29952201 25.875 15.625 C16.29475302 10.45981091 7.37716368 7.62411367 -3.33886719 6.03808594 C-8.79906039 5.20093961 -8.79906039 5.20093961 -11 3 C-7.6562111 -0.84535724 -4.83651161 -1.55459302 0 0 Z " fill="#CA4747" transform="translate(116,51)"/>
<path d="M0 0 C0.66 0.99 1.32 1.98 2 3 C2.50273437 3.74894531 3.00546875 4.49789062 3.5234375 5.26953125 C9.40603895 16.1476752 9.16666335 30.62310019 8.96362305 42.73193359 C8.94093732 44.48785105 8.96619517 46.24426141 9 48 C9.33 48.33 9.66 48.66 10 49 C9.52545762 56.23677131 7.88043224 63.01046883 6 70 C3.89366282 68.29171079 3.06198392 67.47851584 2.70703125 64.73828125 C2.74183594 63.93777344 2.77664062 63.13726562 2.8125 62.3125 C2.83957031 61.50425781 2.86664063 60.69601563 2.89453125 59.86328125 C2.92933594 59.24839844 2.96414062 58.63351563 3 58 C4.485 57.505 4.485 57.505 6 57 C5.90531348 52.2348817 5.79899073 47.47020449 5.68261719 42.70556641 C5.64471146 41.09007573 5.60979745 39.47451162 5.578125 37.85888672 C6.05486459 20.96305418 6.05486459 20.96305418 0 6 C-0.75 3.3125 -0.75 3.3125 -1 1 C-0.67 0.67 -0.34 0.34 0 0 Z " fill="#EA3530" transform="translate(181,104)"/>
<path d="M0 0 C0.99 0.33 1.98 0.66 3 1 C2.32904297 1.98226562 2.32904297 1.98226562 1.64453125 2.984375 C-7.31542121 16.51027338 -13.1730935 31.43871081 -13.09765625 47.80859375 C-13.09443359 49.04931641 -13.09121094 50.29003906 -13.08789062 51.56835938 C-13.07951172 52.84517578 -13.07113281 54.12199219 -13.0625 55.4375 C-13.05798828 56.74138672 -13.05347656 58.04527344 -13.04882812 59.38867188 C-13.03709251 62.59249552 -13.02067363 65.79622363 -13 69 C-13.33 68.01 -13.66 67.02 -14 66 C-14.66 66 -15.32 66 -16 66 C-16 55.44 -16 44.88 -16 34 C-14.515 33.505 -14.515 33.505 -13 33 C-13.17789063 31.948125 -13.17789063 31.948125 -13.359375 30.875 C-14.19326484 24.73757076 -14.12043943 21.061971 -10.92578125 15.7265625 C-9.69609331 13.43322044 -9.68097123 11.55223015 -10 9 C-8.576875 8.9071875 -8.576875 8.9071875 -7.125 8.8125 C-6.09375 8.544375 -5.0625 8.27625 -4 8 C-2.66096786 5.65245602 -2.66096786 5.65245602 -2 3 C-1.34 2.01 -0.68 1.02 0 0 Z " fill="#7D366F" transform="translate(89,121)"/>
<path d="M0 0 C0 0.33 0 0.66 0 1 C-2.97 1 -5.94 1 -9 1 C-9 0.34 -9 -0.32 -9 -1 C-13.62 -0.67 -18.24 -0.34 -23 0 C-23 0.66 -23 1.32 -23 2 C-32.12752383 2.74440282 -40.87876505 3.25610227 -50 2 C-50.33 1.01 -50.66 0.02 -51 -1 C-34.40938434 -6.29487734 -16.57420684 -4.54978227 0 0 Z " fill="#F06662" transform="translate(167,50)"/>
<path d="M0 0 C0.66 0 1.32 0 2 0 C1.62294181 3.24270044 1.35788931 5.49895496 -0.5625 8.1875 C-2.53304642 12.04291692 -2.13507019 15.31238803 -1.91015625 19.57421875 C-2 22 -2 22 -4 24 C-4.37095708 26.42246595 -4.37095708 26.42246595 -4.4140625 29.2265625 C-4.45273438 30.2578125 -4.49140625 31.2890625 -4.53125 32.3515625 C-4.57765625 33.97191406 -4.57765625 33.97191406 -4.625 35.625 C-4.66367188 36.71296875 -4.70234375 37.8009375 -4.7421875 38.921875 C-4.83666247 41.61441165 -4.92222431 44.30693757 -5 47 C-5.33 47 -5.66 47 -6 47 C-6.33 48.98 -6.66 50.96 -7 53 C-7.33 53 -7.66 53 -8 53 C-10.55575565 34.47077151 -8.43509814 16.87019627 0 0 Z " fill="#72165C" transform="translate(78,132)"/>
<path d="M0 0 C1 3 1 3 1 5 C2.32 5.33 3.64 5.66 5 6 C5.12375 7.175625 5.12375 7.175625 5.25 8.375 C5.72806339 11.14749104 5.72806339 11.14749104 8.0625 12.3125 C8.701875 12.539375 9.34125 12.76625 10 13 C10 13.99 10 14.98 10 16 C10.99 16 11.98 16 13 16 C14.32 18.97 15.64 21.94 17 25 C17.66 25 18.32 25 19 25 C24.04102572 40.7892127 24.6058112 55.49956693 24 72 C23.34 71.67 22.68 71.34 22 71 C22.02320313 70.030625 22.04640625 69.06125 22.0703125 68.0625 C22.28218032 55.21619417 21.98557087 42.02986005 17 30 C16.75121094 29.34386719 16.50242188 28.68773438 16.24609375 28.01171875 C14.97482546 24.79694083 13.82701783 22.08953492 11 20 C10.34 20 9.68 20 9 20 C7.82633941 18.14638492 6.73595427 16.23970308 5.6875 14.3125 C3.15066305 9.80669546 0.79490086 6.44990987 -3 3 C-3 2.34 -3 1.68 -3 1 C-2.01 0.67 -1.02 0.34 0 0 Z " fill="#CA2724" transform="translate(167,81)"/>
<path d="M0 0 C0.495 0.99 0.495 0.99 1 2 C0.67 2.66 0.34 3.32 0 4 C-0.66 4 -1.32 4 -2 4 C-2.0928125 5.11375 -2.0928125 5.11375 -2.1875 6.25 C-3.24560475 9.83127761 -5.03252236 10.84857871 -8 13 C-8.33 13.66 -8.66 14.32 -9 15 C-9.70125 15.4125 -10.4025 15.825 -11.125 16.25 C-15.14122724 18.69466006 -19.85320289 21.70640577 -22 26 C-23.66475686 26.34274406 -25.33195323 26.67364302 -27 27 C-29.37816318 27.91581439 -31.67521602 28.95156801 -34 30 C-34 29.34 -34 28.68 -34 28 C-34.66 28 -35.32 28 -36 28 C-36 27.34 -36 26.68 -36 26 C-35.01 26 -34.02 26 -33 26 C-33 25.34 -33 24.68 -33 24 C-31.329375 23.87625 -31.329375 23.87625 -29.625 23.75 C-28.42875 23.5025 -27.2325 23.255 -26 23 C-24.90833725 21.06669397 -24.90833725 21.06669397 -24 19 C-22.576875 18.5359375 -22.576875 18.5359375 -21.125 18.0625 C-17.36668717 16.78467364 -16.35730353 15.08888049 -14 12 C-13.01 12 -12.02 12 -11 12 C-11 11.34 -11 10.68 -11 10 C-10.38125 9.71125 -9.7625 9.4225 -9.125 9.125 C-6.12343992 7.53593878 -4.8941597 5.84123955 -3 3 C-2.34 3 -1.68 3 -1 3 C-0.67 2.01 -0.34 1.02 0 0 Z M-37 30 C-36.01 30.33 -35.02 30.66 -34 31 C-34.99 31 -35.98 31 -37 31 C-37 30.67 -37 30.34 -37 30 Z " fill="#FCC266" transform="translate(227,160)"/>
<path d="M0 0 C0.33 0 0.66 0 1 0 C1.03963867 0.68924561 1.07927734 1.37849121 1.12011719 2.08862305 C2.44933113 24.0702233 5.6041948 45.6041948 22 62 C18.3003071 61.2885206 15.19918912 59.99060657 12 58 C11.3125 55.5 11.3125 55.5 11 53 C10.55011719 52.57589844 10.10023437 52.15179688 9.63671875 51.71484375 C7.42660778 49.39923822 6.6301386 47.05084725 5.5 44.0625 C5.0978125 43.02222656 4.695625 41.98195312 4.28125 40.91015625 C0.9307681 31.08118789 -0.42658949 22.13506656 -0.1875 11.75 C-0.17396484 10.61175781 -0.16042969 9.47351563 -0.14648438 8.30078125 C-0.11160054 5.53333013 -0.06259317 2.76693895 0 0 Z " fill="#D4971F" transform="translate(84,162)"/>
<path d="M0 0 C4.93676263 1.60901893 9.82590975 3.30023873 14.6875 5.125 C18.45167919 6.51013335 21.9891087 7.56639013 26 8 C26 8.66 26 9.32 26 10 C37.55 10 49.1 10 61 10 C61 10.66 61 11.32 61 12 C56.28606679 12.04970487 51.5722886 12.085863 46.8581543 12.10986328 C45.25689026 12.11987623 43.65564429 12.1334906 42.05444336 12.15087891 C39.74328124 12.17533565 37.43236238 12.18653029 35.12109375 12.1953125 C34.0597245 12.21079636 34.0597245 12.21079636 32.97691345 12.22659302 C28.317121 12.22762792 24.42896813 11.39033212 20 10 C16.9521924 9.76200064 16.9521924 9.76200064 14.0625 9.875 C12.62583984 9.90207031 12.62583984 9.90207031 11.16015625 9.9296875 C10.44730469 9.95289063 9.73445313 9.97609375 9 10 C9 9.34 9 8.68 9 8 C8.071875 7.979375 7.14375 7.95875 6.1875 7.9375 C3 7 3 7 1.93359375 5.375 C1.20025229 3.61781467 0.59224075 1.80962451 0 0 Z " fill="#F7CC88" transform="translate(117,180)"/>
<path d="M0 0 C0.99 0.66 1.98 1.32 3 2 C1.700625 3.0209375 1.700625 3.0209375 0.375 4.0625 C-2.72024254 6.60293492 -5.10111037 9.45599086 -7.5078125 12.64453125 C-9 14 -9 14 -13 14 C-13.226875 14.928125 -13.45375 15.85625 -13.6875 16.8125 C-15.21799908 20.52942635 -16.39794214 21.37907396 -20 23 C-20.66 23 -21.32 23 -22 23 C-20.67997942 19.42705968 -19.10478612 16.36046508 -17 13.1875 C-16.484375 12.39730469 -15.96875 11.60710937 -15.4375 10.79296875 C-14.963125 10.20128906 -14.48875 9.60960938 -14 9 C-13.34 9 -12.68 9 -12 9 C-12 7.68 -12 6.36 -12 5 C-9.27092472 3.87626312 -6.55690949 2.85514349 -3.75 1.9375 C-1.11931124 1.26635086 -1.11931124 1.26635086 0 0 Z " fill="#550C46" transform="translate(102,108)"/>
<path d="M0 0 C0.99 1.32 1.98 2.64 3 4 C5.64 3.67 8.28 3.34 11 3 C8.37801226 5.15377564 6.35595828 6.40072174 3 7 C3 7.66 3 8.32 3 9 C8.445 8.505 8.445 8.505 14 8 C10.76866397 10.42350203 8.64082275 11.71529119 5 13.125 C4.154375 13.45757812 3.30875 13.79015625 2.4375 14.1328125 C0.3015372 14.89272234 -1.79118062 15.49892523 -4 16 C-5.20655614 12.51799235 -4.78332187 10.35462394 -3.6875 6.875 C-3.42324219 6.00617188 -3.15898437 5.13734375 -2.88671875 4.2421875 C-2 2 -2 2 0 0 Z " fill="#DD5D5B" transform="translate(183,169)"/>
<path d="M0 0 C7.97556739 1.68555806 14.87861501 4.01391504 22 8 C21.01 8.495 21.01 8.495 20 9 C20.33 10.65 20.66 12.3 21 14 C18.17866274 12.88856411 15.39676502 11.73189557 12.625 10.5 C9.04316343 8.87859785 9.04316343 8.87859785 5.1875 8.25 C4.135625 7.8375 3.08375 7.425 2 7 C0.5625 3.375 0.5625 3.375 0 0 Z " fill="#8C3278" transform="translate(120,63)"/>
<path d="M0 0 C4.07376031 1.61010527 6.76507069 4.53822271 9.75 7.625 C10.25660156 8.140625 10.76320313 8.65625 11.28515625 9.1875 C12.52803902 10.45383339 13.76465276 11.7263144 15 13 C13 14 13 14 11.1875 13.4375 C8.12494185 11.42496179 6.30435937 8.85012869 4 6 C3.34 5.67 2.68 5.34 2 5 C1.34 8.63 0.68 12.26 0 16 C-0.33 16 -0.66 16 -1 16 C-1 22.27 -1 28.54 -1 35 C-1.33 35 -1.66 35 -2 35 C-3.26372646 30.10685114 -3.18378902 25.26724297 -3.1875 20.25 C-3.19974609 19.3940625 -3.21199219 18.538125 -3.22460938 17.65625 C-3.23766433 11.91206826 -2.70709256 6.51000592 -1 1 C-0.67 0.67 -0.34 0.34 0 0 Z " fill="#F5D39D" transform="translate(82,152)"/>
<path d="M0 0 C10.71741745 5.8945796 20.18233305 20.50723179 24 32 C23.625 34.3125 23.625 34.3125 23 36 C22.67 36 22.34 36 22 36 C21.71125 34.865625 21.4225 33.73125 21.125 32.5625 C20.75375 31.386875 20.3825 30.21125 20 29 C19.34 28.67 18.68 28.34 18 28 C18 26.68 18 25.36 18 24 C17.01 23.67 16.02 23.34 15 23 C15.33 22.01 15.66 21.02 16 20 C15.01 19.67 14.02 19.34 13 19 C12 17.33333333 11 15.66666667 10 14 C9.01 13.67 8.02 13.34 7 13 C7 11.35 7 9.7 7 8 C5.35 8 3.7 8 2 8 C1.34 5.36 0.68 2.72 0 0 Z " fill="#EA8280" transform="translate(203,72)"/>
<path d="M0 0 C0.33 0.99 0.66 1.98 1 3 C-4.81939676 9.00125291 -10.89512697 14.55945435 -18 19 C-18.66 18.67 -19.32 18.34 -20 18 C-19.73622845 14.76879851 -18.96881033 13.97325916 -16.453125 11.81640625 C-15.39609375 11.07261719 -14.3390625 10.32882813 -13.25 9.5625 C-9.98306035 7.2490883 -7.05870305 5.05911762 -4.234375 2.21484375 C-2 0 -2 0 0 0 Z " fill="#C32C25" transform="translate(217,158)"/>
<path d="M0 0 C7.38633126 2.62095625 13.67746001 6.2212423 19 12 C19.763125 12.556875 20.52625 13.11375 21.3125 13.6875 C21.869375 14.120625 22.42625 14.55375 23 15 C23 15.66 23 16.32 23 17 C23.99 17.33 24.98 17.66 26 18 C25.67 18.99 25.34 19.98 25 21 C22.96166576 19.7260411 20.96147874 18.38938077 19 17 C19 16.34 19 15.68 19 15 C17.35 14.34 15.7 13.68 14 13 C14 12.34 14 11.68 14 11 C13.2575 10.7525 12.515 10.505 11.75 10.25 C8.78209456 8.90095207 7.24467077 7.31949313 5 5 C4.01 4.67 3.02 4.34 2 4 C0.8125 1.9375 0.8125 1.9375 0 0 Z " fill="#C9423E" transform="translate(139,61)"/>
<path d="M0 0 C3.70869909 1.32359932 6.53387431 2.94246466 9.625 5.375 C10.38039062 5.96023437 11.13578125 6.54546875 11.9140625 7.1484375 C13.9465663 8.95257009 15.45823099 10.77081806 17 13 C10.71428571 15.42857143 10.71428571 15.42857143 7 14 C7.99 13.34 8.98 12.68 10 12 C7.36 10.68 4.72 9.36 2 8 C2.33 6.68 2.66 5.36 3 4 C2.01 3.34 1.02 2.68 0 2 C0 1.34 0 0.68 0 0 Z " fill="#8D3F7C" transform="translate(142,72)"/>
<path d="M0 0 C1.24885269 3.60779667 0.61776684 6.29339893 0 10 C0.185625 10.7425 0.37125 11.485 0.5625 12.25 C0.7790625 13.11625 0.7790625 13.11625 1 14 C0.34 14.66 -0.32 15.32 -1 16 C-1.33 15.67 -1.66 15.34 -2 15 C-2.33 15.66 -2.66 16.32 -3 17 C-2.01 17.33 -1.02 17.66 0 18 C-0.11347619 19.97986082 -0.2410935 21.95891598 -0.375 23.9375 C-0.44460937 25.03964844 -0.51421875 26.14179688 -0.5859375 27.27734375 C-0.72257812 28.17582031 -0.85921875 29.07429688 -1 30 C-1.66 30.33 -2.32 30.66 -3 31 C-3.31241371 33.54941373 -3.51303421 36.00361513 -3.625 38.5625 C-3.66367187 39.27341797 -3.70234375 39.98433594 -3.7421875 40.71679688 C-3.83671783 42.47742425 -3.91945817 44.23867728 -4 46 C-4.33 46 -4.66 46 -5 46 C-5.48473048 29.8342385 -5.1344887 15.40346609 0 0 Z " fill="#A16594" transform="translate(52,107)"/>
<path d="M0 0 C9.58383307 0.87125755 18.18875348 4.28516526 26.5 9 C27.08724854 9.33201416 27.67449707 9.66402832 28.27954102 10.00610352 C31.64772686 11.98787611 34.36954049 14.11165231 37 17 C32.97351535 17 32.4260409 16.92226233 29.375 14.8125 C22.14647092 10.08255676 14.64266707 6.6927737 6.4453125 3.9921875 C3.92671509 2.97026459 2.09042759 1.72095667 0 0 Z " fill="#850C08" transform="translate(121,53)"/>
<path d="M0 0 C1.32 0.33 2.64 0.66 4 1 C4.05441656 2.89551022 4.09298035 4.7914792 4.125 6.6875 C4.14820313 7.74324219 4.17140625 8.79898438 4.1953125 9.88671875 C3.99643451 13.05683393 3.26767071 15.1189302 2 18 C1.6186926 20.32597511 1.27539746 22.65912158 1 25 C0.34 25 -0.32 25 -1 25 C-1 21.37 -1 17.74 -1 14 C-1.66 13.67 -2.32 13.34 -3 13 C-2.67 11.35 -2.34 9.7 -2 8 C-1.34 8.66 -0.68 9.32 0 10 C-0.185625 8.906875 -0.37125 7.81375 -0.5625 6.6875 C-1 3 -1 3 0 0 Z " fill="#711A5E" transform="translate(52,111)"/>
<path d="M0 0 C0.33 0 0.66 0 1 0 C1.375 2.25 1.375 2.25 1 5 C-3.97297297 9 -3.97297297 9 -7 9 C-7 9.66 -7 10.32 -7 11 C-7.99 11.33 -8.98 11.66 -10 12 C-11.19990303 13.52420114 -12.39966743 15.04851262 -13.59765625 16.57421875 C-15.70606991 18.71787052 -18.1547907 19.22403383 -21 20 C-21.33 20.66 -21.66 21.32 -22 22 C-24.32156597 22.40729228 -26.6568787 22.74438677 -29 23 C-26.85167766 20.65027244 -24.84163069 19.28536817 -22 17.875 C-13.59488407 13.33651163 -6.62595088 6.80031801 0 0 Z " fill="#F4D097" transform="translate(223,161)"/>
<path d="M0 0 C5.67063936 0.76938323 11.2814796 1.12431566 17 1 C16.01 1.33 15.02 1.66 14 2 C14 2.66 14 3.32 14 4 C14.66 4 15.32 4 16 4 C16 4.66 16 5.32 16 6 C10.06 4.515 10.06 4.515 4 3 C4.99 3.99 5.98 4.98 7 6 C1.06 5.34 -4.88 4.68 -11 4 C-7.0486097 0.0486097 -5.35526426 -1.43513377 0 0 Z " fill="#D83A36" transform="translate(120,51)"/>
<path d="M0 0 C3.20257669 0.64051534 6.02201486 1.86007661 9 3.17578125 C11.90771686 4.37407863 14.8879638 5.31113604 17.88671875 6.25390625 C20.03073396 7.01085062 21.98947366 7.94254484 24 9 C24 9.66 24 10.32 24 11 C24.99 11.33 25.98 11.66 27 12 C17.83937863 11.00428029 8.49394029 8.59911712 1 3 C0.67 2.01 0.34 1.02 0 0 Z " fill="#E7B952" transform="translate(96,220)"/>
<path d="M0 0 C1 3 1 3 0.07421875 5.3046875 C-0.38339844 6.15289062 -0.84101563 7.00109375 -1.3125 7.875 C-3.08584033 11.19810767 -4.65597579 14.47903516 -6 18 C-6.66 18 -7.32 18 -8 18 C-8 18.66 -8 19.32 -8 20 C-8.66 20 -9.32 20 -10 20 C-10.2578125 20.72703125 -10.515625 21.4540625 -10.78125 22.203125 C-12.0501564 25.1151025 -13.53227252 27.26532716 -15.5 29.75 C-16.1084375 30.52859375 -16.716875 31.3071875 -17.34375 32.109375 C-19 34 -19 34 -21 35 C-19.6150853 32.02376505 -17.97480539 29.55316772 -16 26.9375 C-11.82767401 21.09624362 -8.6261897 14.80839845 -5.37695312 8.42553711 C-4.96767578 7.62510986 -4.55839844 6.82468262 -4.13671875 6 C-3.59084106 4.9171875 -3.59084106 4.9171875 -3.03393555 3.8125 C-2 2 -2 2 0 0 Z " fill="#CC8F15" transform="translate(226,165)"/>
<path d="M0 0 C8.30492809 1.36416689 15.85083386 5.71050032 23 10 C22.01 10.495 22.01 10.495 21 11 C21 11.66 21 12.32 21 13 C17.71023489 12.63447054 16.95120285 11.94460864 14.6875 9.375 C12.1203237 6.54935754 12.1203237 6.54935754 8.1875 7.1875 C7.135625 7.455625 6.08375 7.72375 5 8 C4.54625 7.195625 4.0925 6.39125 3.625 5.5625 C2.25274335 2.91143428 2.25274335 2.91143428 0 2 C0 1.34 0 0.68 0 0 Z " fill="#EE706E" transform="translate(167,51)"/>
<path d="M0 0 C2.47247818 2.8096343 3.47389673 5.33626406 4.40625 8.93359375 C6.10661859 14.85132391 8.30666452 20.08607501 12 25 C12 25.66 12 26.32 12 27 C12.99 27.33 13.98 27.66 15 28 C15 29.65 15 31.3 15 33 C14.34 33 13.68 33 13 33 C6.43103633 23.43778934 0 11.87090843 0 0 Z " fill="#F1D299" transform="translate(81,187)"/>
<path d="M0 0 C2.30204353 3.5724858 1.95971217 5.73751249 1.1328125 9.82421875 C-0.15371799 17.20369981 -0.22710489 24.3392073 -0.125 31.8125 C-0.11146484 33.72772461 -0.11146484 33.72772461 -0.09765625 35.68164062 C-0.07438789 38.78796716 -0.04170155 41.89387572 0 45 C-0.495 43.515 -0.495 43.515 -1 42 C-1.66 42 -2.32 42 -3 42 C-3 31.44 -3 20.88 -3 10 C-2.01 9.67 -1.02 9.34 0 9 C-0.185625 7.88625 -0.37125 6.7725 -0.5625 5.625 C-1 2 -1 2 0 0 Z " fill="#9D6997" transform="translate(76,145)"/>
<path d="M0 0 C2.74063137 3.53629854 5.19231498 7.24895665 7.625 11 C8.03234375 11.61617187 8.4396875 12.23234375 8.859375 12.8671875 C10.8212867 15.89450821 12.25826951 18.47654028 13 22 C12.34 22 11.68 22 11 22 C10.34 21.01 9.68 20.02 9 19 C8.01 19 7.02 19 6 19 C5.67 17.02 5.34 15.04 5 13 C4.01 13 3.02 13 2 13 C1.05675742 8.68803391 0.51958285 4.37934119 0 0 Z " fill="#560A47" transform="translate(60,178)"/>
<path d="M0 0 C0.33 0 0.66 0 1 0 C1.33 2.97 1.66 5.94 2 9 C2.33 9 2.66 9 3 9 C3.33 16.26 3.66 23.52 4 31 C3.01 31 2.02 31 1 31 C0.11436911 27.20925463 -0.11681301 23.71304102 -0.09765625 19.82421875 C-0.09443359 18.66728516 -0.09121094 17.51035156 -0.08789062 16.31835938 C-0.07951172 15.12017578 -0.07113281 13.92199219 -0.0625 12.6875 C-0.05798828 11.46998047 -0.05347656 10.25246094 -0.04882812 8.99804688 C-0.03706578 5.99864774 -0.02062826 2.99934911 0 0 Z " fill="#701E5E" transform="translate(48,128)"/>
<path d="M0 0 C0.33 0 0.66 0 1 0 C1.54848998 6.1430878 0.67398815 9.38457942 -2.7109375 14.53125 C-3.34902344 15.25828125 -3.34902344 15.25828125 -4 16 C-4.66 16 -5.32 16 -6 16 C-6.66 17.32 -7.32 18.64 -8 20 C-8.33 20 -8.66 20 -9 20 C-9.46398689 15.3429464 -8.03819345 12.8050579 -5.625 8.875 C-4.99851563 7.84117187 -4.37203125 6.80734375 -3.7265625 5.7421875 C-2.5107829 3.81124343 -1.26572145 1.89858217 0 0 Z " fill="#D0322C" transform="translate(227,140)"/>
<path d="M0 0 C0.66 0 1.32 0 2 0 C1.6339326 3.14817962 1.32590097 5.49535002 -0.41015625 8.18359375 C-2.45401104 11.80428 -3.24287446 15.33839354 -4.125 19.375 C-4.29386719 20.10460937 -4.46273437 20.83421875 -4.63671875 21.5859375 C-5.64683406 26.03998925 -6.41444543 30.47091462 -7 35 C-7.33 35 -7.66 35 -8 35 C-8.48249412 22.40154238 -5.65954186 11.31908371 0 0 Z " fill="#610F4E" transform="translate(78,132)"/>
<path d="M0 0 C1.64528614 3.12752591 2.91702499 6.3053057 4.125 9.625 C4.47820312 10.58664063 4.83140625 11.54828125 5.1953125 12.5390625 C6 15 6 15 6 17 C0.67302761 15.54718935 -2.36402802 11.91888622 -6 8 C-4.68 7.67 -3.36 7.34 -2 7 C-1.34 4.69 -0.68 2.38 0 0 Z " fill="#96588A" transform="translate(78,197)"/>
<path d="M0 0 C0.33 0 0.66 0 1 0 C1.0093457 0.5576001 1.01869141 1.1152002 1.02832031 1.68969727 C1.28117158 13.75590866 2.30718587 24.48956805 6 36 C6.68101971 38.32946929 7.34066997 40.66425685 8 43 C5.5346123 40.78115107 4.20433002 38.71774441 2.875 35.6875 C2.37613281 34.57955078 2.37613281 34.57955078 1.8671875 33.44921875 C0.17951656 28.68268865 -0.12355195 23.96907814 -0.09765625 18.9453125 C-0.09443359 17.83671875 -0.09121094 16.728125 -0.08789062 15.5859375 C-0.07951172 14.44382813 -0.07113281 13.30171875 -0.0625 12.125 C-0.05798828 10.9596875 -0.05347656 9.794375 -0.04882812 8.59375 C-0.03708781 5.72911355 -0.0206657 2.86458367 0 0 Z " fill="#F2B43B" transform="translate(83,166)"/>
<path d="M0 0 C1.98 0 3.96 0 6 0 C6 0.66 6 1.32 6 2 C17.55 2 29.1 2 41 2 C41 2.66 41 3.32 41 4 C36.28606679 4.04970487 31.5722886 4.085863 26.8581543 4.10986328 C25.25689026 4.11987623 23.65564429 4.1334906 22.05444336 4.15087891 C19.74328124 4.17533565 17.43236238 4.18653029 15.12109375 4.1953125 C14.0597245 4.21079636 14.0597245 4.21079636 12.97691345 4.22659302 C8.24165735 4.22764468 4.44683503 3.46788729 0 2 C0 1.34 0 0.68 0 0 Z " fill="#F4DDAF" transform="translate(137,188)"/>
<path d="M0 0 C0.33 0 0.66 0 1 0 C0.98839844 1.14339844 0.97679687 2.28679687 0.96484375 3.46484375 C0.95546712 4.95572754 0.94636679 6.44661309 0.9375 7.9375 C0.92912109 8.69224609 0.92074219 9.44699219 0.91210938 10.22460938 C0.90347559 12.14994313 0.94775667 14.07535581 1 16 C1.33 16.33 1.66 16.66 2 17 C1.52545762 24.23677131 -0.11956776 31.01046883 -2 38 C-2.33 38 -2.66 38 -3 38 C-2.94013916 37.37053467 -2.88027832 36.74106934 -2.81860352 36.0925293 C-2.09593019 28.33900703 -1.50271088 20.57891616 -0.9375 12.8125 C-0.84662109 11.57435547 -0.75574219 10.33621094 -0.66210938 9.06054688 C-0.44055609 6.04042577 -0.21986942 3.02024408 0 0 Z " fill="#DC2D2A" transform="translate(189,136)"/>
<path d="M0 0 C2.36216904 3.69658734 2.34403649 7.35860687 2.4140625 11.609375 C2.43342865 12.33618469 2.4527948 13.06299438 2.4727478 13.81182861 C2.53234271 16.12443448 2.57884758 18.43709067 2.625 20.75 C2.66319836 22.32163582 2.70225117 23.89325113 2.7421875 25.46484375 C2.83802743 29.30972842 2.92213195 33.15471107 3 37 C2.01 37.495 2.01 37.495 1 38 C0.835 39.155 0.67 40.31 0.5 41.5 C0.335 42.655 0.17 43.81 0 45 C-0.99 45.495 -0.99 45.495 -2 46 C-1.85636473 44.62476865 -1.70996483 43.24982598 -1.5625 41.875 C-1.48128906 41.10929687 -1.40007812 40.34359375 -1.31640625 39.5546875 C-1.09847652 37.79510673 -0.817793 36.04254727 -0.48632812 34.30078125 C0.0448018 30.69592352 0.11271137 27.2761506 0.09765625 23.6328125 C0.0962413 22.95322479 0.09482635 22.27363708 0.09336853 21.57345581 C0.08781518 19.42392388 0.07527169 17.27449992 0.0625 15.125 C0.05747896 13.65885568 0.05291711 12.19270971 0.04882812 10.7265625 C0.03786111 7.15100717 0.02062919 3.57551414 0 0 Z " fill="#F8C3BF" transform="translate(184,124)"/>
<path d="M0 0 C0.99 0.66 1.98 1.32 3 2 C0.64639882 3.41761307 -1.70786228 4.8341104 -4.0625 6.25 C-4.71927734 6.64574219 -5.37605469 7.04148437 -6.05273438 7.44921875 C-10.33704804 10.02402795 -14.6517354 12.53466402 -19 15 C-19 14.01 -19 13.02 -19 12 C-18.34 12 -17.68 12 -17 12 C-17 11.34 -17 10.68 -17 10 C-16.01 10 -15.02 10 -14 10 C-14 9.34 -14 8.68 -14 8 C-11.04518508 5.25624329 -10.22528092 5 -6 5 C-5.67 4.34 -5.34 3.68 -5 3 C-4.34 3.33 -3.68 3.66 -3 4 C-2.67 3.01 -2.34 2.02 -2 1 C-1.34 0.67 -0.68 0.34 0 0 Z " fill="#8A5180" transform="translate(124,94)"/>
<path d="M0 0 C0.66 0.33 1.32 0.66 2 1 C1.1875 3.4375 1.1875 3.4375 0 6 C-0.99 6.33 -1.98 6.66 -3 7 C-4.70855022 10.00007271 -4.70855022 10.00007271 -6 13 C-6.66 13 -7.32 13 -8 13 C-8 13.66 -8 14.32 -8 15 C-9.98 15.99 -11.96 16.98 -14 18 C-12.47085621 14.59489631 -10.46665321 11.89834812 -8.125 9 C-7.44695312 8.154375 -6.76890625 7.30875 -6.0703125 6.4375 C-4.14355212 4.16901231 -2.13679359 2.06971935 0 0 Z " fill="#975488" transform="translate(76,71)"/>
<path d="M0 0 C0.66 0.99 1.32 1.98 2 3 C2.50144531 3.74894531 3.00289062 4.49789062 3.51953125 5.26953125 C7.81672903 13.1949699 8.55219066 23.12404648 8 32 C7.67 32 7.34 32 7 32 C3.93971746 18.29609328 3.93971746 18.29609328 3.5 13.375 C2.97513283 9.83214661 2.21653268 8.67831032 0 6 C-0.75 3.3125 -0.75 3.3125 -1 1 C-0.67 0.67 -0.34 0.34 0 0 Z " fill="#DC322D" transform="translate(181,104)"/>
<path d="M0 0 C-1.448494 4.4846029 -3.76388371 7.30143017 -6.9375 10.75 C-7.81277344 11.71421875 -8.68804687 12.6784375 -9.58984375 13.671875 C-12 16 -12 16 -15 17 C-15 16.01 -15 15.02 -15 14 C-14.01 14 -13.02 14 -12 14 C-11.67 12.35 -11.34 10.7 -11 9 C-10.01 8.67 -9.02 8.34 -8 8 C-7.31513275 6.67592331 -6.65129797 5.34090759 -6 4 C-2.44444444 0 -2.44444444 0 0 0 Z " fill="#EFBF5D" transform="translate(217,192)"/>
<path d="M0 0 C2.94917726 5.89835453 3.03426742 11.6138984 1.1015625 17.94140625 C0.14032728 20.33767703 -0.87182426 22.67817403 -2 25 C-2.33 25 -2.66 25 -3 25 C-2.67 20.71 -2.34 16.42 -2 12 C-1.34 12 -0.68 12 0 12 C0 8.04 0 4.08 0 0 Z " fill="#E7827F" transform="translate(231,121)"/>
<path d="M0 0 C4.48632152 1.42268935 7.03803663 3.66247289 10.3125 7 C11.19550781 7.886875 12.07851562 8.77375 12.98828125 9.6875 C15 12 15 12 15 14 C14.01 13.67 13.02 13.34 12 13 C12 12.34 12 11.68 12 11 C10.35 11.33 8.7 11.66 7 12 C7 11.01 7 10.02 7 9 C5.45824076 7.42784464 5.45824076 7.42784464 3.5 6 C1.53125 4.5 1.53125 4.5 0 3 C0 2.01 0 1.02 0 0 Z " fill="#99120C" transform="translate(157,70)"/>
<path d="M0 0 C1 3 1 3 1 5 C2.32 5.33 3.64 5.66 5 6 C5.12375 7.175625 5.12375 7.175625 5.25 8.375 C5.4975 9.24125 5.745 10.1075 6 11 C6.66 11.33 7.32 11.66 8 12 C10 13 10 13 10.875 15.5 C10.91625 16.325 10.9575 17.15 11 18 C10.34 18.66 9.68 19.32 9 20 C8.55269531 19.19175781 8.10539063 18.38351563 7.64453125 17.55078125 C4.51612521 12.02104008 1.70033306 7.27303005 -3 3 C-3 2.34 -3 1.68 -3 1 C-2.01 0.67 -1.02 0.34 0 0 Z " fill="#DE6E6D" transform="translate(167,81)"/>
<path d="M0 0 C0.99 0.33 1.98 0.66 3 1 C-13.31808279 15 -13.31808279 15 -19 15 C-19 13 -19 13 -17.9375 11.5 C-16 10 -16 10 -12.5 9.0625 C-8.69088824 7.9061625 -8.10840766 7.16261149 -6 4 C-5.01 4 -4.02 4 -3 4 C-2.67 3.01 -2.34 2.02 -2 1 C-1.34 0.67 -0.68 0.34 0 0 Z " fill="#F2CE8C" transform="translate(199,209)"/>
<path d="M0 0 C2.64 0 5.28 0 8 0 C4.12610208 2.08361089 0.04596489 3.57924093 -4.0625 5.125 C-4.78244141 5.40214844 -5.50238281 5.67929688 -6.24414062 5.96484375 C-9.29191856 7.11377397 -11.71528028 8 -15 8 C-14.67 7.01 -14.34 6.02 -14 5 C-13.01 5 -12.02 5 -11 5 C-10.67 4.01 -10.34 3.02 -10 2 C-6.7 2 -3.4 2 0 2 C0 1.34 0 0.68 0 0 Z " fill="#A77699" transform="translate(142,87)"/>
<path d="M0 0 C1.60577252 4.01443129 0.36580696 7.04634827 -1 11 C-3.21934164 14.32901247 -4.34683329 14.75023244 -8 16 C-7.44271087 12.65626525 -6.64826111 9.96687001 -5 7 C-4.34 7 -3.68 7 -3 7 C-3 6.34 -3 5.68 -3 5 C-2.34 5 -1.68 5 -1 5 C-0.67 3.35 -0.34 1.7 0 0 Z " fill="#EDB846" transform="translate(221,178)"/>
<path d="M0 0 C3.8466088 3.8466088 3.05641991 9.21908174 3.0625 14.375 C3.04653244 16.25004775 3.02730462 18.12508307 3 20 C2.34 20 1.68 20 1 20 C0.34 21.32 -0.32 22.64 -1 24 C-2 21 -2 21 -1.0703125 18.83203125 C0.33876015 15.10364558 0.21612244 11.60926975 0.125 7.6875 C0.11597656 6.94693359 0.10695312 6.20636719 0.09765625 5.44335938 C0.07424213 3.62876533 0.03837615 1.81433929 0 0 Z " fill="#D82B27" transform="translate(226,120)"/>
<path d="M0 0 C0 0.33 0 0.66 0 1 C-3.49873754 1.50910422 -6.99915601 2.005606 -10.5 2.5 C-11.97339844 2.71462891 -11.97339844 2.71462891 -13.4765625 2.93359375 C-19.04789162 3.71357983 -24.37493985 4.160716 -30 4 C-21.77526605 -1.48315597 -9.5063426 -0.25654298 0 0 Z " fill="#EE9E9E" transform="translate(146,46)"/>
<path d="M0 0 C0.83700439 0.20568604 0.83700439 0.20568604 1.69091797 0.41552734 C9.16302599 2.09521031 16.48663967 2.42872522 24.125 2.625 C25.98898438 2.68300781 25.98898438 2.68300781 27.890625 2.7421875 C30.92694319 2.83561268 33.9632685 2.92138119 37 3 C37 3.33 37 3.66 37 4 C32.49764405 4.02472359 27.99532764 4.04287119 23.49291992 4.05493164 C21.9613374 4.0599596 20.42975967 4.06678284 18.89819336 4.07543945 C16.69643978 4.08757229 14.49474967 4.09324367 12.29296875 4.09765625 C11.60849167 4.10281754 10.92401459 4.10797882 10.21879578 4.11329651 C7.19093758 4.1136536 4.89849858 3.96616619 2 3 C2 2.34 2 1.68 2 1 C1.34 0.67 0.68 0.34 0 0 Z " fill="#EAB344" transform="translate(118,228)"/>
<path d="M0 0 C2 1 2 1 3.625 4.5 C6.53603542 10.60876373 11.25919007 15.25919007 16 20 C12.3003071 19.2885206 9.19918912 17.99060657 6 16 C5.3125 13.5 5.3125 13.5 5 11 C4.02149805 9.97895449 3.02019573 8.9793879 2 8 C0.60359014 5.06018976 0 3.27763744 0 0 Z " fill="#E3A723" transform="translate(90,204)"/>
<path d="M0 0 C0 0.66 0 1.32 0 2 C-0.99 2 -1.98 2 -3 2 C-3 2.66 -3 3.32 -3 4 C-3.66 4 -4.32 4 -5 4 C-5 4.99 -5 5.98 -5 7 C-5.53625 7.12375 -6.0725 7.2475 -6.625 7.375 C-9.4638286 8.12206016 -12.22223202 9.05303364 -15 10 C-14.07038578 8.84775972 -13.1309875 7.70340824 -12.1875 6.5625 C-11.40439453 5.60537109 -11.40439453 5.60537109 -10.60546875 4.62890625 C-9 3 -9 3 -6 2 C-6 1.34 -6 0.68 -6 0 C-3.50907189 -1.24546405 -2.58919267 -0.7767578 0 0 Z " fill="#5B1248" transform="translate(110,102)"/>
<path d="M0 0 C0.99 0.66 1.98 1.32 3 2 C2.13375 2.680625 1.2675 3.36125 0.375 4.0625 C-3.1895533 7.01598702 -6.08784755 10.41660673 -9 14 C-9.33 12.68 -9.66 11.36 -10 10 C-9.01 9.34 -8.02 8.68 -7 8 C-7.33 7.34 -7.66 6.68 -8 6 C-7.01 6 -6.02 6 -5 6 C-4.9175 5.38125 -4.835 4.7625 -4.75 4.125 C-4 2 -4 2 -1.9375 0.75 C-1.298125 0.5025 -0.65875 0.255 0 0 Z " fill="#905582" transform="translate(102,108)"/>
<path d="M0 0 C4.72577574 2.81296175 9.24840796 6.11779778 12 11 C11.66015625 13.21875 11.66015625 13.21875 11 15 C9.68 14.34 8.36 13.68 7 13 C7 11.35 7 9.7 7 8 C5.35 8 3.7 8 2 8 C1.34 5.36 0.68 2.72 0 0 Z " fill="#EB7B78" transform="translate(203,72)"/>
<path d="M0 0 C1.98 0.99 3.96 1.98 6 3 C6 3.66 6 4.32 6 5 C7.08861328 5.39832031 7.08861328 5.39832031 8.19921875 5.8046875 C11.00170928 7.00072948 13.30479352 8.40329107 15.8125 10.125 C16.60269531 10.66382813 17.39289063 11.20265625 18.20703125 11.7578125 C18.79871094 12.16773438 19.39039062 12.57765625 20 13 C19.01 13.33 18.02 13.66 17 14 C10.92307692 10.96153846 10.92307692 10.96153846 8.5 8.4375 C6.07413437 6.11271211 3.10541862 5.23044889 0 4 C0 2.68 0 1.36 0 0 Z " fill="#F3D29F" transform="translate(97,166)"/>
<path d="M0 0 C0.33 0 0.66 0 1 0 C1 1.65 1 3.3 1 5 C2.98 5.495 2.98 5.495 5 6 C5 6.99 5 7.98 5 9 C5.33 9.33 5.66 9.66 6 10 C5.91036938 11.69141656 5.75422324 13.37959602 5.5625 15.0625 C5.46066406 15.98160156 5.35882813 16.90070313 5.25390625 17.84765625 C5.12822266 18.91306641 5.12822266 18.91306641 5 20 C1.18964906 14.28447359 -0.55570361 6.8536779 0 0 Z " fill="#8C4C7D" transform="translate(48,154)"/>
<path d="M0 0 C0.33 0.99 0.66 1.98 1 3 C-2.49359465 6.59634744 -6.11098131 9.83451967 -10 13 C-10.33 12.01 -10.66 11.02 -11 10 C-10.01 10 -9.02 10 -8 10 C-8 9.34 -8 8.68 -8 8 C-7.34 8 -6.68 8 -6 8 C-6.0825 7.236875 -6.165 6.47375 -6.25 5.6875 C-6 3 -6 3 -4.125 1.1875 C-2 0 -2 0 0 0 Z " fill="#D14543" transform="translate(217,158)"/>
<path d="M0 0 C2.6875 -0.3125 2.6875 -0.3125 6 0 C8.875 2.375 8.875 2.375 11 5 C11 5.66 11 6.32 11 7 C11.99 7.33 12.98 7.66 14 8 C13.67 8.99 13.34 9.98 13 11 C10.96166576 9.7260411 8.96147874 8.38938077 7 7 C7 6.34 7 5.68 7 5 C4.525 4.01 4.525 4.01 2 3 C2 2.34 2 1.68 2 1 C1.34 0.67 0.68 0.34 0 0 Z " fill="#DB6563" transform="translate(151,71)"/>
<path d="M0 0 C4.08963819 2.28538605 7.46362104 4.95706926 11 8 C10.34 8.66 9.68 9.32 9 10 C8.4225 9.649375 7.845 9.29875 7.25 8.9375 C4.64198224 7.85082593 3.60582371 8.06934867 1 9 C0.67 7.68 0.34 6.36 0 5 C0.66 5 1.32 5 2 5 C2 4.01 2 3.02 2 2 C1.34 2 0.68 2 0 2 C0 1.34 0 0.68 0 0 Z " fill="#F06B66" transform="translate(192,63)"/>
<path d="M0 0 C2.375 0.625 2.375 0.625 5 2 C6.375 5 6.375 5 7 8 C6.67 8.66 6.34 9.32 6 10 C6.99 10 7.98 10 9 10 C9.33 11.98 9.66 13.96 10 16 C5.46321158 11.98170169 2.54222705 7.5063556 0 2 C0 1.34 0 0.68 0 0 Z " fill="#985E8A" transform="translate(56,181)"/>
<path d="M0 0 C2 3 2 3 1.75 6.4375 C1.13121575 9.3767252 0.52580857 11.45698571 -1 14 C-1.99 13.34 -2.98 12.68 -4 12 C-3.33501617 7.61110675 -1.81242323 4.0188515 0 0 Z " fill="#833E73" transform="translate(79,135)"/>
<path d="M0 0 C1.90318884 2.85478326 2.4619099 4.41941308 3.125 7.6875 C3.29257812 8.49574219 3.46015625 9.30398437 3.6328125 10.13671875 C3.75398438 10.75160156 3.87515625 11.36648437 4 12 C3.34 12 2.68 12 2 12 C1.67 12.99 1.34 13.98 1 15 C-1.32086397 9.675665 -0.91457003 5.56157448 0 0 Z " fill="#7B3770" transform="translate(54,166)"/>
<path d="M0 0 C0.33 0.99 0.66 1.98 1 3 C1.66 3 2.32 3 3 3 C3.144375 4.134375 3.28875 5.26875 3.4375 6.4375 C3.61171478 9.80777201 3.61171478 9.80777201 5 11 C5.23481693 13.18292774 5.41363323 15.37203174 5.5625 17.5625 C5.64628906 18.76003906 5.73007813 19.95757812 5.81640625 21.19140625 C5.87699219 22.11824219 5.93757812 23.04507813 6 24 C5.67 24 5.34 24 5 24 C4.73445312 22.84242187 4.46890625 21.68484375 4.1953125 20.4921875 C3.83869236 18.95309007 3.48191309 17.41402952 3.125 15.875 C2.95097656 15.11445312 2.77695313 14.35390625 2.59765625 13.5703125 C1.60201572 9.29274576 0.47028611 5.14594191 -1 1 C-0.67 0.67 -0.34 0.34 0 0 Z " fill="#EB9593" transform="translate(178,100)"/>
<path d="M0 0 C0.99 0.495 0.99 0.495 2 1 C2.33 1.99 2.66 2.98 3 4 C3.66 4.33 4.32 4.66 5 5 C4.96744792 7.01822917 4.93489583 9.03645833 4.90234375 11.0546875 C4.87350758 13.08185404 4.87350758 13.08185404 6 15 C6.04022391 17.3329866 6.04320247 19.66706666 6 22 C4.51336017 19.24454302 3.5849771 16.72989312 2.9296875 13.671875 C2.66865234 12.47304687 2.66865234 12.47304687 2.40234375 11.25 C2.22832031 10.425 2.05429688 9.6 1.875 8.75 C1.69324219 7.90953125 1.51148438 7.0690625 1.32421875 6.203125 C0.87800459 4.13644889 0.43835555 2.06835723 0 0 Z " fill="#E53C3A" transform="translate(185,104)"/>
<path d="M0 0 C0 0.66 0 1.32 0 2 C-0.99 2.495 -0.99 2.495 -2 3 C-1.67 3.66 -1.34 4.32 -1 5 C-1.99 5.33 -2.98 5.66 -4 6 C-5.20882096 8.00016466 -5.20882096 8.00016466 -6 10 C-6.99 10 -7.98 10 -9 10 C-8 8 -7 6 -6 4 C-6.33 3.01 -6.66 2.02 -7 1 C-3.375 -1.125 -3.375 -1.125 0 0 Z " fill="#661753" transform="translate(97,112)"/>
<path d="M0 0 C0.33 0.66 0.66 1.32 1 2 C0.0390625 3.98828125 0.0390625 3.98828125 -1.375 6.3125 C-3.35068316 9.56299549 -4.42598692 12.22886755 -5 16 C-5.33 15.34 -5.66 14.68 -6 14 C-6.66 13.67 -7.32 13.34 -8 13 C-6.40956621 7.91061189 -3.2553049 4.12543357 0 0 Z " fill="#B11E1B" transform="translate(223,144)"/>
<path d="M0 0 C0.33 0 0.66 0 1 0 C2.29243536 4.1196377 3.26252625 7.66831683 3 12 C-1.875 7.375 -1.875 7.375 -3 4 C-1.625 1.8125 -1.625 1.8125 0 0 Z " fill="#6C1B59" transform="translate(71,186)"/>
<path d="M0 0 C0.66 0 1.32 0 2 0 C4.26682951 3.40024427 4.87746931 6.08260764 5.75 10.0625 C6.03359375 11.31160156 6.3171875 12.56070313 6.609375 13.84765625 C6.73828125 14.88792969 6.8671875 15.92820312 7 17 C6.34 17.66 5.68 18.32 5 19 C4.80664062 18.18015625 4.61328125 17.3603125 4.4140625 16.515625 C4.15367187 15.43796875 3.89328125 14.3603125 3.625 13.25 C3.36976563 12.18265625 3.11453125 11.1153125 2.8515625 10.015625 C2.12199766 7.07204412 2.12199766 7.07204412 0.8984375 4.796875 C0 3 0 3 0 0 Z " fill="#E3322C" transform="translate(220,103)"/>
<path d="M0 0 C2.125 0.375 2.125 0.375 4 1 C4 3 4 3 2.3203125 4.7265625 C1.59585938 5.35304688 0.87140625 5.97953125 0.125 6.625 C-0.59429687 7.25664063 -1.31359375 7.88828125 -2.0546875 8.5390625 C-4 10 -4 10 -6 10 C-5.67 9.01 -5.34 8.02 -5 7 C-4.34 7 -3.68 7 -3 7 C-2.87625 6.21625 -2.7525 5.4325 -2.625 4.625 C-2 2 -2 2 0 0 Z " fill="#6E1B60" transform="translate(100,101)"/>
<path d="M0 0 C2.86054142 2.69708191 5.47543296 5.44373499 7.875 8.5625 C8.30554688 9.12066406 8.73609375 9.67882812 9.1796875 10.25390625 C10.24857916 12.52911849 9.82144584 13.68271143 9 16 C8.5978125 15.1028125 8.5978125 15.1028125 8.1875 14.1875 C7.11763032 11.96966765 7.11763032 11.96966765 5.4375 10.4375 C4 9 4 9 3 6 C2.01 5.67 1.02 5.34 0 5 C-0.33 4.01 -0.66 3.02 -1 2 C-0.67 1.34 -0.34 0.68 0 0 Z " fill="#CA2A27" transform="translate(168,81)"/>
<path d="M0 0 C1.875 3.0625 1.875 3.0625 3 6 C-0.72433382 4.7874262 -4.37802806 3.49140021 -8 2 C-8 1.34 -8 0.68 -8 0 C-4.97172501 -1.51413749 -3.18944514 -0.97636076 0 0 Z " fill="#F94643" transform="translate(182,58)"/>
<path d="M0 0 C0.99 0 1.98 0 3 0 C2.44687265 4.02992782 1.8441938 8.02022924 1 12 C0.67 12 0.34 12 0 12 C0 10.02 0 8.04 0 6 C-1.32 6.33 -2.64 6.66 -4 7 C-2.68 4.69 -1.36 2.38 0 0 Z " fill="#F1DAB3" transform="translate(230,152)"/>
<path d="M0 0 C-0.60328125 0.26554687 -1.2065625 0.53109375 -1.828125 0.8046875 C-2.62734375 1.15789062 -3.4265625 1.51109375 -4.25 1.875 C-5.03890625 2.22304687 -5.8278125 2.57109375 -6.640625 2.9296875 C-8.98689153 3.94545764 -8.98689153 3.94545764 -11.046875 5.1953125 C-13.44518424 6.18341591 -14.60053594 5.85695145 -17 5 C-15.41925436 4.18247697 -13.83528777 3.37118003 -12.25 2.5625 C-11.36828125 2.11003906 -10.4865625 1.65757813 -9.578125 1.19140625 C-5.78457923 -0.56167172 -4.03309764 -1.34436588 0 0 Z " fill="#390330" transform="translate(139,87)"/>
<path d="M0 0 C0 0.66 0 1.32 0 2 C-3.72543945 4.70941051 -7.496564 6.0993128 -12 7 C-14.21484375 6.04296875 -14.21484375 6.04296875 -16 5 C-13.70967689 4.16280617 -11.41789043 3.3301071 -9.125 2.5 C-8.47402344 2.26152344 -7.82304687 2.02304688 -7.15234375 1.77734375 C-2.2265625 0 -2.2265625 0 0 0 Z " fill="#F2CE96" transform="translate(194,184)"/>
<path d="M0 0 C-2.475 1.485 -2.475 1.485 -5 3 C-4.34 3.66 -3.68 4.32 -3 5 C-5.875 5.125 -5.875 5.125 -9 5 C-9.66 4.34 -10.32 3.68 -11 3 C-7.6562111 -0.84535724 -4.83651161 -1.55459302 0 0 Z " fill="#E7A0A1" transform="translate(116,51)"/>
<path d="M0 0 C1.12758089 3.38274266 0.81750262 4.76778223 0.0625 8.1875 C-0.13214844 9.08855469 -0.32679688 9.98960937 -0.52734375 10.91796875 C-0.68332031 11.60503906 -0.83929688 12.29210937 -1 13 C-3.42522207 10.57477793 -3.29629254 9.8279321 -3.3125 6.5 C-3.32925781 5.7059375 -3.34601563 4.911875 -3.36328125 4.09375 C-3.18345703 3.05734375 -3.18345703 3.05734375 -3 2 C-2.01 1.34 -1.02 0.68 0 0 Z " fill="#E63D39" transform="translate(187,160)"/>
<path d="M0 0 C7.48291572 6.15034169 7.48291572 6.15034169 10 10 C5.62683198 8.80731781 2.79306775 7.65247321 0 4 C0 2.68 0 1.36 0 0 Z " fill="#F1D09B" transform="translate(87,156)"/>
<path d="M0 0 C0.99 0.33 1.98 0.66 3 1 C0.69 4.63 -1.62 8.26 -4 12 C-5 8 -5 8 -3.6875 5.4375 C-3.130625 4.633125 -2.57375 3.82875 -2 3 C-1.34 2.01 -0.68 1.02 0 0 Z " fill="#9A608D" transform="translate(89,121)"/>
<path d="M0 0 C2.97 0.495 2.97 0.495 6 1 C6.33 1.99 6.66 2.98 7 4 C7.66 4.33 8.32 4.66 9 5 C8.67 5.66 8.34 6.32 8 7 C7.34 7 6.68 7 6 7 C6 6.34 6 5.68 6 5 C5.195625 4.731875 4.39125 4.46375 3.5625 4.1875 C2.716875 3.795625 1.87125 3.40375 1 3 C0.67 2.01 0.34 1.02 0 0 Z " fill="#FCC46D" transform="translate(111,179)"/>
<path d="M0 0 C0.66 0.33 1.32 0.66 2 1 C2.125 3.875 2.125 3.875 2 7 C1.34 7.66 0.68 8.32 0 9 C-0.16677282 12.58343976 -0.16677282 12.58343976 0 16 C-2.36360267 12.45459599 -2.32141146 11.17834902 -2 7 C-1.44430166 4.61432955 -0.74783612 2.33698788 0 0 Z " fill="#6C1A5B" transform="translate(74,147)"/>
<path d="M0 0 C-3.12488567 2.52394612 -6.31314387 4.39701907 -10 6 C-10.66 5.67 -11.32 5.34 -12 5 C-9.56521739 1.22608696 -9.56521739 1.22608696 -7.125 0.25 C-4.73068929 -0.03168361 -2.40866079 -0.06690724 0 0 Z " fill="#DF7671" transform="translate(197,177)"/>
<path d="M0 0 C0.33 0 0.66 0 1 0 C1.33 2.31 1.66 4.62 2 7 C1.01 7.495 1.01 7.495 0 8 C-0.165 9.155 -0.33 10.31 -0.5 11.5 C-0.665 12.655 -0.83 13.81 -1 15 C-1.99 15.495 -1.99 15.495 -3 16 C-2.52013969 10.43109483 -1.70084819 5.32932432 0 0 Z " fill="#E99795" transform="translate(185,154)"/>
<path d="M0 0 C0.99 0.66 1.98 1.32 3 2 C-0.63 3.98 -4.26 5.96 -8 8 C-8 7.34 -8 6.68 -8 6 C-8.66 5.67 -9.32 5.34 -10 5 C-8.68 5 -7.36 5 -6 5 C-5.67 4.34 -5.34 3.68 -5 3 C-4.34 3.33 -3.68 3.66 -3 4 C-2.67 3.01 -2.34 2.02 -2 1 C-1.34 0.67 -0.68 0.34 0 0 Z " fill="#9A638D" transform="translate(124,94)"/>
<path d="M0 0 C2.31 0.33 4.62 0.66 7 1 C6 3 6 3 4 5 C1.24627091 5.36933645 -1.20365661 5.18336678 -4 5 C-3.34 4.360625 -2.68 3.72125 -2 3.0625 C0.11602431 1.35917681 0.11602431 1.35917681 0 0 Z " fill="#61134E" transform="translate(146,82)"/>
<path d="M0 0 C5.21979128 -0.1799928 9.07262981 0.02905192 14 2 C13.67 2.66 13.34 3.32 13 4 C11.20676747 3.71812064 9.41542874 3.4241719 7.625 3.125 C6.62726563 2.96257813 5.62953125 2.80015625 4.6015625 2.6328125 C2 2 2 2 0 0 Z " fill="#DA7573" transform="translate(113,55)"/>
<path d="M0 0 C1.62490954 -0.02698189 3.24994633 -0.04638757 4.875 -0.0625 C5.77992187 -0.07410156 6.68484375 -0.08570313 7.6171875 -0.09765625 C10 0 10 0 12 1 C12 1.66 12 2.32 12 3 C12.99 3.33 13.98 3.66 15 4 C9.86496656 3.35812082 5.0056546 2.31727753 0 1 C0 0.67 0 0.34 0 0 Z " fill="#F0CE8A" transform="translate(108,228)"/>
<path d="M0 0 C0.33 0 0.66 0 1 0 C1.19491452 1.45736087 1.38069358 2.91594593 1.5625 4.375 C1.66691406 5.18710938 1.77132812 5.99921875 1.87890625 6.8359375 C2 9 2 9 1 11 C1.99 11.33 2.98 11.66 4 12 C3 13 3 13 -0.0625 13.0625 C-1.031875 13.041875 -2.00125 13.02125 -3 13 C-2.34 12.67 -1.68 12.34 -1 12 C-0.53101037 9.1840151 -0.53101037 9.1840151 -0.375 5.9375 C-0.30023438 4.83277344 -0.22546875 3.72804687 -0.1484375 2.58984375 C-0.09945312 1.73519531 -0.05046875 0.88054687 0 0 Z " fill="#DA4C4B" transform="translate(182,170)"/>
<path d="M0 0 C0.66 0 1.32 0 2 0 C1.74279326 1.58560393 1.46861201 3.16845924 1.1875 4.75 C1.03667969 5.63171875 0.88585937 6.5134375 0.73046875 7.421875 C-0.05414248 10.1910911 -1.14595359 11.8259401 -3 14 C-3.25 8.375 -3.25 8.375 -1 5 C-0.61500109 3.34450469 -0.27206865 1.6777567 0 0 Z " fill="#EED190" transform="translate(228,164)"/>
<path d="M0 0 C0.66 0.33 1.32 0.66 2 1 C1.4375 3.3125 1.4375 3.3125 0 6 C-2.27962623 7.34776978 -4.48087772 8.11364216 -7 9 C-5.44499019 5.18315774 -2.96404505 2.80804268 0 0 Z " fill="#AA73A1" transform="translate(76,71)"/>
<path d="M0 0 C-0.33 0.99 -0.66 1.98 -1 3 C-4.96 3 -8.92 3 -13 3 C-8.54370064 0.02913376 -5.32064558 -0.12092376 0 0 Z " fill="#F94841" transform="translate(130,49)"/>
<path d="M0 0 C0.99 0 1.98 0 3 0 C7 4.34285714 7 4.34285714 7 7 C3.08597051 5.73058503 1.20927127 4.48832306 -1 1 C-0.67 0.67 -0.34 0.34 0 0 Z " fill="#9D7293" transform="translate(77,207)"/>
<path d="M0 0 C0.66 0 1.32 0 2 0 C0.84414715 3.91211733 -0.35534962 6.8745041 -3 10 C-3.75 7.8125 -3.75 7.8125 -4 5 C-2.1875 2.1875 -2.1875 2.1875 0 0 Z " fill="#F6B851" transform="translate(220,171)"/>
<path d="M0 0 C2.64 0 5.28 0 8 0 C8.2475 0.639375 8.495 1.27875 8.75 1.9375 C9.81562433 4.18741541 9.81562433 4.18741541 12.125 4.75 C12.74375 4.8325 13.3625 4.915 14 5 C13.01 5.495 13.01 5.495 12 6 C10.1953125 5.29296875 10.1953125 5.29296875 8.125 4.1875 C7.10792969 3.65189453 7.10792969 3.65189453 6.0703125 3.10546875 C5.38710937 2.74066406 4.70390625 2.37585937 4 2 C2.66851465 1.32965011 1.33572063 0.66187054 0 0 Z " fill="#DF7C7C" transform="translate(131,61)"/>
<path d="M0 0 C2.60018816 3.90028225 2.15085514 7.47434569 2 12 C1.67 11.01 1.34 10.02 1 9 C0.34 9 -0.32 9 -1 9 C-1.125 2.25 -1.125 2.25 0 0 Z " fill="#925385" transform="translate(74,178)"/>
<path d="M0 0 C0 0.66 0 1.32 0 2 C-0.639375 2.28875 -1.27875 2.5775 -1.9375 2.875 C-4.15206079 3.82823451 -4.15206079 3.82823451 -5 6 C-7.32156597 6.40729228 -9.6568787 6.74438677 -12 7 C-9.20232475 3.70861735 -4.40323273 0 0 0 Z " fill="#F5D6AA" transform="translate(206,177)"/>
<path d="M0 0 C0.66 0.99 1.32 1.98 2 3 C1.67 3.66 1.34 4.32 1 5 C1.66 5 2.32 5 3 5 C3 5.66 3 6.32 3 7 C3.99 7 4.98 7 6 7 C5.67 7.99 5.34 8.98 5 10 C2.36 8.35 -0.28 6.7 -3 5 C-2.01 3.35 -1.02 1.7 0 0 Z " fill="#DF3935" transform="translate(150,58)"/>
<path d="M0 0 C0.268125 0.639375 0.53625 1.27875 0.8125 1.9375 C1.88667752 4.33131686 1.88667752 4.33131686 5 5 C5 6.65 5 8.3 5 10 C4.34 10 3.68 10 3 10 C0 3.375 0 3.375 0 0 Z " fill="#F1C270" transform="translate(91,210)"/>
<path d="M0 0 C3 1 3 1 4.0625 2.9375 C4.371875 3.618125 4.68125 4.29875 5 5 C5.66 5.66 6.32 6.32 7 7 C6.01 7.33 5.02 7.66 4 8 C2.35 6.35 0.7 4.7 -1 3 C-0.67 2.01 -0.34 1.02 0 0 Z " fill="#945C8A" transform="translate(67,196)"/>
<path d="M0 0 C0.33 0.99 0.66 1.98 1 3 C-1.24844471 6.3310292 -3.68270834 8.74898066 -7 11 C-7.66 10.67 -8.32 10.34 -9 10 C-6.03 6.7 -3.06 3.4 0 0 Z " fill="#DFA21B" transform="translate(212,192)"/>
<path d="M0 0 C3 1 3 1 4.75 3.3125 C6 6 6 6 5.6875 8.3125 C5.460625 8.869375 5.23375 9.42625 5 10 C3 6.25 3 6.25 3 4 C2.01 4 1.02 4 0 4 C0 2.68 0 1.36 0 0 Z " fill="#641652" transform="translate(62,187)"/>
<path d="M0 0 C-0.98652984 3.31832766 -1.68731503 4.76548627 -4.5 6.875 C-5.325 7.24625 -6.15 7.6175 -7 8 C-7.66 7.67 -8.32 7.34 -9 7 C-7.88121617 5.82737096 -6.75476949 4.66204862 -5.625 3.5 C-4.68527344 2.52546875 -4.68527344 2.52546875 -3.7265625 1.53125 C-2 0 -2 0 0 0 Z " fill="#4A0538" transform="translate(104,104)"/>
<path d="M0 0 C0.99 0.33 1.98 0.66 3 1 C1.29374499 3.78388975 0.52373261 4.85384206 -2.6875 5.75 C-3.8321875 5.87375 -3.8321875 5.87375 -5 6 C-3.63016497 2.83884224 -3.0109362 2.0072908 0 0 Z " fill="#480639" transform="translate(112,97)"/>
<path d="M0 0 C-0.33 0.99 -0.66 1.98 -1 3 C-1.66 3 -2.32 3 -3 3 C-3 3.66 -3 4.32 -3 5 C-5.31 5 -7.62 5 -10 5 C-3.63636364 0 -3.63636364 0 0 0 Z " fill="#E0AA34" transform="translate(183,219)"/>
<path d="M0 0 C0.99 0.33 1.98 0.66 3 1 C-0.87564767 4.61139896 -0.87564767 4.61139896 -3 6 C-5.375 5.8125 -5.375 5.8125 -7 5 C-6.360625 4.896875 -5.72125 4.79375 -5.0625 4.6875 C-4.381875 4.460625 -3.70125 4.23375 -3 4 C-2.67 3.01 -2.34 2.02 -2 1 C-1.34 0.67 -0.68 0.34 0 0 Z " fill="#EEC879" transform="translate(199,209)"/>
<path d="M0 0 C1.65 0 3.3 0 5 0 C0.375 5.875 0.375 5.875 -3 7 C-3 6.01 -3 5.02 -3 4 C-2.01 4 -1.02 4 0 4 C0 2.68 0 1.36 0 0 Z " fill="#F2D393" transform="translate(205,202)"/>
<path d="M0 0 C-2.31 1.65 -4.62 3.3 -7 5 C-7.66 4.67 -8.32 4.34 -9 4 C-9 3.01 -9 2.02 -9 1 C-5.19495213 -0.79682816 -4.29399165 -1.07349791 0 0 Z " fill="#E07372" transform="translate(206,172)"/>
<path d="M0 0 C1.32 0 2.64 0 4 0 C4 0.66 4 1.32 4 2 C2.25 3.5078125 2.25 3.5078125 0 5.125 C-0.7425 5.66382813 -1.485 6.20265625 -2.25 6.7578125 C-2.8275 7.16773438 -3.405 7.57765625 -4 8 C-4.33 7.01 -4.66 6.02 -5 5 C-4.01 5 -3.02 5 -2 5 C-2 4.34 -2 3.68 -2 3 C-1.34 3 -0.68 3 0 3 C0 2.01 0 1.02 0 0 Z " fill="#E27B77" transform="translate(211,163)"/>
<path d="M0 0 C0.33 0 0.66 0 1 0 C1 1.65 1 3.3 1 5 C2.98 5.495 2.98 5.495 5 6 C4.34 8.31 3.68 10.62 3 13 C1.32889958 10.03821227 0.67317248 7.62928808 0.375 4.25 C0.30023438 3.45078125 0.22546875 2.6515625 0.1484375 1.828125 C0.09945312 1.22484375 0.05046875 0.6215625 0 0 Z " fill="#AC77A2" transform="translate(48,154)"/>
<path d="M0 0 C0.33 0 0.66 0 1 0 C1.49230769 7.38461538 1.49230769 7.38461538 -1 10.5 C-1.66 10.995 -2.32 11.49 -3 12 C-2.40075776 7.80530429 -1.42500059 3.99000166 0 0 Z " fill="#BB201C" transform="translate(227,132)"/>
<path d="M0 0 C5.57142857 5.14285714 5.57142857 5.14285714 6 9 C5.34 9 4.68 9 4 9 C4 8.34 4 7.68 4 7 C3.01 6.67 2.02 6.34 1 6 C0.67 4.02 0.34 2.04 0 0 Z " fill="#EB8E8E" transform="translate(215,85)"/>
<path d="M0 0 C2.97 1.98 2.97 1.98 6 4 C5.67 5.32 5.34 6.64 5 8 C4.01 8 3.02 8 2 8 C1.34 5.36 0.68 2.72 0 0 Z " fill="#ED6B6A" transform="translate(203,72)"/>
<path d="M0 0 C2.3828125 -0.29296875 2.3828125 -0.29296875 5.125 -0.1875 C6.03507813 -0.16042969 6.94515625 -0.13335937 7.8828125 -0.10546875 C8.58148438 -0.07066406 9.28015625 -0.03585938 10 0 C6.96474514 2.02350324 5.80573798 2.32124018 2.3125 2.625 C1.50425781 2.69976562 0.69601563 2.77453125 -0.13671875 2.8515625 C-0.75160156 2.90054688 -1.36648437 2.94953125 -2 3 C-1.34 2.01 -0.68 1.02 0 0 Z " fill="#ECBC5F" transform="translate(170,224)"/>
<path d="M0 0 C3.34249629 0.59687434 5.46436342 1.73603877 8 4 C8 4.66 8 5.32 8 6 C4.64532525 4.82133049 2.28780716 3.76945078 0 1 C0 0.67 0 0.34 0 0 Z " fill="#F0CA81" transform="translate(96,220)"/>
<path d="M0 0 C0.99 0.33 1.98 0.66 3 1 C2.67 1.66 2.34 2.32 2 3 C1.34 3 0.68 3 0 3 C0 3.66 0 4.32 0 5 C-1.65 5.33 -3.3 5.66 -5 6 C-4.67 5.01 -4.34 4.02 -4 3 C-3.01 3 -2.02 3 -1 3 C-0.67 2.01 -0.34 1.02 0 0 Z " fill="#823E72" transform="translate(132,89)"/>
<path d="M0 0 C3 3.625 3 3.625 3 7 C2.01 7.33 1.02 7.66 0 8 C-0.66 6.02 -1.32 4.04 -2 2 C-1.34 1.34 -0.68 0.68 0 0 Z " fill="#F5433E" transform="translate(202,72)"/>
<path d="M0 0 C2 3 2 3 1.8125 5.125 C1.544375 5.74375 1.27625 6.3625 1 7 C0.01 7.33 -0.98 7.66 -2 8 C-1.125 1.125 -1.125 1.125 0 0 Z " fill="#975689" transform="translate(76,190)"/>
<path d="M0 0 C1.32 1.32 2.64 2.64 4 4 C-2.28571429 6.42857143 -2.28571429 6.42857143 -6 5 C-6 4.67 -6 4.34 -6 4 C-3.69 4 -1.38 4 1 4 C0.67 2.68 0.34 1.36 0 0 Z " fill="#A87C9C" transform="translate(155,81)"/>
<path d="M0 0 C2.86724686 0.57344937 3.8614515 0.8614515 6 3 C5.34 3 4.68 3 4 3 C4.33 4.65 4.66 6.3 5 8 C3.68 7.34 2.36 6.68 1 6 C1.33 4.35 1.66 2.7 2 1 C1.34 0.67 0.68 0.34 0 0 Z " fill="#9C4889" transform="translate(136,69)"/>
<path d="M0 0 C4.05606165 0.46800711 7.46588679 0.87953208 11 3 C7.44706507 4.14947895 6.20023331 4.0868937 2.6875 2.5625 C1.800625 2.046875 0.91375 1.53125 0 1 C0 0.67 0 0.34 0 0 Z " fill="#8F0B09" transform="translate(121,53)"/>
<path d="M0 0 C0.66 0.33 1.32 0.66 2 1 C2 2.65 2 4.3 2 6 C1.01 6 0.02 6 -1 6 C-1.33 4.68 -1.66 3.36 -2 2 C-1.34 2 -0.68 2 0 2 C0 1.34 0 0.68 0 0 Z " fill="#731F63" transform="translate(76,196)"/>
<path d="M0 0 C1.65 0 3.3 0 5 0 C3.71937515 1.7074998 2.38232443 3.37373596 1 5 C0.34 5 -0.32 5 -1 5 C-0.67 3.35 -0.34 1.7 0 0 Z " fill="#DD3B37" transform="translate(203,162)"/>
<path d="M0 0 C0 1.98 0 3.96 0 6 C-0.33 4.68 -0.66 3.36 -1 2 C-1.45375 2.495 -1.9075 2.99 -2.375 3.5 C-4 5 -4 5 -6 5 C-5.6875 3.0625 -5.6875 3.0625 -5 1 C-2 0 -2 0 0 0 Z " fill="#F2C278" transform="translate(230,158)"/>
<path d="M0 0 C0.33 0.66 0.66 1.32 1 2 C-0.98 4.31 -2.96 6.62 -5 9 C-5.66 8.34 -6.32 7.68 -7 7 C-4.69 4.69 -2.38 2.38 0 0 Z " fill="#9A110E" transform="translate(215,155)"/>
<path d="M0 0 C0.99 0.33 1.98 0.66 3 1 C3 1.66 3 2.32 3 3 C2.34 3 1.68 3 1 3 C0.34 4.32 -0.32 5.64 -1 7 C-1.33 7 -1.66 7 -2 7 C-2.125 4.625 -2.125 4.625 -2 2 C-1.34 1.34 -0.68 0.68 0 0 Z " fill="#E0726E" transform="translate(220,153)"/>
<path d="M0 0 C0.66 0 1.32 0 2 0 C0.75023244 3.65316671 0.32901247 4.78065836 -3 7 C-2.25 2.25 -2.25 2.25 0 0 Z " fill="#F2CD89" transform="translate(215,192)"/>
<path d="M0 0 C-0.33 0.99 -0.66 1.98 -1 3 C-3.64 3.33 -6.28 3.66 -9 4 C-3.7826087 0 -3.7826087 0 0 0 Z " fill="#C32F2D" transform="translate(198,174)"/>
<path d="M0 0 C0.99 0 1.98 0 3 0 C1.8141763 3.37503669 0.72426311 5.64722731 -2 8 C-2 6.68 -2 5.36 -2 4 C-1.34 4 -0.68 4 0 4 C0 2.68 0 1.36 0 0 Z " fill="#E27E79" transform="translate(225,146)"/>
<path d="M0 0 C0 0.66 0 1.32 0 2 C-2.31 2.66 -4.62 3.32 -7 4 C-7 3.01 -7 2.02 -7 1 C-3.375 -1.125 -3.375 -1.125 0 0 Z " fill="#58124D" transform="translate(97,112)"/>
<path d="M0 0 C3.36720387 1.39332574 4.9859524 2.9789286 7 6 C5.68 6.33 4.36 6.66 3 7 C3 6.01 3 5.02 3 4 C1.54166642 2.37485532 1.54166642 2.37485532 0 1 C0 0.67 0 0.34 0 0 Z " fill="#BC2A24" transform="translate(161,75)"/>
<path d="M0 0 C1.98 0.66 3.96 1.32 6 2 C5.01 2.495 5.01 2.495 4 3 C2.86649466 5.01669827 2.86649466 5.01669827 2 7 C1.22227595 4.66682784 0.57584432 2.38564077 0 0 Z " fill="#9D4E8A" transform="translate(130,66)"/>
<path d="" fill="#FFFFFF" transform="translate(0,0)"/>
<path d="" fill="#FFFFFF" transform="translate(0,0)"/>
<path d="" fill="#FFFFFF" transform="translate(0,0)"/>
<path d="" fill="#FFFFFF" transform="translate(0,0)"/>
<path d="" fill="#FFFFFF" transform="translate(0,0)"/>
<path d="" fill="#FFFFFF" transform="translate(0,0)"/>
<path d="" fill="#FFFFFF" transform="translate(0,0)"/>
<path d="" fill="#FFFFFF" transform="translate(0,0)"/>
<path d="" fill="#FFFFFF" transform="translate(0,0)"/>
<path d="" fill="#FFFFFF" transform="translate(0,0)"/>
<path d="" fill="#FFFFFF" transform="translate(0,0)"/>
<path d="" fill="#FFFFFF" transform="translate(0,0)"/>
<path d="" fill="#FFFFFF" transform="translate(0,0)"/>
<path d="" fill="#FFFFFF" transform="translate(0,0)"/>
<path d="" fill="#FFFFFF" transform="translate(0,0)"/>
<path d="" fill="#FFFFFF" transform="translate(0,0)"/>
<path d="" fill="#FFFFFF" transform="translate(0,0)"/>
<path d="" fill="#FFFFFF" transform="translate(0,0)"/>
<path d="" fill="#FFFFFF" transform="translate(0,0)"/>
<path d="" fill="#FFFFFF" transform="translate(0,0)"/>
<path d="" fill="#FFFFFF" transform="translate(0,0)"/>
<path d="" fill="#FFFFFF" transform="translate(0,0)"/>
<path d="" fill="#FFFFFF" transform="translate(0,0)"/>
<path d="" fill="#FFFFFF" transform="translate(0,0)"/>
<path d="" fill="#FFFFFF" transform="translate(0,0)"/>
<path d="" fill="#FFFFFF" transform="translate(0,0)"/>
<path d="" fill="#FFFFFF" transform="translate(0,0)"/>
<path d="" fill="#FFFFFF" transform="translate(0,0)"/>
<path d="" fill="#FFFFFF" transform="translate(0,0)"/>
<path d="" fill="#FFFFFF" transform="translate(0,0)"/>
<path d="" fill="#FFFFFF" transform="translate(0,0)"/>
<path d="" fill="#FFFFFF" transform="translate(0,0)"/>
<path d="" fill="#FFFFFF" transform="translate(0,0)"/>
<path d="" fill="#FFFFFF" transform="translate(0,0)"/>
<path d="" fill="#FFFFFF" transform="translate(0,0)"/>
<path d="" fill="#FFFFFF" transform="translate(0,0)"/>
<path d="" fill="#FFFFFF" transform="translate(0,0)"/>
<path d="" fill="#FFFFFF" transform="translate(0,0)"/>
<path d="" fill="#FFFFFF" transform="translate(0,0)"/>
<path d="" fill="#FFFFFF" transform="translate(0,0)"/>
<path d="" fill="#FFFFFF" transform="translate(0,0)"/>
<path d="" fill="#FFFFFF" transform="translate(0,0)"/>
<path d="" fill="#FFFFFF" transform="translate(0,0)"/>
<path d="" fill="#FFFFFF" transform="translate(0,0)"/>
<path d="" fill="#FFFFFF" transform="translate(0,0)"/>
<path d="" fill="#FFFFFF" transform="translate(0,0)"/>
<path d="" fill="#FFFFFF" transform="translate(0,0)"/>
<path d="" fill="#FFFFFF" transform="translate(0,0)"/>
<path d="" fill="#FFFFFF" transform="translate(0,0)"/>
<path d="" fill="#FFFFFF" transform="translate(0,0)"/>
<path d="" fill="#FFFFFF" transform="translate(0,0)"/>
<path d="" fill="#FFFFFF" transform="translate(0,0)"/>
<path d="" fill="#FF00FF" transform="translate(0,0)"/>
<path d="" fill="#FFFFFF" transform="translate(0,0)"/>
<path d="" fill="#FFFFFF" transform="translate(0,0)"/>
<path d="" fill="#FFFFFF" transform="translate(0,0)"/>
<path d="" fill="#FFFFFF" transform="translate(0,0)"/>
<path d="" fill="#FFFFFF" transform="translate(0,0)"/>
<path d="" fill="#FFFFFF" transform="translate(0,0)"/>
<path d="" fill="#FFFFFF" transform="translate(0,0)"/>
</svg>
