<?xml version="1.0" encoding="UTF-8"?>
<svg version="1.1" xmlns="http://www.w3.org/2000/svg" width="225" height="225">
<path d="M0 0 C16.40843044 13.51813811 28.86082891 33.28907598 31.37011719 54.71386719 C32.50872601 69.53103116 31.45450862 83.43673108 27.37011719 97.71386719 C28.63082031 97.67777344 29.89152344 97.64167969 31.19042969 97.60449219 C34.48547972 97.51015538 35.27956593 97.65874903 38.24511719 99.46386719 C41.59903285 103.01507201 41.59903285 103.01507201 42.37011719 105.71386719 C42.05843647 109.26702741 41.49753908 112.3316015 40.37011719 115.71386719 C41.00949219 116.43574219 41.64886719 117.15761719 42.30761719 117.90136719 C45.19949988 121.84484359 44.82999466 123.8851537 44.37011719 128.71386719 C43.37011719 131.21386719 43.37011719 131.21386719 42.37011719 132.71386719 C43.03011719 133.70386719 43.69011719 134.69386719 44.37011719 135.71386719 C44.85436963 139.34576052 44.52698991 141.37159943 42.99511719 144.71386719 C31.13820751 158.26462111 7.78033181 162.740324 -9.45019531 163.99121094 C-20.00517842 164.27617268 -29.20956919 162.37536856 -37.62988281 155.71386719 C-37.95988281 155.05386719 -38.28988281 154.39386719 -38.62988281 153.71386719 C-43.05886381 153.56466596 -47.48648454 153.45625966 -51.91723633 153.38427734 C-53.42172754 153.35424887 -54.92604578 153.31341112 -56.42993164 153.26123047 C-66.23952668 152.53342128 -66.23952668 152.53342128 -74.71972656 156.54980469 C-75.21649902 157.0932251 -75.71327148 157.63664551 -76.22509766 158.1965332 C-80.97979916 163.33217274 -88.54919111 163.38986042 -95.06738281 163.90136719 C-95.98970703 163.98322266 -96.91203125 164.06507813 -97.86230469 164.14941406 C-100.11747897 164.34805636 -102.37299624 164.53593572 -104.62988281 164.71386719 C-104.62988281 164.05386719 -104.62988281 163.39386719 -104.62988281 162.71386719 C-106.13228516 162.76220703 -106.13228516 162.76220703 -107.66503906 162.81152344 C-122.33892499 162.45009768 -141.29815249 155.60708539 -152.00488281 145.46386719 C-154.29498701 141.58830623 -153.99041354 139.1844482 -153.62988281 134.71386719 C-153.29988281 133.72386719 -152.96988281 132.73386719 -152.62988281 131.71386719 C-153.12488281 130.60011719 -153.12488281 130.60011719 -153.62988281 129.46386719 C-154.9701364 125.77816982 -154.57548369 123.49627068 -153.62988281 119.71386719 C-151.56738281 116.77636719 -151.56738281 116.77636719 -149.62988281 114.71386719 C-150.28988281 113.72386719 -150.94988281 112.73386719 -151.62988281 111.71386719 C-152.08960066 106.74891446 -151.78054124 103.65219022 -148.62988281 99.71386719 C-145.19268372 97.13596787 -141.78796438 97.66068242 -137.62988281 97.71386719 C-137.90703125 96.64910156 -138.18417969 95.58433594 -138.46972656 94.48730469 C-144.72746437 69.75748199 -143.60471938 45.31955417 -130.50488281 22.90136719 C-117.67814408 2.19370023 -97.54126097 -11.80189267 -74.03222656 -17.59472656 C-47.37238005 -23.01239916 -21.30873911 -16.81462517 0 0 Z " fill="#FED11D" transform="translate(167.6298828125,38.2861328125)"/>
<path d="M0 0 C16.40843044 13.51813811 28.86082891 33.28907598 31.37011719 54.71386719 C32.50872601 69.53103116 31.45450862 83.43673108 27.37011719 97.71386719 C28.63082031 97.67777344 29.89152344 97.64167969 31.19042969 97.60449219 C34.48547972 97.51015538 35.27956593 97.65874903 38.24511719 99.46386719 C41.59903285 103.01507201 41.59903285 103.01507201 42.37011719 105.71386719 C42.05843647 109.26702741 41.49753908 112.3316015 40.37011719 115.71386719 C41.00949219 116.43574219 41.64886719 117.15761719 42.30761719 117.90136719 C45.19949988 121.84484359 44.82999466 123.8851537 44.37011719 128.71386719 C43.37011719 131.21386719 43.37011719 131.21386719 42.37011719 132.71386719 C43.03011719 133.70386719 43.69011719 134.69386719 44.37011719 135.71386719 C44.85436963 139.34576052 44.52698991 141.37159943 42.99511719 144.71386719 C31.13820751 158.26462111 7.78033181 162.740324 -9.45019531 163.99121094 C-20.00517842 164.27617268 -29.20956919 162.37536856 -37.62988281 155.71386719 C-37.95988281 155.05386719 -38.28988281 154.39386719 -38.62988281 153.71386719 C-43.05886381 153.56466596 -47.48648454 153.45625966 -51.91723633 153.38427734 C-53.42172754 153.35424887 -54.92604578 153.31341112 -56.42993164 153.26123047 C-66.23952668 152.53342128 -66.23952668 152.53342128 -74.71972656 156.54980469 C-75.21649902 157.0932251 -75.71327148 157.63664551 -76.22509766 158.1965332 C-80.97979916 163.33217274 -88.54919111 163.38986042 -95.06738281 163.90136719 C-95.98970703 163.98322266 -96.91203125 164.06507813 -97.86230469 164.14941406 C-100.11747897 164.34805636 -102.37299624 164.53593572 -104.62988281 164.71386719 C-104.62988281 164.05386719 -104.62988281 163.39386719 -104.62988281 162.71386719 C-106.13228516 162.76220703 -106.13228516 162.76220703 -107.66503906 162.81152344 C-122.33892499 162.45009768 -141.29815249 155.60708539 -152.00488281 145.46386719 C-154.29498701 141.58830623 -153.99041354 139.1844482 -153.62988281 134.71386719 C-153.29988281 133.72386719 -152.96988281 132.73386719 -152.62988281 131.71386719 C-153.12488281 130.60011719 -153.12488281 130.60011719 -153.62988281 129.46386719 C-154.9701364 125.77816982 -154.57548369 123.49627068 -153.62988281 119.71386719 C-151.56738281 116.77636719 -151.56738281 116.77636719 -149.62988281 114.71386719 C-150.28988281 113.72386719 -150.94988281 112.73386719 -151.62988281 111.71386719 C-152.08960066 106.74891446 -151.78054124 103.65219022 -148.62988281 99.71386719 C-145.19268372 97.13596787 -141.78796438 97.66068242 -137.62988281 97.71386719 C-137.90703125 96.64910156 -138.18417969 95.58433594 -138.46972656 94.48730469 C-144.72746437 69.75748199 -143.60471938 45.31955417 -130.50488281 22.90136719 C-117.67814408 2.19370023 -97.54126097 -11.80189267 -74.03222656 -17.59472656 C-47.37238005 -23.01239916 -21.30873911 -16.81462517 0 0 Z M-115.65722656 13.32714844 C-129.9145448 30.57709189 -137.2015004 51.19188283 -135.83642578 73.55810547 C-135.3100626 79.05194338 -134.06751467 84.3912064 -132.62988281 89.71386719 C-131.63988281 89.21886719 -131.63988281 89.21886719 -130.62988281 88.71386719 C-130.62988281 88.05386719 -130.62988281 87.39386719 -130.62988281 86.71386719 C-124.53369806 86.07884794 -120.49495772 86.6645449 -115.42675781 90.20214844 C-112.74511018 92.45823025 -110.72071651 94.90430941 -108.62988281 97.71386719 C-106.28700863 95.04139085 -106.28700863 95.04139085 -105.62988281 91.71386719 C-101.89290037 90.51803281 -98.5301268 90.31039367 -94.62988281 90.71386719 C-89.2346605 93.88752737 -87.9362072 97.09880012 -85.87597656 102.83496094 C-82.13812804 111.47067993 -75.64358851 119.11041348 -69.16113281 125.81152344 C-65.89672655 129.86704857 -66.5060308 134.47075699 -66.56738281 139.46386719 C-66.57189453 140.16125 -66.57640625 140.85863281 -66.58105469 141.57714844 C-66.59278261 143.28942521 -66.61071629 145.00165752 -66.62988281 146.71386719 C-64.24549572 147.90606073 -62.7533228 147.84302741 -60.09472656 147.84667969 C-59.20333984 147.84796875 -58.31195313 147.84925781 -57.39355469 147.85058594 C-56.46091797 147.84671875 -55.52828125 147.84285156 -54.56738281 147.83886719 C-53.63087891 147.84273437 -52.694375 147.84660156 -51.72949219 147.85058594 C-50.83939453 147.84929687 -49.94929688 147.84800781 -49.03222656 147.84667969 C-47.80234009 147.84498779 -47.80234009 147.84498779 -46.54760742 147.84326172 C-44.62123514 147.92451963 -44.62123514 147.92451963 -43.62988281 146.71386719 C-43.60919363 145.0055321 -43.63887421 143.2964894 -43.69238281 141.58886719 C-43.754154 133.63067926 -42.00986239 126.18519756 -36.31738281 120.33886719 C-35.43050781 119.47261719 -34.54363281 118.60636719 -33.62988281 117.71386719 C-28.51732699 112.02000036 -25.21096594 105.35608502 -21.87695312 98.52929688 C-21.5144043 97.8090332 -21.15185547 97.08876953 -20.77832031 96.34667969 C-20.46040527 95.69586426 -20.14249023 95.04504883 -19.81494141 94.37451172 C-18.32639354 92.28858205 -17.00514546 91.62612621 -14.62988281 90.71386719 C-10.73866805 90.38959929 -7.84584722 90.38506537 -4.62988281 92.71386719 C-2.87988281 95.33886719 -2.87988281 95.33886719 -1.62988281 97.71386719 C-0.0882164 96.33901186 -0.0882164 96.33901186 1.37011719 94.71386719 C1.37011719 94.05386719 1.37011719 93.39386719 1.37011719 92.71386719 C2.03011719 92.71386719 2.69011719 92.71386719 3.37011719 92.71386719 C3.37011719 92.05386719 3.37011719 91.39386719 3.37011719 90.71386719 C4.36011719 90.38386719 5.35011719 90.05386719 6.37011719 89.71386719 C6.37011719 89.05386719 6.37011719 88.39386719 6.37011719 87.71386719 C7.95318366 87.54468451 9.53658438 87.37862783 11.12011719 87.21386719 C12.00183594 87.12105469 12.88355469 87.02824219 13.79199219 86.93261719 C16.37011719 86.71386719 16.37011719 86.71386719 20.37011719 86.71386719 C20.37011719 87.37386719 20.37011719 88.03386719 20.37011719 88.71386719 C21.36011719 88.71386719 22.35011719 88.71386719 23.37011719 88.71386719 C26.9452852 65.34759051 25.86103384 42.88470462 12.31542969 22.64355469 C10.42084611 20.23293667 8.44819207 17.96685018 6.37011719 15.71386719 C5.12009627 14.2347182 3.87009529 12.75555236 2.62011719 11.27636719 C0.40907411 8.70576128 -1.79741937 6.59641911 -4.62988281 4.71386719 C-5.28988281 4.71386719 -5.94988281 4.71386719 -6.62988281 4.71386719 C-6.62988281 4.05386719 -6.62988281 3.39386719 -6.62988281 2.71386719 C-14.7322244 -2.159366 -22.52806323 -6.52760184 -31.62988281 -9.28613281 C-32.479375 -9.58390625 -33.32886719 -9.88167969 -34.20410156 -10.18847656 C-62.77775813 -19.0336741 -95.45363147 -7.78913473 -115.65722656 13.32714844 Z " fill="#FBAE04" transform="translate(167.6298828125,38.2861328125)"/>
<path d="M0 0 C1.2065625 0.0309375 1.2065625 0.0309375 2.4375 0.0625 C2.4375 0.7225 2.4375 1.3825 2.4375 2.0625 C3.53964844 2.37574219 3.53964844 2.37574219 4.6640625 2.6953125 C8.28762119 4.48157383 9.58502402 6.58422389 11.8125 9.9375 C12.19897705 10.50815186 12.5854541 11.07880371 12.98364258 11.66674805 C14.92198391 14.57126323 16.71756933 17.50985118 18.36328125 20.58984375 C18.94464844 21.67394531 19.52601562 22.75804687 20.125 23.875 C20.62386719 24.87144531 21.12273437 25.86789063 21.63671875 26.89453125 C23.31342937 29.42851405 23.31342937 29.42851405 26.64453125 29.38671875 C27.56621094 29.27972656 28.48789063 29.17273438 29.4375 29.0625 C29.14088645 25.50313745 28.75080121 24.33563438 26 21.9375 C25.154375 21.31875 24.30875 20.7 23.4375 20.0625 C20.7492288 16.03009319 20.88217439 12.79558287 21.4375 8.0625 C22.6875 5.5 22.6875 5.5 24.4375 4.0625 C25.7575 4.0625 27.0775 4.0625 28.4375 4.0625 C28.4375 4.7225 28.4375 5.3825 28.4375 6.0625 C29.0975 6.0625 29.7575 6.0625 30.4375 6.0625 C30.78361328 6.88041016 30.78361328 6.88041016 31.13671875 7.71484375 C35.65179749 18.15484795 41.10970267 26.34023378 48.4375 35.0625 C52.88240083 40.37469855 52.91147445 44.40052576 52.4375 51.0625 C51.7775 51.0625 51.1175 51.0625 50.4375 51.0625 C51.10618314 54.17582248 51.10618314 54.17582248 53.5 55.25 C54.139375 55.518125 54.77875 55.78625 55.4375 56.0625 C55.1075 57.0525 54.7775 58.0425 54.4375 59.0625 C61.3675 59.5575 61.3675 59.5575 68.4375 60.0625 C68.9325 59.0725 68.9325 59.0725 69.4375 58.0625 C69.95828125 58.22621094 70.4790625 58.38992187 71.015625 58.55859375 C74.1131875 59.20308659 77.02591094 59.15661589 80.1875 59.125 C81.35796875 59.11597656 82.5284375 59.10695312 83.734375 59.09765625 C84.62640625 59.08605469 85.5184375 59.07445312 86.4375 59.0625 C86.4375 59.7225 86.4375 60.3825 86.4375 61.0625 C87.0975 61.0625 87.7575 61.0625 88.4375 61.0625 C88.4375 62.0525 88.4375 63.0425 88.4375 64.0625 C87.7775 64.0625 87.1175 64.0625 86.4375 64.0625 C86.1075 63.4025 85.7775 62.7425 85.4375 62.0625 C81.00851901 61.91329877 76.58089827 61.80489248 72.15014648 61.73291016 C70.64565528 61.70288168 69.14133703 61.66204394 67.63745117 61.60986328 C57.82785613 60.88205409 57.82785613 60.88205409 49.34765625 64.8984375 C48.85088379 65.44185791 48.35411133 65.98527832 47.84228516 66.54516602 C43.08758365 71.68080555 35.51819171 71.73849324 29 72.25 C28.07767578 72.33185547 27.15535156 72.41371094 26.20507812 72.49804688 C23.94990384 72.69668917 21.69438658 72.88456853 19.4375 73.0625 C19.4375 72.4025 19.4375 71.7425 19.4375 71.0625 C17.93509766 71.11083984 17.93509766 71.11083984 16.40234375 71.16015625 C1.72845782 70.79873049 -17.23076968 63.9557182 -27.9375 53.8125 C-30.2276042 49.93693905 -29.92303073 47.53308101 -29.5625 43.0625 C-29.2325 42.0725 -28.9025 41.0825 -28.5625 40.0625 C-28.8925 39.32 -29.2225 38.5775 -29.5625 37.8125 C-30.90275359 34.12680264 -30.50810087 31.8449035 -29.5625 28.0625 C-27.5 25.125 -27.5 25.125 -25.5625 23.0625 C-26.2225 22.0725 -26.8825 21.0825 -27.5625 20.0625 C-28.02221784 15.09754727 -27.71315843 12.00082304 -24.5625 8.0625 C-21.14313208 5.49797406 -17.70694215 5.90309838 -13.5625 6.0625 C-13.2325 4.7425 -12.9025 3.4225 -12.5625 2.0625 C-11.5625 3.0625 -11.5625 3.0625 -11.375 5.8125 C-11.56062149 9.02993924 -12.20135498 11.17006683 -13.5625 14.0625 C-12.758125 14.248125 -11.95375 14.43375 -11.125 14.625 C-5.1326407 17.04296954 -0.58929257 21.3570282 4.3203125 25.48828125 C5.28710938 26.29652344 6.25390625 27.10476562 7.25 27.9375 C8.14332031 28.69804687 9.03664062 29.45859375 9.95703125 30.2421875 C12.25130471 31.92585904 13.66224307 32.66141392 16.4375 33.0625 C15.7775 30.7525 15.1175 28.4425 14.4375 26.0625 C13.7775 26.0625 13.1175 26.0625 12.4375 26.0625 C11.41341432 25.0871803 10.41915594 24.08051357 9.4375 23.0625 C8.57125 22.4025 7.705 21.7425 6.8125 21.0625 C4.4375 19.0625 4.4375 19.0625 3.4375 16.0625 C2.7775 15.7325 2.1175 15.4025 1.4375 15.0625 C1.4375 14.0725 1.4375 13.0825 1.4375 12.0625 C0.7775 12.0625 0.1175 12.0625 -0.5625 12.0625 C-3.39168336 8.36279868 -3.98185884 5.67544726 -3.5625 1.0625 C-2.5625 0.0625 -2.5625 0.0625 0 0 Z " fill="#FECF1B" transform="translate(43.5625,129.9375)"/>
<path d="M0 0 C1.2684375 0.433125 1.2684375 0.433125 2.5625 0.875 C2.69767517 8.17445944 -0.05369337 11.32482557 -5.015625 16.4921875 C-6.49383071 17.94655118 -7.98122422 19.39174554 -9.484375 20.8203125 C-13.46857483 24.61722089 -15.62288105 27.64462773 -17.4375 32.875 C-11.87447577 30.09348789 -7.33820599 26.42207231 -2.70214844 22.31689453 C-0.04515579 20.01133298 2.00621261 18.30786553 5.5625 17.875 C5.5625 17.215 5.5625 16.555 5.5625 15.875 C9.55675954 13.68766739 12.98493641 12.18710661 17.5625 11.875 C18.5525 12.865 18.5525 12.865 19.5625 13.875 C19.1875 17 19.1875 17 18.5625 19.875 C17.9025 19.875 17.2425 19.875 16.5625 19.875 C16.0675 21.36 16.0675 21.36 15.5625 22.875 C14.5725 22.875 13.5825 22.875 12.5625 22.875 C12.5625 23.535 12.5625 24.195 12.5625 24.875 C11.60988281 25.41769531 10.65726562 25.96039063 9.67578125 26.51953125 C8.40883756 27.24215839 7.14191141 27.96481627 5.875 28.6875 C4.93624023 29.22213867 4.93624023 29.22213867 3.97851562 29.76757812 C2.74559802 30.47118032 1.51396294 31.17703515 0.28369141 31.88525391 C-1.25090277 32.76769998 -2.79109562 33.64039347 -4.33203125 34.51171875 C-6.56336989 35.70363978 -6.56336989 35.70363978 -7.4375 37.875 C-8.0975 37.875 -8.7575 37.875 -9.4375 37.875 C-9.4375 39.195 -9.4375 40.515 -9.4375 41.875 C-8.3753125 41.34390625 -7.313125 40.8128125 -6.21875 40.265625 C2.28125 36.015625 2.28125 36.015625 4.41796875 34.95410156 C5.86545184 34.225746 7.30551572 33.48248227 8.73828125 32.72558594 C9.43308594 32.36239258 10.12789062 31.99919922 10.84375 31.625 C11.46314453 31.295 12.08253906 30.965 12.72070312 30.625 C15.74743884 29.39247984 18.33699915 29.60620826 21.5625 29.875 C22.0575 32.35 22.0575 32.35 22.5625 34.875 C21.94375 34.9575 21.325 35.04 20.6875 35.125 C19.98625 35.3725 19.285 35.62 18.5625 35.875 C18.24732422 36.77412109 18.24732422 36.77412109 17.92578125 37.69140625 C15.75202171 41.17315864 12.33444022 42.0650215 8.625 43.5625 C7.89603516 43.86994141 7.16707031 44.17738281 6.41601562 44.49414062 C3.48474325 45.72199715 0.57905129 46.8694829 -2.4375 47.875 C-2.4375 49.195 -2.4375 50.515 -2.4375 51.875 C4.06723914 49.48308822 4.06723914 49.48308822 10.125 46.1875 C13.7592019 44.23062205 17.49004011 44.13230139 21.5625 43.875 C21.6875 46.75 21.6875 46.75 21.5625 49.875 C20.5725 50.865 20.5725 50.865 19.5625 51.875 C18.5725 51.875 17.5825 51.875 16.5625 51.875 C16.5625 52.535 16.5625 53.195 16.5625 53.875 C14.95375 54.0296875 14.95375 54.0296875 13.3125 54.1875 C9.70433819 54.54985666 9.70433819 54.54985666 7.8359375 56.22265625 C0.01413807 61.90757233 -11.90705691 64.78648195 -21.4375 64.875 C-22.55898437 64.92398438 -23.68046875 64.97296875 -24.8359375 65.0234375 C-33.42961772 65.26164186 -40.69668468 65.13826443 -47.375 59.3125 C-48.055625 58.508125 -48.73625 57.70375 -49.4375 56.875 C-50.0975 56.215 -50.7575 55.555 -51.4375 54.875 C-53.3212471 49.64236917 -53.95966886 45.35777304 -53.4375 39.875 C-51.41776882 35.9196931 -48.59604227 32.94122396 -45.625 29.6875 C-39.16693023 22.53060924 -34.57620094 14.96071325 -31.4375 5.875 C-30.7775 5.215 -30.1175 4.555 -29.4375 3.875 C-26.9375 4.0625 -26.9375 4.0625 -24.4375 4.875 C-21.98339642 8.55615537 -22.20462157 10.52793598 -22.4375 14.875 C-23.67705495 18.59366485 -25.62304854 20.19783886 -28.4375 22.875 C-30.79703094 25.23453094 -30.92891413 26.65395617 -31.4375 29.875 C-28.07417641 29.88968427 -28.07417641 29.88968427 -24.4375 28.875 C-22.67995535 26.62633127 -21.58235423 24.88904978 -20.375 22.375 C-19.70008247 21.09260781 -19.02299334 19.8113562 -18.34375 18.53125 C-18.02019531 17.90476563 -17.69664062 17.27828125 -17.36328125 16.6328125 C-8.4416627 -0.30696955 -8.4416627 -0.30696955 0 0 Z " fill="#FECF1B" transform="translate(183.4375,130.125)"/>
<path d="M0 0 C16.40843044 13.51813811 28.86082891 33.28907598 31.37011719 54.71386719 C32.50872601 69.53103116 31.45450862 83.43673108 27.37011719 97.71386719 C28.63082031 97.67777344 29.89152344 97.64167969 31.19042969 97.60449219 C34.48547972 97.51015538 35.27956593 97.65874903 38.24511719 99.46386719 C41.59903285 103.01507201 41.59903285 103.01507201 42.37011719 105.71386719 C42.05843647 109.26702741 41.49753908 112.3316015 40.37011719 115.71386719 C41.00949219 116.43574219 41.64886719 117.15761719 42.30761719 117.90136719 C45.19949988 121.84484359 44.82999466 123.8851537 44.37011719 128.71386719 C43.37011719 131.21386719 43.37011719 131.21386719 42.37011719 132.71386719 C43.03011719 133.70386719 43.69011719 134.69386719 44.37011719 135.71386719 C44.62011719 138.77636719 44.62011719 138.77636719 44.37011719 141.71386719 C43.71011719 142.37386719 43.05011719 143.03386719 42.37011719 143.71386719 C42.24636719 142.62074219 42.12261719 141.52761719 41.99511719 140.40136719 C41.61546918 136.64004916 41.61546918 136.64004916 39.37011719 133.71386719 C39.18261719 130.08886719 39.18261719 130.08886719 39.37011719 126.71386719 C39.70011719 126.38386719 40.03011719 126.05386719 40.37011719 125.71386719 C40.7377245 123.38568755 41.072533 121.05202869 41.37011719 118.71386719 C40.38011719 118.71386719 39.39011719 118.71386719 38.37011719 118.71386719 C38.70011719 113.76386719 39.03011719 108.81386719 39.37011719 103.71386719 C37.0393579 104.67252228 37.0393579 104.67252228 35.37011719 107.71386719 C34.38011719 106.72386719 33.39011719 105.73386719 32.37011719 104.71386719 C28.74011719 105.70386719 25.11011719 106.69386719 21.37011719 107.71386719 C21.37011719 108.37386719 21.37011719 109.03386719 21.37011719 109.71386719 C19.78808594 110.90527344 19.78808594 110.90527344 17.55761719 112.27636719 C12.59685933 115.44464835 8.20396134 119.11371113 3.75292969 122.95605469 C1.37011719 124.71386719 1.37011719 124.71386719 -1.62988281 124.71386719 C-1.10122917 120.83930441 -0.21550723 118.76664987 2.43261719 115.90136719 C3.37041016 114.87462891 3.37041016 114.87462891 4.32714844 113.82714844 C6.38280241 111.70074538 8.49383656 109.64440281 10.62011719 107.58886719 C15.08709521 103.1737303 17.44887168 98.97833663 18.37011719 92.71386719 C14.84814509 92.63382237 11.75030249 92.67381017 8.37011719 93.71386719 C7.62011719 91.96386719 7.62011719 91.96386719 7.37011719 89.71386719 C8.74511719 87.40136719 8.74511719 87.40136719 11.37011719 85.71386719 C14.44572227 85.67687537 17.35741587 86.12162676 20.37011719 86.71386719 C20.37011719 87.37386719 20.37011719 88.03386719 20.37011719 88.71386719 C21.36011719 88.71386719 22.35011719 88.71386719 23.37011719 88.71386719 C25.2315788 64.38190469 25.12627617 40.17501611 9.24511719 20.02636719 C7.96739827 18.57645568 6.67686193 17.13767448 5.37011719 15.71386719 C4.32742203 14.42303063 3.2856712 13.13143037 2.24511719 11.83886719 C0.33495954 9.60860071 -1.52966777 7.98018426 -4.00488281 6.40136719 C-4.87113281 5.84449219 -5.73738281 5.28761719 -6.62988281 4.71386719 C-6.62988281 4.05386719 -6.62988281 3.39386719 -6.62988281 2.71386719 C-7.3040625 2.46378906 -7.97824219 2.21371094 -8.67285156 1.95605469 C-11.52801357 0.75666034 -14.21651248 -0.64008844 -16.94287109 -2.10449219 C-36.08139082 -12.21823008 -57.61205451 -14.73557062 -78.59863281 -8.67675781 C-89.98740475 -4.96543622 -100.41018716 1.11111647 -109.62988281 8.71386719 C-110.26023438 9.23078125 -110.89058594 9.74769531 -111.54003906 10.28027344 C-123.29559689 20.96470982 -130.24956236 36.86650772 -133.19946289 52.14086914 C-133.58365429 54.01987541 -134.09690621 55.87153075 -134.62988281 57.71386719 C-137.62988281 58.71386719 -137.62988281 58.71386719 -140.62988281 57.71386719 C-140.54785159 61.02729421 -140.43512511 64.33903211 -140.31738281 67.65136719 C-140.29482422 68.57755859 -140.27226562 69.50375 -140.24902344 70.45800781 C-140.03530584 75.99523657 -139.28272244 80.62439107 -137.23144531 85.78613281 C-136.34845604 88.61571208 -136.83929575 90.91087669 -137.62988281 93.71386719 C-145.66036633 78.59370993 -143.48070265 57.71332773 -138.79956055 41.80151367 C-131.32944651 18.58911197 -115.47623558 0.57559689 -93.81738281 -10.59863281 C-62.90801645 -25.87708326 -26.74751696 -21.10633903 0 0 Z " fill="#FAAF0A" transform="translate(167.6298828125,38.2861328125)"/>
<path d="M0 0 C5.01085487 0.590598 9.35316306 2.78950594 13.91601562 4.828125 C23.15348903 8.90259976 31.87292018 9.18231373 41.515625 6.00390625 C45.05516191 4.57362168 48.36877147 2.79283889 51.67578125 0.890625 C54.5190735 -0.19890547 56.11853753 0.16361089 59 1 C59.82762601 10.31079263 55.98518034 18.32996024 50.46484375 25.63671875 C49 27 49 27 46 27 C44.29115995 25.37660195 42.62553283 23.70680947 41 22 C38.24301816 19.71861055 38.24301816 19.71861055 35.4375 20.1875 C32.66744883 20.83372442 32.66744883 20.83372442 31 24 C29.125 23.6875 29.125 23.6875 27 23 C26.34 22.01 25.68 21.02 25 20 C20.12133225 20.45382956 17.56179299 21.6360844 14 25 C13.34 25.99 12.68 26.98 12 28 C6.86959122 26.0998486 4.04567213 22.21655419 1.79296875 17.44140625 C-0.43680437 11.76060618 -1.56403303 7.09155674 -1 1 C-0.67 0.67 -0.34 0.34 0 0 Z " fill="#3D3B3E" transform="translate(83,105)"/>
<path d="M0 0 C4.39754759 -0.37693265 6.31920186 0.69364417 10 3 C11.11375 3.61617187 12.2275 4.23234375 13.375 4.8671875 C13.96796875 5.19589844 14.5609375 5.52460938 15.171875 5.86328125 C16.38732985 6.53593682 17.60609176 7.20265217 18.828125 7.86328125 C22.84039722 10.1049203 26.06219337 12.45015033 29 16 C29 17.32 29 18.64 29 20 C25.48318792 19.43534605 22.87091616 18.56324485 19.8125 16.75 C10.05868396 10.50154304 10.05868396 10.50154304 -1 9 C-1.39815996 12.80539777 -1.39815996 12.80539777 0.21875 14.63671875 C2.25317862 16.19377048 4.08716403 16.95468981 6.5 17.8125 C12.30627001 20.01340176 17.61461173 22.92848578 23 26 C23 27.32 23 28.64 23 30 C16.88816111 29.72836272 12.83893323 27.43774588 7.6484375 24.27734375 C4.82476889 22.91548588 3.08952883 22.73789196 0 23 C-0.33 24.65 -0.66 26.3 -1 28 C-0.34 28 0.32 28 1 28 C1.44988281 28.46019531 1.89976563 28.92039063 2.36328125 29.39453125 C4.22805833 31.223704 5.73327441 31.84260267 8.1875 32.6875 C9.26064453 33.06455078 9.26064453 33.06455078 10.35546875 33.44921875 C10.89816406 33.63097656 11.44085938 33.81273437 12 34 C9.64031256 36.09749995 8.45383006 36.96905704 5.25 37.1875 C4.13625 37.0946875 4.13625 37.0946875 3 37 C3 36.34 3 35.68 3 35 C1.35 34.34 -0.3 33.68 -2 33 C-2 32.34 -2 31.68 -2 31 C-3.32 30.67 -4.64 30.34 -6 30 C-6.33 27.36 -6.66 24.72 -7 22 C-6.34 22 -5.68 22 -5 22 C-5.350625 20.824375 -5.70125 19.64875 -6.0625 18.4375 C-7.31242584 13.39315644 -7.26382998 9.14301606 -4.5625 4.5625 C-4.046875 4.046875 -3.53125 3.53125 -3 3 C-2.34 3 -1.68 3 -1 3 C-0.67 2.01 -0.34 1.02 0 0 Z " fill="#FBAE05" transform="translate(22,152)"/>
<path d="M0 0 C0.66 0 1.32 0 2 0 C2.18451025 10.55808656 2.18451025 10.55808656 1 15 C1.99 15 2.98 15 4 15 C4.04241723 17.33294775 4.04092937 19.66702567 4 22 C3.505 22.495 3.505 22.495 3 23 C2.66143172 28.32673036 2.66143172 28.32673036 5 33 C5.07905064 35.33199388 5.08798769 37.66832622 5 40 C4.34 40 3.68 40 3 40 C3 40.66 3 41.32 3 42 C1.68 42 0.36 42 -1 42 C-1 42.99 -1 43.98 -1 45 C-4.90028225 47.60018816 -8.47434569 47.15085514 -13 47 C-10.47211993 44.20127563 -8.79588866 42.54226981 -5 42 C-5 41.34 -5 40.68 -5 40 C-4.360625 39.79375 -3.72125 39.5875 -3.0625 39.375 C-0.65074923 38.10461791 -0.65074923 38.10461791 -0.25 34.875 C-0.1675 33.92625 -0.085 32.9775 0 32 C-6.62347216 33.52277958 -12.26494793 35.36040626 -18.02734375 39.01171875 C-20 40 -20 40 -24 40 C-24 38.68 -24 37.36 -24 36 C-20.54947917 34.27473958 -17.09895833 32.54947917 -13.6484375 30.82421875 C-13.03871094 30.51830811 -12.42898437 30.21239746 -11.80078125 29.8972168 C-10.08926192 29.04447364 -8.36905273 28.20923769 -6.6484375 27.375 C-4.22292936 26.11573914 -2.85211906 24.94472501 -1 23 C-0.34 23 0.32 23 1 23 C0.67 21.68 0.34 20.36 0 19 C-5.64396892 18.62565512 -9.02763795 19.60843266 -14 22.25 C-14.61012939 22.568479 -15.22025879 22.88695801 -15.84887695 23.21508789 C-19.00877451 24.87674724 -22.11386686 26.62215591 -25.1875 28.4375 C-28 30 -28 30 -31 30 C-31 28.68 -31 27.36 -31 26 C-30.34 26 -29.68 26 -29 26 C-28.70029297 25.12214844 -28.70029297 25.12214844 -28.39453125 24.2265625 C-26.41358152 21.06370158 -23.98314574 20.06947697 -20.6875 18.375 C-19.55699219 17.78460938 -18.42648438 17.19421875 -17.26171875 16.5859375 C-14.53753578 15.2613647 -11.83059559 14.07275855 -9 13 C-9 12.34 -9 11.68 -9 11 C-8.01 10.67 -7.02 10.34 -6 10 C-5.67 9.34 -5.34 8.68 -5 8 C-4.34 8 -3.68 8 -3 8 C-2.690625 6.865625 -2.38125 5.73125 -2.0625 4.5625 C-1 1 -1 1 0 0 Z " fill="#FBAE05" transform="translate(205,142)"/>
<path d="M0 0 C0.66 0.99 1.32 1.98 2 3 C2.99 3 3.98 3 5 3 C6.70532323 1.05990478 6.70532323 1.05990478 8 -1 C12.86045979 -0.54786421 15.53141261 0.53141261 19 4 C20.3125 6.75 20.3125 6.75 21 9 C19.77493102 9.65357278 18.54470484 10.29748233 17.3125 10.9375 C16.62800781 11.29714844 15.94351563 11.65679687 15.23828125 12.02734375 C7.21616643 15.51339364 -2.04403681 14.75675927 -10.125 11.94921875 C-12.17933296 10.90921269 -13.47070071 9.70612452 -15 8 C-6.78190255 -2.56612529 -6.78190255 -2.56612529 0 0 Z " fill="#EB5046" transform="translate(109,125)"/>
<path d="M0 0 C3.16118708 1.63913404 5.26864575 3.00269875 7.375 5.875 C8.69500882 10.36302998 8.4462855 13.12395809 6.3125 17.3125 C4 20 4 20 1.25 20.875 C0.5075 20.91625 -0.235 20.9575 -1 21 C-1.38800781 20.34515625 -1.77601563 19.6903125 -2.17578125 19.015625 C-3.83325291 16.76018967 -3.83325291 16.76018967 -6.48046875 16.609375 C-7.37378906 16.65578125 -8.26710937 16.7021875 -9.1875 16.75 C-10.53908203 16.80414063 -10.53908203 16.80414063 -11.91796875 16.859375 C-12.60503906 16.90578125 -13.29210937 16.9521875 -14 17 C-15.61429923 13.77140153 -15.59570657 10.49006347 -15 7 C-11.40336873 0.7327358 -7.02650481 -0.9534105 0 0 Z " fill="#3F3C38" transform="translate(144,68)"/>
<path d="M0 0 C4.01615408 2.08245026 6.40091208 3.75626669 8 8 C7.9765625 10.359375 7.9765625 10.359375 7.625 12.75 C7.45871094 13.94882813 7.45871094 13.94882813 7.2890625 15.171875 C7.14597656 16.07679687 7.14597656 16.07679687 7 17 C6.31292969 16.95359375 5.62585938 16.9071875 4.91796875 16.859375 C4.01691406 16.82328125 3.11585937 16.7871875 2.1875 16.75 C0.84751953 16.68039063 0.84751953 16.68039063 -0.51953125 16.609375 C-3.16674709 16.76018967 -3.16674709 16.76018967 -4.82421875 19.015625 C-5.21222656 19.67046875 -5.60023437 20.3253125 -6 21 C-9.72334237 20.49684563 -11.63335948 19.9533007 -14 17 C-15.2333744 12.83150679 -15.47673336 9.15419655 -13.8125 5.125 C-9.74861195 0.36044159 -6.36135863 -1.11323776 0 0 Z " fill="#3B3A41" transform="translate(86,68)"/>
<path d="M0 0 C0.66 0 1.32 0 2 0 C-0.79442567 6.76164139 -7.88834302 9.16873782 -14.2890625 11.8359375 C-30.07820121 18.10355768 -48.00189858 22.90326773 -65 19 C-65 18.67 -65 18.34 -65 18 C-56.585 17.505 -56.585 17.505 -48 17 C-47.67 16.01 -47.34 15.02 -47 14 C-49.97 14 -52.94 14 -56 14 C-56 13.67 -56 13.34 -56 13 C-54.75347656 12.92523438 -53.50695312 12.85046875 -52.22265625 12.7734375 C-38.64559318 11.78803794 -25.6456661 9.5169521 -14 2 C-13.34 2.66 -12.68 3.32 -12 4 C-12.66 4.66 -13.32 5.32 -14 6 C-12.35 6 -10.7 6 -9 6 C-9 5.67 -9 5.34 -9 5 C-7.35 5 -5.7 5 -4 5 C-4 4.01 -4 3.02 -4 2 C-2.68 2 -1.36 2 0 2 C0 1.34 0 0.68 0 0 Z " fill="#FAAF0C" transform="translate(208,182)"/>
<path d="M0 0 C1.03876383 3.11629149 1.13361625 5.3594429 1.125 8.625 C1.12886719 10.09839844 1.12886719 10.09839844 1.1328125 11.6015625 C1 14 1 14 0 15 C-1.46478506 15.09883336 -2.93422958 15.13079289 -4.40234375 15.1328125 C-5.29244141 15.13410156 -6.18253906 15.13539063 -7.09960938 15.13671875 C-8.03611328 15.13285156 -8.97261719 15.12898437 -9.9375 15.125 C-10.87013672 15.12886719 -11.80277344 15.13273438 -12.76367188 15.13671875 C-13.65505859 15.13542969 -14.54644531 15.13414062 -15.46484375 15.1328125 C-16.285896 15.13168457 -17.10694824 15.13055664 -17.95288086 15.12939453 C-20 15 -20 15 -22 14 C-21.67 10.37 -21.34 6.74 -21 3 C-18.97746094 3.05220703 -18.97746094 3.05220703 -16.9140625 3.10546875 C-15.15105409 3.13360186 -13.38803225 3.16090253 -11.625 3.1875 C-10.73554687 3.21263672 -9.84609375 3.23777344 -8.9296875 3.26367188 C-8.07890625 3.27333984 -7.228125 3.28300781 -6.3515625 3.29296875 C-5.56604004 3.3086792 -4.78051758 3.32438965 -3.97119141 3.34057617 C-3.32069824 3.22818604 -2.67020508 3.1157959 -2 3 C-1.34 2.01 -0.68 1.02 0 0 Z " fill="#FDC615" transform="translate(123,171)"/>
<path d="M0 0 C5.08855907 0.51748058 10.08586777 1.18423344 15.125 2.0625 C25.04940153 3.61173169 34.34504593 3.86504065 44 1 C46.9375 1.375 46.9375 1.375 49 2 C49 2.99 49 3.98 49 5 C45.66666667 5.66666667 42.33333333 6.33333333 39 7 C39 7.66 39 8.32 39 9 C30.42 9 21.84 9 13 9 C13 8.34 13 7.68 13 7 C11.9275 6.855625 10.855 6.71125 9.75 6.5625 C7.89375 6.2840625 7.89375 6.2840625 6 6 C5.236875 5.896875 4.47375 5.79375 3.6875 5.6875 C2 5 2 5 0.75 3 C0 1 0 1 0 0 Z " fill="#FBAD06" transform="translate(42,191)"/>
<path d="M0 0 C2.375 -0.1875 2.375 -0.1875 5 0 C5.66 0.99 6.32 1.98 7 3 C6.67 3.66 6.34 4.32 6 5 C12.93 5.495 12.93 5.495 20 6 C20.33 5.34 20.66 4.68 21 4 C21.52078125 4.16371094 22.0415625 4.32742187 22.578125 4.49609375 C25.6756875 5.14058659 28.58841094 5.09411589 31.75 5.0625 C32.92046875 5.05347656 34.0909375 5.04445312 35.296875 5.03515625 C36.18890625 5.02355469 37.0809375 5.01195312 38 5 C38 5.66 38 6.32 38 7 C38.66 7 39.32 7 40 7 C40 7.99 40 8.98 40 10 C39.34 10 38.68 10 38 10 C37.505 9.01 37.505 9.01 37 8 C32.57101901 7.85079877 28.14339827 7.74239248 23.71264648 7.67041016 C22.20815528 7.64038168 20.70383703 7.59954394 19.19995117 7.54736328 C9.39035613 6.81955409 9.39035613 6.81955409 0.91015625 10.8359375 C0.16499756 11.65106812 0.16499756 11.65106812 -0.59521484 12.48266602 C-5.34991635 17.61830555 -12.91930829 17.67599324 -19.4375 18.1875 C-20.35982422 18.26935547 -21.28214844 18.35121094 -22.23242188 18.43554688 C-24.48759616 18.63418917 -26.74311342 18.82206853 -29 19 C-29 18.34 -29 17.68 -29 17 C-31.31 17 -33.62 17 -36 17 C-36 16.67 -36 16.34 -36 16 C-27.75 16 -19.5 16 -11 16 C-11.33 15.01 -11.66 14.02 -12 13 C-4.375 10.875 -4.375 10.875 -1 12 C-1.66868314 8.88667752 -1.66868314 8.88667752 -4.0625 7.8125 C-4.701875 7.544375 -5.34125 7.27625 -6 7 C-5.195625 6.773125 -4.39125 6.54625 -3.5625 6.3125 C-2.716875 5.879375 -1.87125 5.44625 -1 5 C-0.10613836 2.45224694 -0.10613836 2.45224694 0 0 Z " fill="#F6BA3D" transform="translate(92,184)"/>
<path d="M0 0 C1.80914882 2.66128413 2.01869735 3.85154303 1.609375 7.1015625 C1.18398438 8.84566406 1.18398438 8.84566406 0.75 10.625 C0.45996094 11.85734375 0.16992188 13.0896875 -0.12890625 14.359375 C-0.41636719 15.56078125 -0.70382813 16.7621875 -1 18 C-1.40632181 19.95618405 -1.80375555 21.91426196 -2.1875 23.875 C-2.34605469 24.67679688 -2.50460938 25.47859375 -2.66796875 26.3046875 C-2.77753906 26.86414063 -2.88710938 27.42359375 -3 28 C-6 29 -6 29 -9 28 C-8.91796877 31.31342702 -8.80524229 34.62516492 -8.6875 37.9375 C-8.66494141 38.86369141 -8.64238281 39.78988281 -8.61914062 40.74414062 C-8.40542302 46.28136938 -7.65283963 50.91052388 -5.6015625 56.07226562 C-4.71857323 58.90184489 -5.20941294 61.1970095 -6 64 C-11.79535985 53.08823459 -11.50252614 39.60444715 -10.25 27.625 C-10.17620117 26.88838135 -10.10240234 26.1517627 -10.02636719 25.39282227 C-9.1117309 17.79397601 -6.8802841 11.98228373 -2 6 C-0.74443113 2.82078213 -0.74443113 2.82078213 0 0 Z " fill="#FBAC07" transform="translate(36,68)"/>
<path d="M0 0 C0.66 0.33 1.32 0.66 2 1 C2.17942163 4.94727588 2.09350689 7.5980513 0 11 C-0.804375 10.979375 -1.60875 10.95875 -2.4375 10.9375 C-4.93354885 10.70366379 -4.93354885 10.70366379 -6 12 C-6.04092937 14.33297433 -6.04241723 16.66705225 -6 19 C-5.34 19.33 -4.68 19.66 -4 20 C-4.556875 20.04125 -5.11375 20.0825 -5.6875 20.125 C-9.16442679 21.44059392 -11.15242798 23.87655749 -13 27 C-13.81870185 30.56206661 -13.81870185 30.56206661 -14 34 C-14.30903983 35.33917261 -14.62942911 36.67653254 -15 38 C-17.23463569 33.66217778 -17.17749207 30.70996826 -16 26 C-13.9375 23.0625 -13.9375 23.0625 -12 21 C-12.66 20.01 -13.32 19.02 -14 18 C-14.45971784 13.03504727 -14.15065843 9.93832304 -11 6 C-7.58063208 3.43547406 -4.14444215 3.84059838 0 4 C0 2.68 0 1.36 0 0 Z " fill="#F6B420" transform="translate(30,132)"/>
<path d="M0 0 C-1.98 0.33 -3.96 0.66 -6 1 C-5.505 2.98 -5.505 2.98 -5 5 C-7.31 4.67 -9.62 4.34 -12 4 C-11.505 6.475 -11.505 6.475 -11 9 C-16.94 12.465 -16.94 12.465 -23 16 C-23.66 15.34 -24.32 14.68 -25 14 C-28.45269336 14 -31.24412217 16.07026899 -34 18 C-35.37368345 19.63356951 -36.71937515 21.2925002 -38 23 C-38.66 23 -39.32 23 -40 23 C-40 23.66 -40 24.32 -40 25 C-41.32 24.67 -42.64 24.34 -44 24 C-36.14306277 15.55050047 -13.0435389 -5.01674573 0 0 Z " fill="#F9B014" transform="translate(92,23)"/>
<path d="M0 0 C2.875 1.625 2.875 1.625 5 4 C5.3125 7.25 5.3125 7.25 5 10 C4.34 10 3.68 10 3 10 C2.87625 10.639375 2.7525 11.27875 2.625 11.9375 C2.41875 12.618125 2.2125 13.29875 2 14 C-0.70879335 15.35439668 -3.00933268 15.06501451 -6 15 C-6 14.34 -6 13.68 -6 13 C-7.32 12.34 -8.64 11.68 -10 11 C-10 8.36 -10 5.72 -10 3 C-9.34 3 -8.68 3 -8 3 C-8 2.34 -8 1.68 -8 1 C-5.14675563 -0.42662219 -3.16545451 -0.31033868 0 0 Z " fill="#FCAE04" transform="translate(62,80)"/>
<path d="M0 0 C0.33 1.32 0.66 2.64 1 4 C0.34 4 -0.32 4 -1 4 C-1 5.65 -1 7.3 -1 9 C-0.34 9.33 0.32 9.66 1 10 C1 10.66 1 11.32 1 12 C1.99 12.33 2.98 12.66 4 13 C4 13.66 4 14.32 4 15 C6.475 15.99 6.475 15.99 9 17 C9 17.66 9 18.32 9 19 C9.825 18.649375 10.65 18.29875 11.5 17.9375 C17.37664755 16.36339798 22.51537494 17.42908201 28 20 C27.67 21.32 27.34 22.64 27 24 C27.99 24.33 28.98 24.66 30 25 C33 26 36 27 39 28 C39 28.66 39 29.32 39 30 C33.20827775 29.4474788 28.14754884 28.29751546 22.6875 26.3125 C21.94983398 26.04630859 21.21216797 25.78011719 20.45214844 25.50585938 C2.56406376 18.86907545 2.56406376 18.86907545 -2 11 C-2.75500905 6.69152443 -2.47891258 3.71836887 0 0 Z " fill="#F9B114" transform="translate(16,170)"/>
<path d="M0 0 C3.6875 0.25 3.6875 0.25 6.125 1.3125 C7.6875 3.25 7.6875 3.25 8.25 6.625 C7.54842581 11.1462559 6.34501856 12.56781973 2.6875 15.25 C-0.125 15.5625 -0.125 15.5625 -2.3125 15.25 C-2.3125 14.59 -2.3125 13.93 -2.3125 13.25 C-2.951875 13.023125 -3.59125 12.79625 -4.25 12.5625 C-6.3125 11.25 -6.3125 11.25 -7.25 8.9375 C-7.32935468 5.52524865 -6.2839276 3.97966898 -4.3125 1.25 C-3.3125 0.25 -3.3125 0.25 0 0 Z " fill="#FBAE04" transform="translate(166.3125,79.75)"/>
<path d="M0 0 C0.99 0 1.98 0 3 0 C2.67 2.31 2.34 4.62 2 7 C3.216875 6.9175 4.43375 6.835 5.6875 6.75 C8.97607044 6.75 9.94125938 6.96424484 12.875 8.75 C16.22891566 12.30120482 16.22891566 12.30120482 17 15 C16.68831928 18.55316022 16.12742189 21.61773432 15 25 C15.9590625 26.0828125 15.9590625 26.0828125 16.9375 27.1875 C19.8293827 31.1309764 19.45987747 33.17128652 19 38 C18 40.5 18 40.5 17 42 C17.66 42.99 18.32 43.98 19 45 C19.25 48.0625 19.25 48.0625 19 51 C18.34 51.66 17.68 52.32 17 53 C16.87625 51.906875 16.7525 50.81375 16.625 49.6875 C16.24535199 45.92618198 16.24535199 45.92618198 14 43 C13.8125 39.375 13.8125 39.375 14 36 C14.495 35.505 14.495 35.505 15 35 C15.36760731 32.67182036 15.70241581 30.3381615 16 28 C15.01 28 14.02 28 13 28 C13.33 23.05 13.66 18.1 14 13 C12.68 13.33 11.36 13.66 10 14 C9.34 13.01 8.68 12.02 8 11 C5.67843403 10.59270772 3.3431213 10.25561323 1 10 C0 9 0 9 -0.09765625 6.93359375 C-0.08605469 6.10988281 -0.07445312 5.28617188 -0.0625 4.4375 C-0.05347656 3.61121094 -0.04445312 2.78492188 -0.03515625 1.93359375 C-0.02355469 1.29550781 -0.01195312 0.65742188 0 0 Z " fill="#F7B32D" transform="translate(193,129)"/>
<path d="M0 0 C0.99 0.66 1.98 1.32 3 2 C-0.75102929 5.80711945 -4.61956801 9.45532977 -8.5625 13.0625 C-12.11131376 16.31118551 -15.62974349 19.5638216 -19 23 C-19.66 22.34 -20.32 21.68 -21 21 C-20.60495559 18.0371669 -19.40182371 15.61673759 -18 13 C-16.68 13 -15.36 13 -14 13 C-14 12.34 -14 11.68 -14 11 C-10.95397527 7.60585815 -7.95400821 5.23046617 -4 3 C-2.65368175 2.01755155 -1.31558703 1.02323436 0 0 Z " fill="#FAAD05" transform="translate(66,35)"/>
<path d="M0 0 C0.66 0.99 1.32 1.98 2 3 C2.99 3 3.98 3 5 3 C6.70532323 1.05990478 6.70532323 1.05990478 8 -1 C13.35048061 -0.62671065 15.50912907 0.9957657 19 5 C16.69 4.34 14.38 3.68 12 3 C12 3.66 12 4.32 12 5 C7.545 5.495 7.545 5.495 3 6 C2.67 6.99 2.34 7.98 2 9 C-1.0625 10.1875 -1.0625 10.1875 -4 11 C-3.67 9.68 -3.34 8.36 -3 7 C-1.68 6.67 -0.36 6.34 1 6 C0.505 5.566875 0.01 5.13375 -0.5 4.6875 C-2 3 -2 3 -2 0 C-3.32 0.33 -4.64 0.66 -6 1 C-6 1.66 -6 2.32 -6 3 C-6.78375 3.45375 -7.5675 3.9075 -8.375 4.375 C-11.1235949 6.07651113 -11.87921032 7.04519084 -13 10 C-13.66 9.34 -14.32 8.68 -15 8 C-6.78190255 -2.56612529 -6.78190255 -2.56612529 0 0 Z " fill="#D55354" transform="translate(109,125)"/>
<path d="M0 0 C1.26237731 2.52475462 1.09856404 4.31200466 1.0625 7.125 C1.05347656 8.03507812 1.04445313 8.94515625 1.03515625 9.8828125 C1.02355469 10.58148438 1.01195313 11.28015625 1 12 C1.66 12.33 2.32 12.66 3 13 C3 11.35 3 9.7 3 8 C3.66 7.67 4.32 7.34 5 7 C5 7.99 5 8.98 5 10 C6.19625 9.979375 7.3925 9.95875 8.625 9.9375 C12.18004869 9.93117429 15.50555624 10.30111125 19 11 C18.835 9.9275 18.67 8.855 18.5 7.75 C18 4 18 4 18 0 C19.5625 1.4375 19.5625 1.4375 21 4 C20.96846324 7.05380927 20.53266629 9.99653222 20 13 C19.31292969 12.95359375 18.62585938 12.9071875 17.91796875 12.859375 C17.01691406 12.82328125 16.11585937 12.7871875 15.1875 12.75 C13.84751953 12.68039063 13.84751953 12.68039063 12.48046875 12.609375 C9.83325291 12.76018967 9.83325291 12.76018967 8.17578125 15.015625 C7.78777344 15.67046875 7.39976563 16.3253125 7 17 C3.2796048 16.49724389 1.35894421 15.95867579 -1 13 C-1.58203125 10.87890625 -1.58203125 10.87890625 -1.8125 8.5625 C-1.90144531 7.80066406 -1.99039063 7.03882812 -2.08203125 6.25390625 C-1.98860268 3.68684495 -1.29378268 2.19293667 0 0 Z " fill="#40392A" transform="translate(73,72)"/>
<path d="M0 0 C6.625 0.75 6.625 0.75 10 3 C10.66 2.67 11.32 2.34 12 2 C12 1.34 12 0.68 12 0 C17.61 0.66 23.22 1.32 29 2 C29.33 2.99 29.66 3.98 30 5 C26.41957679 6.7902116 22.31888942 6.31293593 18.375 6.375 C17.49714844 6.41238281 16.61929688 6.44976562 15.71484375 6.48828125 C9.28580217 6.57425655 4.94850868 5.208936 0 1 C0 0.67 0 0.34 0 0 Z " fill="#FBAD09" transform="translate(132,194)"/>
<path d="M0 0 C0.7857782 8.84000473 -2.72072152 17.02381058 -8 24 C-9.32 23.34 -10.64 22.68 -12 22 C-11.42415568 19.61435923 -10.77772405 17.33317216 -10 15 C-8.68 15 -7.36 15 -6 15 C-5.67 14.01 -5.34 13.02 -5 12 C-4.34 12 -3.68 12 -3 12 C-2.67 8.37 -2.34 4.74 -2 1 C-3.32 1 -4.64 1 -6 1 C-6 1.66 -6 2.32 -6 3 C-8.31 3.33 -10.62 3.66 -13 4 C-5.84328358 -1.62313433 -5.84328358 -1.62313433 0 0 Z " fill="#4B422E" transform="translate(142,106)"/>
<path d="M0 0 C4 5.52941176 4 5.52941176 4 7 C2.35 7.33 0.7 7.66 -1 8 C-1 9.32 -1 10.64 -1 12 C-5.455 11.01 -5.455 11.01 -10 10 C-9.25 5.25 -9.25 5.25 -7 3 C-6.01 3 -5.02 3 -4 3 C-4 2.34 -4 1.68 -4 1 C-2 0 -2 0 0 0 Z " fill="#EE4E4E" transform="translate(107,125)"/>
<path d="M0 0 C-5.61 -0.33 -11.22 -0.66 -17 -1 C-17 -1.66 -17 -2.32 -17 -3 C-32.345 -2.505 -32.345 -2.505 -48 -2 C-48 -2.33 -48 -2.66 -48 -3 C-34.1328875 -5.99251753 -12.51309824 -8.3420655 0 0 Z " fill="#F2C765" transform="translate(140,24)"/>
<path d="M0 0 C1.65 0.33 3.3 0.66 5 1 C4.67 1.66 4.34 2.32 4 3 C3.34 3 2.68 3 2 3 C2.08378906 3.62648438 2.16757813 4.25296875 2.25390625 4.8984375 C2.35574219 5.71570313 2.45757812 6.53296875 2.5625 7.375 C2.66691406 8.18710938 2.77132812 8.99921875 2.87890625 9.8359375 C3 12 3 12 2 14 C-0.3140622 14.73075648 -2.64828869 15.40138258 -5 16 C-5 12.7 -5 9.4 -5 6 C-4.01 6 -3.02 6 -2 6 C-2 5.01 -2 4.02 -2 3 C-1.34 3 -0.68 3 0 3 C0 2.01 0 1.02 0 0 Z " fill="#3A3B47" transform="translate(136,68)"/>
<path d="M0 0 C1.16306443 3.54950034 0.92365049 6.55823948 0.5625 10.25 C0.46066406 11.32765625 0.35882812 12.4053125 0.25390625 13.515625 C0.17011719 14.33546875 0.08632813 15.1553125 0 16 C-0.66 16 -1.32 16 -2 16 C-1.91796877 19.31342702 -1.80524229 22.62516492 -1.6875 25.9375 C-1.66494141 26.86369141 -1.64238281 27.78988281 -1.61914062 28.74414062 C-1.40542302 34.28136938 -0.65283963 38.91052388 1.3984375 44.07226562 C2.28142677 46.90184489 1.79058706 49.1970095 1 52 C-6.46177169 37.95063907 -5.18513833 17.93838238 -0.92578125 2.96484375 C-0.62027344 1.98644531 -0.31476562 1.00804688 0 0 Z " fill="#F1BE4F" transform="translate(29,80)"/>
<path d="M0 0 C0.99 0.33 1.98 0.66 3 1 C2.89300781 1.59167969 2.78601563 2.18335937 2.67578125 2.79296875 C2.08773602 6.6690088 1.72778776 9.2741007 3.125 13 C5.3699282 15.39459008 6.77510528 15.73852205 10 16 C10 16.99 10 17.98 10 19 C9.21625 18.95875 8.4325 18.9175 7.625 18.875 C4.83883881 18.71271266 4.83883881 18.71271266 3 21 C2.01 20.67 1.02 20.34 0 20 C-1.29858069 16.77593759 -1.13358906 13.43562365 -1.125 10 C-1.12886719 8.453125 -1.12886719 8.453125 -1.1328125 6.875 C-1.01863671 4.40342991 -0.71350656 2.3557042 0 0 Z " fill="#EDCB36" transform="translate(70,72)"/>
<path d="M0 0 C-0.8971875 0.433125 -0.8971875 0.433125 -1.8125 0.875 C-4.19327792 2.04742026 -4.19327792 2.04742026 -7 4 C-9.4453125 3.828125 -9.4453125 3.828125 -12.125 3.25 C-13.45917969 2.97929687 -13.45917969 2.97929687 -14.8203125 2.703125 C-15.53960937 2.47109375 -16.25890625 2.2390625 -17 2 C-17.33 1.34 -17.66 0.68 -18 0 C-17.34 0 -16.68 0 -16 0 C-16 -0.66 -16 -1.32 -16 -2 C-9.86090397 -3.43680971 -5.79622721 -2.32637691 0 0 Z " fill="#FAB31B" transform="translate(150,27)"/>
<path d="M0 0 C0 0.33 0 0.66 0 1 C-11.92438803 3.42529926 -23.90317823 5.7777887 -36 3 C-36 2.67 -36 2.34 -36 2 C-31.50034522 1.66189644 -27.00022839 1.33037391 -22.5 1 C-20.59734375 0.85691406 -20.59734375 0.85691406 -18.65625 0.7109375 C-12.4204271 0.25624208 -6.25261544 -0.12631546 0 0 Z " fill="#F2C462" transform="translate(179,198)"/>
<path d="M0 0 C0.99 0 1.98 0 3 0 C2.67 2.31 2.34 4.62 2 7 C4.97851562 6.90234375 4.97851562 6.90234375 7.95703125 6.8046875 C10 7 10 7 13 9 C13.6875 11.125 13.6875 11.125 14 13 C12.68 13.33 11.36 13.66 10 14 C9.34 13.01 8.68 12.02 8 11 C5.67843403 10.59270772 3.3431213 10.25561323 1 10 C0 9 0 9 -0.09765625 6.93359375 C-0.08605469 6.10988281 -0.07445312 5.28617188 -0.0625 4.4375 C-0.05347656 3.61121094 -0.04445312 2.78492188 -0.03515625 1.93359375 C-0.02355469 1.29550781 -0.01195312 0.65742188 0 0 Z " fill="#F5AE1C" transform="translate(193,129)"/>
<path d="M0 0 C0.66 0 1.32 0 2 0 C2 0.66 2 1.32 2 2 C2.66 2 3.32 2 4 2 C4 5.96 4 9.92 4 14 C2.02 14.99 2.02 14.99 0 16 C-0.33 16.99 -0.66 17.98 -1 19 C-2.32 19 -3.64 19 -5 19 C-5 17.35 -5 15.7 -5 14 C-5.45375 14.495 -5.9075 14.99 -6.375 15.5 C-8 17 -8 17 -10 17 C-9.34 15.68 -8.68 14.36 -8 13 C-4.7 13.33 -1.4 13.66 2 14 C2.29684571 6.76308494 2.29684571 6.76308494 0 0 Z " fill="#EDCC3B" transform="translate(91,71)"/>
<path d="M0 0 C4.6188849 1.31381615 7.96699445 3.13822843 11.8125 6 C12.76769531 6.70125 13.72289062 7.4025 14.70703125 8.125 C17 10 17 10 18 12 C17.030625 12.12375 16.06125 12.2475 15.0625 12.375 C14.051875 12.58125 13.04125 12.7875 12 13 C11.67 13.66 11.34 14.32 11 15 C11 14.34 11 13.68 11 13 C10.34 12.67 9.68 12.34 9 12 C9.33 10.68 9.66 9.36 10 8 C8.68 7.34 7.36 6.68 6 6 C6 5.34 6 4.68 6 4 C3.03 3.505 3.03 3.505 0 3 C0 2.01 0 1.02 0 0 Z " fill="#F8B323" transform="translate(150,28)"/>
<path d="M0 0 C0.33 1.32 0.66 2.64 1 4 C0.34 4 -0.32 4 -1 4 C-1 5.65 -1 7.3 -1 9 C-0.34 9.33 0.32 9.66 1 10 C1 10.66 1 11.32 1 12 C1.99 12.33 2.98 12.66 4 13 C4 13.66 4 14.32 4 15 C6.475 15.99 6.475 15.99 9 17 C9 17.66 9 18.32 9 19 C10.65 19 12.3 19 14 19 C14 19.66 14 20.32 14 21 C14.66 21 15.32 21 16 21 C16 21.66 16 22.32 16 23 C9.57879147 21.23416765 4.36743958 18.18988161 -0.5 13.6875 C-2.65305152 9.82994935 -2.42509005 7.39259714 -2 3 C-1.34 2.01 -0.68 1.02 0 0 Z " fill="#F3BF56" transform="translate(16,170)"/>
<path d="M0 0 C1.0209375 0.433125 1.0209375 0.433125 2.0625 0.875 C11.49087903 4.48586857 20.12946348 4.75476205 30 3 C29.67 3.66 29.34 4.32 29 5 C27.68 5 26.36 5 25 5 C25 5.66 25 6.32 25 7 C15.2825198 7.58304881 8.37759952 7.51935969 0 2 C0 1.34 0 0.68 0 0 Z " fill="#FDBF3C" transform="translate(94,134)"/>
<path d="M0 0 C1.04501941 3.39631308 1 6.46501595 1 10 C1.37125 11.2375 1.37125 11.2375 1.75 12.5 C2 15 2 15 0.0625 17.75 C-2.62441884 21.98393271 -2.38973107 25.12836166 -2 30 C-4.84613268 27.15386732 -4.79864424 24.95999656 -5 21 C-3.6875 18.25 -3.6875 18.25 -2 16 C-1.34 15.01 -0.68 14.02 0 13 C-0.66 12.01 -1.32 11.02 -2 10 C-2.4516129 3.67741935 -2.4516129 3.67741935 0 0 Z " fill="#F1C15A" transform="translate(18,140)"/>
<path d="M0 0 C1.32 0 2.64 0 4 0 C4.33 0.99 4.66 1.98 5 3 C4.38253906 3.24234375 3.76507813 3.4846875 3.12890625 3.734375 C-1.24535155 5.46543593 -5.55662418 7.24386325 -9.8125 9.25 C-13.00899791 10.70089267 -15.4304564 11.46058627 -19 11 C-18.34 10.34 -17.68 9.68 -17 9 C-16.01 9 -15.02 9 -14 9 C-13.67 8.01 -13.34 7.02 -13 6 C-12.2575 6.0825 -11.515 6.165 -10.75 6.25 C-7.84128762 6.28141439 -7.84128762 6.28141439 -5.9375 3.9375 C-5.298125 3.298125 -4.65875 2.65875 -4 2 C-1.75 2.25 -1.75 2.25 0 3 C0 2.01 0 1.02 0 0 Z " fill="#F6D234" transform="translate(136,102)"/>
<path d="M0 0 C0 0.66 0 1.32 0 2 C-0.99 2.33 -1.98 2.66 -3 3 C-3.474375 3.639375 -3.94875 4.27875 -4.4375 4.9375 C-6 7 -6 7 -7.9375 7.9375 C-10.7274183 9.37473064 -12.07592254 11.56283522 -14 14 C-14.66 14 -15.32 14 -16 14 C-16 14.66 -16 15.32 -16 16 C-17.32 15.67 -18.64 15.34 -20 15 C-6.05194805 0 -6.05194805 0 0 0 Z " fill="#F1BC48" transform="translate(68,32)"/>
<path d="M0 0 C0.66 0 1.32 0 2 0 C-0.5148268 6.43295473 -7.94950939 9.17528629 -13.9375 11.875 C-17 13 -17 13 -20 13 C-20 12.34 -20 11.68 -20 11 C-18.68 11 -17.36 11 -16 11 C-16 10.34 -16 9.68 -16 9 C-14.35 9 -12.7 9 -11 9 C-11 8.34 -11 7.68 -11 7 C-9 5 -9 5 -6.375 4.875 C-5.59125 4.91625 -4.8075 4.9575 -4 5 C-4 4.01 -4 3.02 -4 2 C-2.68 2 -1.36 2 0 2 C0 1.34 0 0.68 0 0 Z " fill="#F2BD4E" transform="translate(208,182)"/>
<path d="M0 0 C1.0828125 0.4640625 1.0828125 0.4640625 2.1875 0.9375 C4.80307309 1.92560539 7.25118982 2.5287754 10 3 C8.515 5.475 8.515 5.475 7 8 C7.99 8 8.98 8 10 8 C10 7.01 10 6.02 10 5 C10.99 5.33 11.98 5.66 13 6 C12.01 7.32 11.02 8.64 10 10 C8.125 9.6875 8.125 9.6875 6 9 C5.34 8.01 4.68 7.02 4 6 C0.91634129 5.7497843 0.91634129 5.7497843 -2 6 C-2 5.34 -2 4.68 -2 4 C-1.34 3.67 -0.68 3.34 0 3 C0 2.01 0 1.02 0 0 Z " fill="#4C353E" transform="translate(104,119)"/>
<path d="M0 0 C1.5 1.0625 1.5 1.0625 3 3 C3.1875 6.6875 3.1875 6.6875 3 10 C-0.36704285 10.2295711 -2.41370268 10.33943529 -5.375 8.625 C-5.91125 8.08875 -6.4475 7.5525 -7 7 C-7 6.34 -7 5.68 -7 5 C-4.36 5 -1.72 5 1 5 C0.67 3.35 0.34 1.7 0 0 Z " fill="#363C45" transform="translate(89,73)"/>
<path d="M0 0 C1.5625 1.4375 1.5625 1.4375 3 4 C2.96846324 7.05380927 2.53266629 9.99653222 2 13 C1.31292969 12.96519531 0.62585938 12.93039063 -0.08203125 12.89453125 C-0.98308594 12.86746094 -1.88414063 12.84039062 -2.8125 12.8125 C-3.70582031 12.77769531 -4.59914063 12.74289063 -5.51953125 12.70703125 C-8.41647515 13.04918998 -9.22555028 13.75393573 -11 16 C-11.33 14.68 -11.66 13.36 -12 12 C-11.01 12 -10.02 12 -9 12 C-9 11.34 -9 10.68 -9 10 C-5.7 10.33 -2.4 10.66 1 11 C0.7525 9.39125 0.7525 9.39125 0.5 7.75 C0 4 0 4 0 0 Z " fill="#4F3F21" transform="translate(91,72)"/>
<path d="M0 0 C0.99 0.33 1.98 0.66 3 1 C3.69328371 8.51827663 2.67241975 13.02597761 -2 19 C-3.98 18.67 -5.96 18.34 -8 18 C-8.33 16.68 -8.66 15.36 -9 14 C-6.03 14.495 -6.03 14.495 -3 15 C0.18502693 10.81965215 1.58742808 8.28685274 1 3 C0.67 2.01 0.34 1.02 0 0 Z " fill="#E8CE47" transform="translate(150,73)"/>
<path d="M0 0 C0.66 0 1.32 0 2 0 C2 0.66 2 1.32 2 2 C2.99 2.33 3.98 2.66 5 3 C6.1875 6.5625 6.1875 6.5625 7 10 C5.02 10.99 5.02 10.99 3 12 C2.30314502 10.3789897 1.61777139 8.75303934 0.9375 7.125 C0.55464844 6.22007813 0.17179688 5.31515625 -0.22265625 4.3828125 C-1 2 -1 2 0 0 Z " fill="#FBAC06" transform="translate(180,56)"/>
<path d="M0 0 C0.66 0 1.32 0 2 0 C2.09733092 7.09434233 2.10087193 13.98194143 1 21 C-0.65 20.67 -2.3 20.34 -4 20 C-3.71125 19.2265625 -3.4225 18.453125 -3.125 17.65625 C-0.93262995 11.50543402 0.5023392 6.53040965 0 0 Z " fill="#ECCB3A" transform="translate(141,105)"/>
<path d="M0 0 C3.3621873 3.3621873 3.72893079 4.39182345 4 9 C3.33333333 11 2.66666667 13 2 15 C2.99 16.485 2.99 16.485 4 18 C2.68 18 1.36 18 0 18 C0 12.06 0 6.12 0 0 Z " fill="#F0C05C" transform="translate(206,139)"/>
<path d="M0 0 C0 0.66 0 1.32 0 2 C0.99 2 1.98 2 3 2 C3 1.34 3 0.68 3 0 C3.66 0 4.32 0 5 0 C5 1.32 5 2.64 5 4 C6.65 3.67 8.3 3.34 10 3 C9.67 3.99 9.34 4.98 9 6 C9.99 6 10.98 6 12 6 C12 6.66 12 7.32 12 8 C8.68580508 6.94915771 5.55181035 5.7990874 2.375 4.375 C-1.01000408 2.74846874 -1.01000408 2.74846874 -5 3 C-5 2.34 -5 1.68 -5 1 C-2 0 -2 0 0 0 Z " fill="#EFCE3B" transform="translate(87,103)"/>
<path d="M0 0 C0 0.66 0 1.32 0 2 C-0.66 2 -1.32 2 -2 2 C-2 2.99 -2 3.98 -2 5 C-2.99 5 -3.98 5 -5 5 C-5 8.3 -5 11.6 -5 15 C-4.01 15.33 -3.02 15.66 -2 16 C-3.32 16 -4.64 16 -6 16 C-7.61460384 12.77079231 -7.59468691 9.49055361 -7 6 C-5.38091044 3.12430361 -3.57224448 0 0 0 Z " fill="#3F3314" transform="translate(136,69)"/>
<path d="M0 0 C0.33 0 0.66 0 1 0 C0.67 3.96 0.34 7.92 0 12 C-0.99 12 -1.98 12 -3 12 C-3 11.34 -3 10.68 -3 10 C-4.32 9.67 -5.64 9.34 -7 9 C-5.68 9 -4.36 9 -3 9 C-2.87625 8.071875 -2.7525 7.14375 -2.625 6.1875 C-2 3 -2 3 0 0 Z " fill="#FEC314" transform="translate(191,115)"/>
<path d="M0 0 C2.98205122 2.55604391 4.58490064 5.35053322 6 9 C5.1875 11.375 5.1875 11.375 4 13 C4 11.68 4 10.36 4 9 C3.01 9 2.02 9 1 9 C1 9.66 1 10.32 1 11 C0.34 11 -0.32 11 -1 11 C-1 10.01 -1 9.02 -1 8 C-0.34 7.67 0.32 7.34 1 7 C0.67 4.69 0.34 2.38 0 0 Z " fill="#F4B636" transform="translate(185,59)"/>
<path d="M0 0 C5.56890517 0.47986031 10.67067568 1.29915181 16 3 C16 3.33 16 3.66 16 4 C10.39 3.67 4.78 3.34 -1 3 C-0.67 2.01 -0.34 1.02 0 0 Z " fill="#F5BF4F" transform="translate(124,20)"/>
<path d="M0 0 C1.48828125 1.26953125 1.48828125 1.26953125 3 3 C3.1875 6.6875 3.1875 6.6875 3 10 C2.01 10.33 1.02 10.66 0 11 C-1.26026798 8.47946405 -0.91874445 7.1457902 -0.5625 4.375 C-0.46066406 3.55773437 -0.35882812 2.74046875 -0.25390625 1.8984375 C-0.17011719 1.27195313 -0.08632813 0.64546875 0 0 Z " fill="#FBAC07" transform="translate(19,141)"/>
<path d="M0 0 C-1.98 0.33 -3.96 0.66 -6 1 C-5.67 2.32 -5.34 3.64 -5 5 C-8.96 5 -12.92 5 -17 5 C-14.65117776 2.65117776 -12.72876333 1.96496976 -9.625 0.8125 C-8.66851562 0.44769531 -7.71203125 0.08289063 -6.7265625 -0.29296875 C-3.94714704 -1.01370542 -2.64891897 -0.98549829 0 0 Z " fill="#F4BE52" transform="translate(92,23)"/>
<path d="M0 0 C0 0.66 0 1.32 0 2 C-5.23880078 1.44854729 -9.97350697 0.57077907 -15 -1 C-15 -1.33 -15 -1.66 -15 -2 C-9.09846031 -3.18030794 -5.62656516 -1.87552172 0 0 Z " fill="#F5BD50" transform="translate(55,198)"/>
<path d="M0 0 C2.64836661 3.12988781 4.0048268 6.0193072 5 10 C4.625 12.375 4.625 12.375 4 14 C2 11 2 11 2 8 C1.34 8 0.68 8 0 8 C0 5.36 0 2.72 0 0 Z " fill="#F4BB49" transform="translate(191,70)"/>
<path d="M0 0 C1.3484585 3.06467841 0.91740262 4.2434449 -0.1875 7.5 C-1.84704181 10.70463246 -3.29492345 12.66803746 -6 15 C-3.10933941 4.44191344 -3.10933941 4.44191344 0 0 Z " fill="#F3BF4F" transform="translate(36,64)"/>
<path d="M0 0 C0.33 0.66 0.66 1.32 1 2 C0.01 3.485 0.01 3.485 -1 5 C-0.6878236 7.64632287 -0.6878236 7.64632287 0 10 C-2.31 10.33 -4.62 10.66 -7 11 C-5.5140084 6.40693504 -3.14985318 3.56430755 0 0 Z " fill="#F5B73F" transform="translate(47,48)"/>
<path d="M0 0 C1.16306443 3.54950034 0.92365049 6.55823948 0.5625 10.25 C0.40974609 11.86648437 0.40974609 11.86648437 0.25390625 13.515625 C0.17011719 14.33546875 0.08632813 15.1553125 0 16 C-0.99 16 -1.98 16 -3 16 C-2.52013969 10.43109483 -1.70084819 5.32932432 0 0 Z " fill="#F3C25B" transform="translate(29,80)"/>
<path d="M0 0 C5.26170694 1.41167747 8.72171358 3.74850232 13 7 C10 8 10 8 7.8125 7.0625 C7.214375 6.711875 6.61625 6.36125 6 6 C6 5.34 6 4.68 6 4 C3.03 3.505 3.03 3.505 0 3 C0 2.01 0 1.02 0 0 Z " fill="#F1BD4F" transform="translate(150,28)"/>
<path d="M0 0 C0.33 0.66 0.66 1.32 1 2 C4.3 1.67 7.6 1.34 11 1 C11.33 1.99 11.66 2.98 12 4 C8.04 4 4.08 4 0 4 C0 2.68 0 1.36 0 0 Z " fill="#E2C23C" transform="translate(129,83)"/>
<path d="M0 0 C2.93200474 2.85276137 5.64315404 5.65079784 8 9 C7.67 9.66 7.34 10.32 7 11 C6.34 10.67 5.68 10.34 5 10 C5 9.34 5 8.68 5 8 C4.34 8 3.68 8 3 8 C3 8.66 3 9.32 3 10 C2.34 10 1.68 10 1 10 C1.020625 9.0925 1.04125 8.185 1.0625 7.25 C1.0110245 4.57327412 0.7784983 2.53011948 0 0 Z " fill="#F6BD48" transform="translate(177,48)"/>
<path d="M0 0 C1.14926266 0.95421808 2.29430541 1.91352045 3.4375 2.875 C4.07558594 3.40867188 4.71367187 3.94234375 5.37109375 4.4921875 C7 6 7 6 8 8 C6.68 8 5.36 8 4 8 C3.67 8.66 3.34 9.32 3 10 C1 7 1 7 1 4 C0.6937566 2.66018514 0.36548445 1.32488113 0 0 Z " fill="#F5BE40" transform="translate(169,40)"/>
<path d="M0 0 C5.35048061 0.37328935 7.50912907 1.9957657 11 6 C8.69 5.34 6.38 4.68 4 4 C4 4.66 4 5.32 4 6 C3.01 6 2.02 6 1 6 C1.66 4.68 2.32 3.36 3 2 C2.01 1.34 1.02 0.68 0 0 Z " fill="#D15454" transform="translate(117,124)"/>
<path d="M0 0 C2.27141109 0.11402064 4.54214552 0.24158505 6.8125 0.375 C8.07707031 0.44460937 9.34164062 0.51421875 10.64453125 0.5859375 C14 1 14 1 17 3 C16.67 3.66 16.34 4.32 16 5 C15.505 4.67 15.01 4.34 14.5 4 C10.06426798 2.22570719 5.52741172 2.49086276 1 4 C0.67 2.68 0.34 1.36 0 0 Z " fill="#E7CB3E" transform="translate(74,66)"/>
<path d="M0 0 C2.475 0.99 2.475 0.99 5 2 C5 2.66 5 3.32 5 4 C6.65 4 8.3 4 10 4 C10 4.66 10 5.32 10 6 C10.66 6 11.32 6 12 6 C12 6.66 12 7.32 12 8 C2.59210526 5.00657895 2.59210526 5.00657895 0.75 1.875 C0.5025 1.25625 0.255 0.6375 0 0 Z " fill="#F3B43A" transform="translate(20,185)"/>
<path d="M0 0 C0.99 0 1.98 0 3 0 C2.67 2.31 2.34 4.62 2 7 C4.64 7 7.28 7 10 7 C10 7.33 10 7.66 10 8 C6.7 8.33 3.4 8.66 0 9 C0 6.03 0 3.06 0 0 Z " fill="#F6C65E" transform="translate(193,129)"/>
<path d="M0 0 C0.33 0 0.66 0 1 0 C1.3540919 6.51791392 1.03901852 11.17521449 -2 17 C-2.33 17 -2.66 17 -3 17 C-3 15.02 -3 13.04 -3 11 C-2.34 11 -1.68 11 -1 11 C-0.67 7.37 -0.34 3.74 0 0 Z " fill="#413723" transform="translate(140,107)"/>
<path d="M0 0 C2.64 0 5.28 0 8 0 C3.55595403 3.62107449 -0.21434368 5.33060893 -6 5 C-5.34 4.34 -4.68 3.68 -4 3 C-3.01 3 -2.02 3 -1 3 C-0.67 2.01 -0.34 1.02 0 0 Z " fill="#EACB42" transform="translate(123,108)"/>
<path d="M0 0 C2 1 2 1 2.9375 2.9375 C3.95345922 5.31971493 3.95345922 5.31971493 7 7 C6.01 7.66 5.02 8.32 4 9 C3.401875 8.236875 2.80375 7.47375 2.1875 6.6875 C0.53040668 4.6516425 -1.10297674 2.8021721 -3 1 C-2.01 0.67 -1.02 0.34 0 0 Z " fill="#4E3432" transform="translate(126,124)"/>
<path d="M0 0 C1.0725 0.2475 2.145 0.495 3.25 0.75 C2.92 1.41 2.59 2.07 2.25 2.75 C1.26 2.42 0.27 2.09 -0.75 1.75 C-1.08 2.74 -1.41 3.73 -1.75 4.75 C-4.72 4.255 -4.72 4.255 -7.75 3.75 C-5.15187156 0.32047046 -4.43092205 -0.2953948 0 0 Z " fill="#443D35" transform="translate(81.75,68.25)"/>
<path d="M0 0 C6.625 0.75 6.625 0.75 10 3 C10 3.99 10 4.98 10 6 C5.56909529 4.79157144 3.01887244 3.48331435 0 0 Z " fill="#F2B93E" transform="translate(132,194)"/>
<path d="M0 0 C3.3 0.33 6.6 0.66 10 1 C10 1.33 10 1.66 10 2 C9.38511719 2.03738281 8.77023438 2.07476562 8.13671875 2.11328125 C6.92435547 2.21189453 6.92435547 2.21189453 5.6875 2.3125 C4.88699219 2.37050781 4.08648437 2.42851563 3.26171875 2.48828125 C0.63727666 3.08206694 -0.30820672 3.95780294 -2 6 C-2.33 4.68 -2.66 3.36 -3 2 C-2.01 2 -1.02 2 0 2 C0 1.34 0 0.68 0 0 Z " fill="#423E27" transform="translate(82,82)"/>
<path d="M0 0 C0.66 0.33 1.32 0.66 2 1 C2 1.66 2 2.32 2 3 C-0.3125 4.6875 -0.3125 4.6875 -3 6 C-3.99 5.67 -4.98 5.34 -6 5 C-5.34 4.67 -4.68 4.34 -4 4 C-4.66 3.34 -5.32 2.68 -6 2 C-2.25 0.875 -2.25 0.875 0 2 C0 1.34 0 0.68 0 0 Z " fill="#DD593A" transform="translate(128,131)"/>
<path d="M0 0 C0.99 0.495 0.99 0.495 2 1 C4.3329866 1.04022391 6.66706666 1.04320247 9 1 C8.34 2.32 7.68 3.64 7 5 C4.03 4.505 4.03 4.505 1 4 C0.67 2.68 0.34 1.36 0 0 Z " fill="#ECCA36" transform="translate(141,87)"/>
<path d="M0 0 C3 3 3 3 3.3125 6.0625 C3 9 3 9 1 11 C0.67 7.37 0.34 3.74 0 0 Z " fill="#F1C660" transform="translate(209,171)"/>
<path d="M0 0 C0.66 0.33 1.32 0.66 2 1 C0.71186658 1.83878455 -0.58063256 2.67086783 -1.875 3.5 C-2.59429687 3.9640625 -3.31359375 4.428125 -4.0546875 4.90625 C-6 6 -6 6 -8 6 C-8 5.34 -8 4.68 -8 4 C-6.71349294 3.30289269 -5.42059335 2.61757124 -4.125 1.9375 C-3.40570313 1.55464844 -2.68640625 1.17179688 -1.9453125 0.77734375 C-1.30335938 0.52082031 -0.66140625 0.26429688 0 0 Z " fill="#FEC112" transform="translate(190,156)"/>
<path d="M0 0 C0.99 0.66 1.98 1.32 3 2 C1.5682384 2.69937202 0.12932968 3.38412718 -1.3125 4.0625 C-2.51326172 4.63677734 -2.51326172 4.63677734 -3.73828125 5.22265625 C-6 6 -6 6 -9 5 C-8.43410156 4.72285156 -7.86820313 4.44570312 -7.28515625 4.16015625 C-6.55167969 3.79792969 -5.81820312 3.43570313 -5.0625 3.0625 C-3.96615234 2.52302734 -3.96615234 2.52302734 -2.84765625 1.97265625 C-1.03750973 1.13628173 -1.03750973 1.13628173 0 0 Z " fill="#FEBB0D" transform="translate(193,184)"/>
<path d="M0 0 C0.66 0.33 1.32 0.66 2 1 C1.67 1.66 1.34 2.32 1 3 C0.01 3 -0.98 3 -2 3 C-1.67 3.99 -1.34 4.98 -1 6 C-2.32 6 -3.64 6 -5 6 C-3.63016497 2.83884224 -3.0109362 2.0072908 0 0 Z " fill="#FEC532" transform="translate(128,134)"/>
<path d="M0 0 C0.66 0 1.32 0 2 0 C2 0.66 2 1.32 2 2 C1.34 2 0.68 2 0 2 C0 2.99 0 3.98 0 5 C-0.99 5 -1.98 5 -3 5 C-3 5.66 -3 6.32 -3 7 C-3.66 6.67 -4.32 6.34 -5 6 C-3.38405168 3.95880212 -1.7143618 1.95927063 0 0 Z " fill="#4C391F" transform="translate(134,69)"/>
<path d="" fill="#FFFFFF" transform="translate(0,0)"/>
<path d="" fill="#FFFFFF" transform="translate(0,0)"/>
<path d="" fill="#FFFFFF" transform="translate(0,0)"/>
<path d="" fill="#FFFFFF" transform="translate(0,0)"/>
<path d="" fill="#FFFFFF" transform="translate(0,0)"/>
<path d="" fill="#FFFFFF" transform="translate(0,0)"/>
<path d="" fill="#FFFFFF" transform="translate(0,0)"/>
<path d="" fill="#FFFFFF" transform="translate(0,0)"/>
<path d="" fill="#FFFFFF" transform="translate(0,0)"/>
<path d="" fill="#FFFFFF" transform="translate(0,0)"/>
<path d="" fill="#FFFFFF" transform="translate(0,0)"/>
<path d="" fill="#FFFFFF" transform="translate(0,0)"/>
<path d="" fill="#FFFFFF" transform="translate(0,0)"/>
<path d="" fill="#FFFFFF" transform="translate(0,0)"/>
<path d="" fill="#FFFFFF" transform="translate(0,0)"/>
<path d="" fill="#FFFFFF" transform="translate(0,0)"/>
<path d="" fill="#FFFFFF" transform="translate(0,0)"/>
<path d="" fill="#FFFFFF" transform="translate(0,0)"/>
<path d="" fill="#FFFFFF" transform="translate(0,0)"/>
<path d="" fill="#FFFFFF" transform="translate(0,0)"/>
<path d="" fill="#FFFFFF" transform="translate(0,0)"/>
<path d="" fill="#FFFFFF" transform="translate(0,0)"/>
<path d="" fill="#FFFFFF" transform="translate(0,0)"/>
<path d="" fill="#FFFFFF" transform="translate(0,0)"/>
<path d="" fill="#FFFFFF" transform="translate(0,0)"/>
<path d="" fill="#FFFFFF" transform="translate(0,0)"/>
<path d="" fill="#FFFFFF" transform="translate(0,0)"/>
<path d="" fill="#FFFFFF" transform="translate(0,0)"/>
<path d="" fill="#FFFFFF" transform="translate(0,0)"/>
<path d="" fill="#FFFFFF" transform="translate(0,0)"/>
<path d="" fill="#FFFFFF" transform="translate(0,0)"/>
<path d="" fill="#FFFFFF" transform="translate(0,0)"/>
<path d="" fill="#FFFFFF" transform="translate(0,0)"/>
</svg>
