<?xml version="1.0" encoding="UTF-8"?>
<svg version="1.1" xmlns="http://www.w3.org/2000/svg" width="259" height="194">
<path d="M0 0 C2.85475306 -0.08156437 5.70713565 -0.14076372 8.5625 -0.1875 C9.36236328 -0.21263672 10.16222656 -0.23777344 10.98632812 -0.26367188 C16.42894777 -0.3303162 20.23928294 0.2734632 25 3 C27.62668238 6.48088804 27.17205827 9.66072112 26.625 13.8046875 C25.67331899 17.14746704 23.66200247 18.88404932 21 21 C21.639375 21.53625 22.27875 22.0725 22.9375 22.625 C25.49806095 25.57352473 25.92367544 27.10744759 26 31 C24.49350039 35.59878829 22.86211451 39.02065452 19 42 C13.6828526 44.31646267 8.80729355 44.23624972 3.125 44.125 C2.24585937 44.11597656 1.36671875 44.10695312 0.4609375 44.09765625 C-1.6928271 44.07424577 -3.84645014 44.0383801 -6 44 C-4.47752047 29.23700719 -2.89642195 14.56427774 0 0 Z M8 8 C7.67 11.3 7.34 14.6 7 18 C12.58500567 17.80101292 12.58500567 17.80101292 17 15 C17.25005386 11.95817107 17.25005386 11.95817107 17 9 C16.01732141 7.79438816 16.01732141 7.79438816 14.15234375 7.90234375 C12.1015625 7.93489583 10.05078125 7.96744792 8 8 Z M6 25 C5.66550467 26.64559756 5.33243501 28.29148498 5 29.9375 C4.814375 30.85402344 4.62875 31.77054688 4.4375 32.71484375 C3.96866036 34.77591702 3.96866036 34.77591702 4 36 C9.4159661 36.35144861 9.4159661 36.35144861 14.5 34.875 C16.27259608 32.99568302 16.27259608 32.99568302 16.375 29.9375 C16.28930236 26.88138759 16.28930236 26.88138759 14 25 C11.31160615 24.73008094 8.70858064 24.91262643 6 25 Z " fill="#1C9BD3" transform="translate(102,93)"/>
<path d="M0 0 C0.125 5.75 0.125 5.75 -1 8 C-2.19496094 7.73123047 -2.19496094 7.73123047 -3.4140625 7.45703125 C-9.98782173 6.11592908 -9.98782173 6.11592908 -16.5625 6.875 C-21.7613724 11.40735029 -22.48868129 18.08972073 -23.015625 24.65625 C-22.99514639 27.72804154 -22.24863348 30.20893693 -21 33 C-16.46859347 33.93380961 -16.46859347 33.93380961 -12 33 C-11.67 30.69 -11.34 28.38 -11 26 C-12.65 25.67 -14.3 25.34 -16 25 C-16.04241723 22.66705225 -16.04092937 20.33297433 -16 18 C-15 17 -15 17 -11.83984375 16.90234375 C-10.55207031 16.91394531 -9.26429687 16.92554687 -7.9375 16.9375 C-6.64714844 16.94652344 -5.35679688 16.95554687 -4.02734375 16.96484375 C-3.02832031 16.97644531 -2.02929688 16.98804687 -1 17 C-1.24787082 22.00959978 -1.58512699 27.00128623 -2 32 C-2.09667969 33.32257813 -2.09667969 33.32257813 -2.1953125 34.671875 C-2.5 36.75 -2.5 36.75 -4 40 C-9.23399904 43.28672628 -15.9755252 43.85091452 -22 43 C-25.5821971 41.60692335 -28.73694495 40.16827707 -31 37 C-34.66579456 27.73904532 -33.87756418 17.08890045 -30 8 C-26.72066618 2.7513308 -22.9587398 -0.82760398 -16.96875 -2.6015625 C-10.46552183 -3.91769201 -5.93234952 -2.49783138 0 0 Z " fill="#179ED9" transform="translate(94,95)"/>
<path d="M0 0 C2.97 0 5.94 0 9 0 C11 4 13 8 15 12 C17.73627429 8.70911604 17.73627429 8.70911604 20.02734375 5.109375 C21.21246351 3.03436105 22.16843228 1.5474343 24 0 C27.40894008 -0.59695725 30.57644372 -0.41880397 34 0 C32.20776881 5.65910577 28.42030162 9.85265595 24.72460938 14.38476562 C21.70198946 18.25227001 21.70198946 18.25227001 20.9453125 22.9921875 C22.24500641 26.69872198 23.80865686 30.17634077 25.5625 33.6875 C29 40.60958904 29 40.60958904 29 44 C26.03 44 23.06 44 20 44 C18.99515796 42.04414675 17.99626195 40.08523763 17 38.125 C16.443125 37.03445312 15.88625 35.94390625 15.3125 34.8203125 C14 32 14 32 14 30 C10.93676496 32.83780216 8.96676314 35.65511058 6.875 39.25 C3.81031189 43.80363245 3.81031189 43.80363245 0.32421875 44.6484375 C-2.18919982 44.62710722 -4.5287459 44.4475108 -7 44 C-5.11641615 37.95333593 -0.87860322 33.19734784 2.91992188 28.23828125 C3.45552734 27.50996094 3.99113281 26.78164062 4.54296875 26.03125 C5.03821045 25.37705078 5.53345215 24.72285156 6.04370117 24.04882812 C7.32477168 21.30419099 6.86541585 19.85575837 6 17 C4.51455692 13.63820776 2.89797018 10.35704518 1.27734375 7.05859375 C0 4 0 4 0 0 Z " fill="#1B9BD6" transform="translate(29,93)"/>
<path d="M0 0 C3.19531348 2.15497886 4.32828916 3.18793775 5.6875 6.8125 C6.63732984 15.21585571 5.47249847 22.36342947 0.375 29.1875 C-3.11564888 32.596971 -5.62034235 33.77914583 -10.51953125 33.83984375 C-15.54144329 33.51504347 -18.83895372 32.7070822 -22.3125 28.8125 C-25.2147128 23.40383069 -24.45572635 17.65289548 -23.3125 11.8125 C-21.52274767 6.4875438 -19.12055406 2.89458594 -14.3125 -0.1875 C-9.25449996 -1.87350001 -4.94491784 -1.77270639 0 0 Z M-11.4140625 7.40234375 C-13.78095907 10.40723096 -14.16427075 12.60517611 -14.6875 16.375 C-14.86023438 17.51066406 -15.03296875 18.64632812 -15.2109375 19.81640625 C-15.61000672 22.99735816 -15.61000672 22.99735816 -13.3125 25.8125 C-9.8475 25.3175 -9.8475 25.3175 -6.3125 24.8125 C-4.25784778 19.41903792 -2.60898 14.67516665 -3.3125 8.8125 C-4.48134106 6.80765224 -4.48134106 6.80765224 -6.3125 5.8125 C-9.35294511 5.51084236 -9.35294511 5.51084236 -11.4140625 7.40234375 Z " fill="#2099CD" transform="translate(182.3125,104.1875)"/>
<path d="M0 0 C3.05052349 2.05732979 4.07174883 3.53443422 5.6875 6.8125 C6.63797764 13.56834598 6.38348215 20.90682034 2.6875 26.8125 C-0.51848755 30.78305911 -3.73072465 33.05983467 -8.8125 33.875 C-13.43378616 34.08792615 -16.34739595 33.19156243 -20.3125 30.8125 C-24.31229302 25.42025567 -23.92483012 20.2713245 -23.3125 13.8125 C-21.9559148 7.39763977 -18.76651017 3.31367978 -13.5 -0.5 C-8.70832987 -2.00595347 -4.62116774 -1.65664504 0 0 Z M-9.3125 5.8125 C-13.64524633 10.40011376 -14.45568429 13.84461799 -14.4375 20 C-14.44007813 20.88042969 -14.44265625 21.76085937 -14.4453125 22.66796875 C-14.55115033 24.79453191 -14.55115033 24.79453191 -13.3125 25.8125 C-10.3967309 26.22952122 -10.3967309 26.22952122 -7.3125 25.8125 C-3.49274739 22.124463 -3.1538577 17.78830513 -3.0625 12.6875 C-3.03671875 11.81867188 -3.0109375 10.94984375 -2.984375 10.0546875 C-3.09265625 9.31476563 -3.2009375 8.57484375 -3.3125 7.8125 C-6.12759993 5.5351499 -6.12759993 5.5351499 -9.3125 5.8125 Z " fill="#189CD9" transform="translate(152.3125,104.1875)"/>
<path d="M0 0 C0.9590625 -0.00257812 1.918125 -0.00515625 2.90625 -0.0078125 C5.5 0.125 5.5 0.125 8.5 1.125 C8.17 3.435 7.84 5.745 7.5 8.125 C3.87 8.125 0.24 8.125 -3.5 8.125 C-3.83 9.445 -4.16 10.765 -4.5 12.125 C-3.613125 12.3725 -2.72625 12.62 -1.8125 12.875 C1.78910922 14.23409782 3.88796431 15.28907554 6.5 18.125 C8.07354992 22.40651954 7.87780108 25.29068929 6 29.4375 C2.21217057 33.50941664 -0.96273007 34.97112244 -6.3984375 35.30078125 C-9.10671166 35.31122447 -11.79524625 35.2570585 -14.5 35.125 C-14.5 34.465 -14.5 33.805 -14.5 33.125 C-15.16 33.125 -15.82 33.125 -16.5 33.125 C-16.17 30.485 -15.84 27.845 -15.5 25.125 C-14.81292969 25.29257813 -14.12585938 25.46015625 -13.41796875 25.6328125 C-12.51691406 25.83648437 -11.61585938 26.04015625 -10.6875 26.25 C-9.34751953 26.56324219 -9.34751953 26.56324219 -7.98046875 26.8828125 C-5.24753366 27.41380522 -5.24753366 27.41380522 -2.5 25.125 C-2.5 24.465 -2.5 23.805 -2.5 23.125 C-3.11488281 22.82207031 -3.72976562 22.51914063 -4.36328125 22.20703125 C-12.95758355 17.75224936 -12.95758355 17.75224936 -14.5 13.125 C-14.5 8.65632145 -13.98810609 6.71586526 -11.125 3.25 C-7.37515902 0.21441444 -4.68143714 -0.01258451 0 0 Z " fill="#2398CD" transform="translate(205.5,102.875)"/>
<path d="M0 0 C-0.33 2.97 -0.66 5.94 -1 9 C1.64 9 4.28 9 7 9 C6.125 15.875 6.125 15.875 5 17 C3.02 17 1.04 17 -1 17 C-1.99 22.94 -2.98 28.88 -4 35 C-0.535 34.505 -0.535 34.505 3 34 C3 36.31 3 38.62 3 41 C-1.70682346 43.50049996 -4.92850351 43.0633783 -10 42 C-11.72265625 40.796875 -11.72265625 40.796875 -13 39 C-14.04533627 31.61520503 -12.77770515 24.17431007 -11 17 C-12.65 16.67 -14.3 16.34 -16 16 C-15.67 13.69 -15.34 11.38 -15 9 C-13.35 9 -11.7 9 -10 9 C-9.67 6.36 -9.34 3.72 -9 1 C-5.92677456 0.08941469 -3.19902639 -0.08886184 0 0 Z " fill="#1D9AD2" transform="translate(231,95)"/>
<path d="M0 0 C0.66 0.66 1.32 1.32 2 2 C2.70125 1.484375 3.4025 0.96875 4.125 0.4375 C7.63011434 -1.31505717 9.2927059 -1.09533689 13 0 C16.14970959 6.29941917 13.22272971 15.44966227 12 22 C10.35 22 8.7 22 7 22 C6.90293888 15.88514973 7.22959149 10.06696699 8 4 C6.00273843 4.66888087 6.00273843 4.66888087 4 6 C2.93854627 8.19107448 2.93854627 8.19107448 2.375 10.75 C2.13910156 11.63945313 1.90320313 12.52890625 1.66015625 13.4453125 C1.44230469 14.28835937 1.22445312 15.13140625 1 16 C0.34370484 18.00342734 -0.31760646 20.00531118 -1 22 C-2.65 21.67 -4.3 21.34 -6 21 C-5.67 15.72 -5.34 10.44 -5 5 C-9.04268757 6.46126752 -9.04268757 6.46126752 -9.7578125 8.953125 C-9.87898438 9.71109375 -10.00015625 10.4690625 -10.125 11.25 C-10.79878746 14.97387893 -11.71781204 18.4281907 -13 22 C-14.65 21.67 -16.3 21.34 -18 21 C-17.01 14.07 -16.02 7.14 -15 0 C-12.66666667 0 -10.33333333 0 -8 0 C-5.09288879 -1.4535556 -3.10402897 -0.71133997 0 0 Z " fill="#707070" transform="translate(63,65)"/>
<path d="M0 0 C1.2065625 0.0309375 1.2065625 0.0309375 2.4375 0.0625 C1.95279965 10.60891106 0.42975129 20.71281721 -1.5625 31.0625 C-6.4375 30.1875 -6.4375 30.1875 -7.5625 29.0625 C-8.2225 29.7225 -8.8825 30.3825 -9.5625 31.0625 C-14.82458651 31.62229644 -14.82458651 31.62229644 -17.375 29.6875 C-19.97817033 26.12526692 -19.84955161 23.44003713 -19.5625 19.0625 C-16.82336957 11.23641304 -16.82336957 11.23641304 -13.5625 9.0625 C-9.96209537 8.16239884 -8.11223169 7.8792561 -4.5625 9.0625 C-4.418125 7.763125 -4.27375 6.46375 -4.125 5.125 C-3.56521739 0.08695652 -3.56521739 0.08695652 0 0 Z M-10.5625 13.0625 C-13.82454794 16.9070565 -13.85105285 20.1571016 -13.5625 25.0625 C-11.0875 25.5575 -11.0875 25.5575 -8.5625 26.0625 C-6.10242944 22.42587396 -4.85641187 19.47117812 -4.5625 15.0625 C-5.2225 14.4025 -5.8825 13.7425 -6.5625 13.0625 C-7.8825 13.0625 -9.2025 13.0625 -10.5625 13.0625 Z " fill="#727272" transform="translate(43.5625,55.9375)"/>
<path d="M0 0 C3.06315701 2.06585008 4.08946494 3.50493906 5.6875 6.8125 C5.98046875 9.92578125 5.98046875 9.92578125 5.875 13.125 C5.84792969 14.19363281 5.82085937 15.26226562 5.79296875 16.36328125 C5.75816406 17.17152344 5.72335938 17.97976562 5.6875 18.8125 C4.6975 18.4825 3.7075 18.1525 2.6875 17.8125 C3.0175 13.8525 3.3475 9.8925 3.6875 5.8125 C2.0375 6.1425 0.3875 6.4725 -1.3125 6.8125 C-1.30089844 7.47636719 -1.28929687 8.14023438 -1.27734375 8.82421875 C-1.18771968 17.59457381 -1.18771968 17.59457381 -2.3125 21.8125 C-2.9725 21.8125 -3.6325 21.8125 -4.3125 21.8125 C-4.456875 22.451875 -4.60125 23.09125 -4.75 23.75 C-5.3125 25.8125 -5.3125 25.8125 -6.3125 26.8125 C-8.125 26.9453125 -8.125 26.9453125 -10.3125 26.9375 C-11.034375 26.94007813 -11.75625 26.94265625 -12.5 26.9453125 C-14.3125 26.8125 -14.3125 26.8125 -15.3125 25.8125 C-15.54903523 23.28653741 -15.73423692 20.78142793 -15.875 18.25 C-15.91818359 17.53908203 -15.96136719 16.82816406 -16.00585938 16.09570312 C-16.11221777 14.33488088 -16.21288846 12.5737168 -16.3125 10.8125 C-17.3025 11.4725 -18.2925 12.1325 -19.3125 12.8125 C-20.3025 12.8125 -21.2925 12.8125 -22.3125 12.8125 C-21.85875711 7.93476395 -20.79072112 5.29072112 -17.3125 1.8125 C-11.54816505 -1.98672077 -6.37658044 -2.28594393 0 0 Z M-9.3125 5.8125 C-13.64524633 10.40011376 -14.45568429 13.84461799 -14.4375 20 C-14.44007813 20.88042969 -14.44265625 21.76085937 -14.4453125 22.66796875 C-14.55115033 24.79453191 -14.55115033 24.79453191 -13.3125 25.8125 C-10.3967309 26.22952122 -10.3967309 26.22952122 -7.3125 25.8125 C-3.49274739 22.124463 -3.1538577 17.78830513 -3.0625 12.6875 C-3.03671875 11.81867188 -3.0109375 10.94984375 -2.984375 10.0546875 C-3.09265625 9.31476563 -3.2009375 8.57484375 -3.3125 7.8125 C-6.12759993 5.5351499 -6.12759993 5.5351499 -9.3125 5.8125 Z " fill="#2196CC" transform="translate(152.3125,104.1875)"/>
<path d="M0 0 C1.2375 0.7425 1.2375 0.7425 2.5 1.5 C-0.70015856 2.56671952 -2.38544294 2.44845472 -5.6875 2.0625 C-6.58855469 1.96066406 -7.48960937 1.85882813 -8.41796875 1.75390625 C-9.10503906 1.67011719 -9.79210937 1.58632812 -10.5 1.5 C-10.5 2.49 -10.5 3.48 -10.5 4.5 C-8.85 4.5 -7.2 4.5 -5.5 4.5 C-5.17 5.16 -4.84 5.82 -4.5 6.5 C-6.81 6.83 -9.12 7.16 -11.5 7.5 C-13.70399168 12.05491614 -14.08846263 16.52906176 -14.5 21.5 C-15.49 21.5 -16.48 21.5 -17.5 21.5 C-17.625 13.75 -17.625 13.75 -16.5 11.5 C-18.15 12.16 -19.8 12.82 -21.5 13.5 C-21.52686553 15.47909398 -21.54633375 17.45828971 -21.5625 19.4375 C-21.57410156 20.53964844 -21.58570313 21.64179687 -21.59765625 22.77734375 C-21.81262571 25.41447634 -21.81262571 25.41447634 -20.5 26.5 C-19.15252916 26.73075082 -17.79622435 26.91153063 -16.4375 27.0625 C-15.138125 27.206875 -13.83875 27.35125 -12.5 27.5 C-12.995 29.975 -12.995 29.975 -13.5 32.5 C-12.01800098 32.05090939 -10.53944764 31.59043436 -9.0625 31.125 C-8.23878906 30.86976563 -7.41507813 30.61453125 -6.56640625 30.3515625 C-4.32201984 29.69117773 -4.32201984 29.69117773 -3.5 27.5 C-2.18 27.83 -0.86 28.16 0.5 28.5 C-3.35711739 32.48568797 -6.72199863 33.26778116 -12.0625 33.6015625 C-16.44727618 33.41886349 -19.17142845 31.73694592 -22.3125 28.8125 C-25.65779762 22.29797305 -24.61355126 15.24754065 -22.5 8.5 C-17.58766591 -0.50594584 -9.72328802 -4.16712344 0 0 Z " fill="#239ACE" transform="translate(182.5,104.5)"/>
<path d="M0 0 C3.14970959 6.29941917 0.22272971 15.44966227 -1 22 C-2.65 22 -4.3 22 -6 22 C-6.09706112 15.88514973 -5.77040851 10.06696699 -5 4 C-6.99726157 4.66888087 -6.99726157 4.66888087 -9 6 C-10.06145373 8.19107448 -10.06145373 8.19107448 -10.625 10.75 C-10.86089844 11.63945313 -11.09679687 12.52890625 -11.33984375 13.4453125 C-11.55769531 14.28835937 -11.77554688 15.13140625 -12 16 C-12.65629516 18.00342734 -13.31760646 20.00531118 -14 22 C-15.65 21.67 -17.3 21.34 -19 21 C-18.67 17.7 -18.34 14.4 -18 11 C-17.34 11.33 -16.68 11.66 -16 12 C-16 13.98 -16 15.96 -16 18 C-15.67 18 -15.34 18 -15 18 C-14.5186659 16.27143541 -14.04003029 14.54211929 -13.5625 12.8125 C-13.29566406 11.84957031 -13.02882813 10.88664062 -12.75390625 9.89453125 C-11.96555016 7.04253753 -11.96555016 7.04253753 -11.5390625 4.25390625 C-11 2 -11 2 -8.8125 0.125 C-5.38354349 -1.2465826 -3.51082154 -1.03728818 0 0 Z " fill="#626365" transform="translate(76,65)"/>
<path d="M0 0 C0.66 0.33 1.32 0.66 2 1 C2 2.65 2 4.3 2 6 C-0.31 6 -2.62 6 -5 6 C-7.32590854 9.63423209 -7.16265833 12.77088331 -7 17 C-4.69 17.33 -2.38 17.66 0 18 C-0.33 19.65 -0.66 21.3 -1 23 C-9.01284109 23.77046549 -9.01284109 23.77046549 -12.5625 21 C-14.3701766 17.22745752 -14.65540304 14.06829447 -14 10 C-11.46110081 3.0514338 -7.63847099 -0.848719 0 0 Z " fill="#706F6F" transform="translate(100,64)"/>
<path d="M0 0 C-0.33 3.3 -0.66 6.6 -1 10 C-0.34 10 0.32 10 1 10 C1 11.65 1 13.3 1 15 C4.07394395 14.9291124 7.00895966 14.73977688 10 14 C12.04418684 11.73280255 12.04418684 11.73280255 13 9 C13.66 8.01 14.32 7.02 15 6 C17 8 17 8 17.1953125 9.9453125 C17.13020833 11.96354167 17.06510417 13.98177083 17 16 C15.68 16 14.36 16 13 16 C12.67 16.99 12.34 17.98 12 19 C8.67908998 20.70533217 6.81507216 21 3 21 C3 19.68 3 18.36 3 17 C1.88625 16.87625 0.7725 16.7525 -0.375 16.625 C-4 16 -4 16 -6 14 C-6.1953125 10.9609375 -6.1953125 10.9609375 -6.125 7.375 C-6.10695312 6.18648438 -6.08890625 4.99796875 -6.0703125 3.7734375 C-6.04710937 2.85820313 -6.02390625 1.94296875 -6 1 C-3.92446352 0.4465236 -2.15634036 0 0 0 Z " fill="#189DDC" transform="translate(166,116)"/>
<path d="M0 0 C1.65 0 3.3 0 5 0 C3.59836066 28.40163934 3.59836066 28.40163934 1 31 C-0.66617115 31.04063832 -2.33388095 31.042721 -4 31 C-3.51529965 20.45358894 -1.99225129 10.34968279 0 0 Z " fill="#777777" transform="translate(82,56)"/>
<path d="M0 0 C0.33 0.99 0.66 1.98 1 3 C1.66 3.33 2.32 3.66 3 4 C2.67 4.99 2.34 5.98 2 7 C2.66 7 3.32 7 4 7 C4 8.98 4 10.96 4 13 C3.01 13.33 2.02 13.66 1 14 C0.67 14.99 0.34 15.98 0 17 C-0.99 17 -1.98 17 -3 17 C-2.67 16.01 -2.34 15.02 -2 14 C-1.34 13.67 -0.68 13.34 0 13 C-0.66 12.67 -1.32 12.34 -2 12 C-2.625 9.4375 -2.625 9.4375 -3 7 C-8.324335 4.67913603 -12.43842552 5.08542997 -18 6 C-18 6.99 -18 7.98 -18 9 C-18.99 9.495 -18.99 9.495 -20 10 C-20.09765625 3.84765625 -20.09765625 3.84765625 -20 2 C-18.45049732 0.45049732 -16.90009406 0.78344807 -14.74609375 0.68359375 C-13.89208984 0.64169922 -13.03808594 0.59980469 -12.15820312 0.55664062 C-11.26037109 0.51732422 -10.36253906 0.47800781 -9.4375 0.4375 C-8.08495117 0.37272461 -8.08495117 0.37272461 -6.70507812 0.30664062 C-4.47021515 0.20021858 -2.23523692 0.09820012 0 0 Z " fill="#179EDB" transform="translate(123,94)"/>
<path d="M0 0 C2.97 0.495 2.97 0.495 6 1 C6 2.65 6 4.3 6 6 C6.66 6.33 7.32 6.66 8 7 C8.33 7.66 8.66 8.32 9 9 C10.88764903 9.68472665 10.88764903 9.68472665 13.0625 10.125 C14.16271484 10.37636719 14.16271484 10.37636719 15.28515625 10.6328125 C15.85105469 10.75398437 16.41695312 10.87515625 17 11 C13.46019786 14.40295412 9.93347893 14.5325645 5.25 14.6875 C4.20392578 14.73874023 4.20392578 14.73874023 3.13671875 14.79101562 C1.42502892 14.87308295 -0.2874576 14.93822919 -2 15 C-1.125 7.25 -1.125 7.25 0 5 C0.0396713 3.33380554 0.04384447 1.66608987 0 0 Z M17 9 C19.475 9.495 19.475 9.495 22 10 C22 10.66 22 11.32 22 12 C20.35 11.67 18.7 11.34 17 11 C17 10.34 17 9.68 17 9 Z " fill="#189EDA" transform="translate(99,121)"/>
<path d="M0 0 C2.5625 1.625 2.5625 1.625 3.5625 3.625 C2.799375 3.315625 2.03625 3.00625 1.25 2.6875 C-3.61064841 1.28697419 -8.40608173 0.96520266 -13.4375 0.625 C-13.4375 1.285 -13.4375 1.945 -13.4375 2.625 C-14.7575 2.955 -16.0775 3.285 -17.4375 3.625 C-17.1075 4.285 -16.7775 4.945 -16.4375 5.625 C-15.4475 5.625 -14.4575 5.625 -13.4375 5.625 C-13.1075 4.965 -12.7775 4.305 -12.4375 3.625 C-11.7775 3.955 -11.1175 4.285 -10.4375 4.625 C-9.10889075 4.97669068 -7.77591672 5.31270276 -6.4375 5.625 C-7.22125 5.99625 -8.005 6.3675 -8.8125 6.75 C-12.21827353 9.18269538 -12.61966848 10.53584238 -13.4375 14.625 C-13.58233874 17.96628 -13.55637296 21.283349 -13.4375 24.625 C-9.18018432 25.03249675 -9.18018432 25.03249675 -5.5625 23.125 C-5.19125 22.63 -4.82 22.135 -4.4375 21.625 C-5.3125 25.5 -5.3125 25.5 -6.4375 26.625 C-8.25 26.7578125 -8.25 26.7578125 -10.4375 26.75 C-11.159375 26.75257813 -11.88125 26.75515625 -12.625 26.7578125 C-14.4375 26.625 -14.4375 26.625 -15.4375 25.625 C-15.67403523 23.09903741 -15.85923692 20.59392793 -16 18.0625 C-16.04318359 17.35158203 -16.08636719 16.64066406 -16.13085938 15.90820312 C-16.23721777 14.14738088 -16.33788846 12.3862168 -16.4375 10.625 C-17.4275 11.285 -18.4175 11.945 -19.4375 12.625 C-20.4275 12.625 -21.4175 12.625 -22.4375 12.625 C-21.98375711 7.74726395 -20.91572112 5.10322112 -17.4375 1.625 C-11.61060352 -2.2154545 -6.37220453 -2.54888181 0 0 Z " fill="#2696C6" transform="translate(152.4375,104.375)"/>
<path d="M0 0 C1.65 0 3.3 0 5 0 C4.73290484 3.82836401 4.23114937 5.70941223 1.8125 8.75 C-3.98848102 13.39078481 -9.77729055 13.26396118 -16.875 13.125 C-17.75414063 13.11597656 -18.63328125 13.10695312 -19.5390625 13.09765625 C-21.6928271 13.07424577 -23.84645014 13.0383801 -26 13 C-25.67 12.01 -25.34 11.02 -25 10 C-25 10.66 -25 11.32 -25 12 C-22.54006972 11.7186941 -20.08259752 11.42547269 -17.625 11.125 C-16.92632812 11.04636719 -16.22765625 10.96773437 -15.5078125 10.88671875 C-11.30927841 10.44779555 -11.30927841 10.44779555 -8 8 C-10.64 7.67 -13.28 7.34 -16 7 C-13.81403638 4.81403638 -12.92654486 4.57768169 -10 3.9375 C-7.78779893 3.44544792 -6.03349727 3.01674863 -4 2 C-2.02 3.32 -0.04 4.64 2 6 C1.34 5.01 0.68 4.02 0 3 C0 2.01 0 1.02 0 0 Z M-6 6 C-5.67 6.99 -5.34 7.98 -5 9 C-3.68 9 -2.36 9 -1 9 C-1 8.34 -1 7.68 -1 7 C-2.65 6.67 -4.3 6.34 -6 6 Z " fill="#2595C6" transform="translate(122,124)"/>
<path d="M0 0 C0.125 5.75 0.125 5.75 -1 8 C-2.93798521 7.69052329 -4.87537426 7.37731166 -6.8125 7.0625 C-7.89144531 6.88847656 -8.97039062 6.71445313 -10.08203125 6.53515625 C-13 6 -13 6 -16 5 C-15 4 -15 4 -12.27734375 3.90234375 C-10.62412109 3.91974609 -10.62412109 3.91974609 -8.9375 3.9375 C-7.83277344 3.94652344 -6.72804688 3.95554687 -5.58984375 3.96484375 C-4.73519531 3.97644531 -3.88054687 3.98804687 -3 4 C-3 3.01 -3 2.02 -3 1 C-9.51972425 0.01135329 -14.74028304 -0.27626071 -21 2 C-21.33 2.99 -21.66 3.98 -22 5 C-26.31818182 9.77272727 -26.31818182 9.77272727 -30 11 C-30.33 11.66 -30.66 12.32 -31 13 C-30.19413302 7.1447133 -27.33621864 3.85998653 -23 0 C-15.1907209 -4.61526867 -8.0016107 -3.36909924 0 0 Z " fill="#2A92BE" transform="translate(94,95)"/>
<path d="M0 0 C-0.11409593 1.45922693 -0.24165544 2.91740598 -0.375 4.375 C-0.44460937 5.18710938 -0.51421875 5.99921875 -0.5859375 6.8359375 C-1 9 -1 9 -3 11 C-5 11.66666667 -7 12.33333333 -9 13 C-9.66 13.66 -10.32 14.32 -11 15 C-11 14.34 -11 13.68 -11 13 C-11.66 13 -12.32 13 -13 13 C-13.33 12.01 -13.66 11.02 -14 10 C-14 11.98 -14 13.96 -14 16 C-13.34 16.33 -12.68 16.66 -12 17 C-13.32 16.67 -14.64 16.34 -16 16 C-15.67 13.69 -15.34 11.38 -15 9 C-13.35 9 -11.7 9 -10 9 C-9.67 6.36 -9.34 3.72 -9 1 C-5.92677456 0.08941469 -3.19902639 -0.08886184 0 0 Z " fill="#1E9CD5" transform="translate(231,95)"/>
<path d="M0 0 C2.97 0 5.94 0 9 0 C11.26609984 4.53219967 10.92735976 6.17772925 10 11 C9.01 11 8.02 11 7 11 C6.67 11.99 6.34 12.98 6 14 C6.66 14 7.32 14 8 14 C8 15.65 8 17.3 8 19 C5.58981892 16.0031766 3.91085309 12.99429744 2.3125 9.5 C1.87550781 8.5615625 1.43851563 7.623125 0.98828125 6.65625 C0 4 0 4 0 0 Z " fill="#1B9AD3" transform="translate(29,93)"/>
<path d="M0 0 C3.14970959 6.29941917 0.22272971 15.44966227 -1 22 C-2.65 22 -4.3 22 -6 22 C-5.7235469 18.51944662 -5.42630365 15.04098322 -5.125 11.5625 C-5.04636719 10.56927734 -4.96773438 9.57605469 -4.88671875 8.55273438 C-4.80292969 7.60849609 -4.71914062 6.66425781 -4.6328125 5.69140625 C-4.52283936 4.37958374 -4.52283936 4.37958374 -4.41064453 3.04125977 C-4.27513184 2.36764404 -4.13961914 1.69402832 -4 1 C-2 0 -2 0 0 0 Z " fill="#727273" transform="translate(76,65)"/>
<path d="M0 0 C2.86724686 0.57344937 3.8614515 0.8614515 6 3 C6.49609528 6.04002573 6.44067049 8.95435332 6 12 C4.4375 14.0625 4.4375 14.0625 2 15 C-1.75 15.1875 -1.75 15.1875 -5 15 C-5 14.01 -5 13.02 -5 12 C-3.68 11.67 -2.36 11.34 -1 11 C-1.01160156 10.37351563 -1.02320313 9.74703125 -1.03515625 9.1015625 C-1.04417969 8.28429687 -1.05320313 7.46703125 -1.0625 6.625 C-1.07410156 5.81289062 -1.08570313 5.00078125 -1.09765625 4.1640625 C-1 2 -1 2 0 0 Z " fill="#169DDD" transform="translate(205,119)"/>
<path d="M0 0 C0.66 0.33 1.32 0.66 2 1 C2 1.66 2 2.32 2 3 C2.66 3 3.32 3 4 3 C4 4.65 4 6.3 4 8 C3.01 8 2.02 8 1 8 C1.99 8.33 2.98 8.66 4 9 C3.67 11.31 3.34 13.62 3 16 C2.34 16 1.68 16 1 16 C1 16.66 1 17.32 1 18 C-0.32 17.34 -1.64 16.68 -3 16 C-3 12.04 -3 8.08 -3 4 C-2.01 4 -1.02 4 0 4 C0 2.68 0 1.36 0 0 Z " fill="#199EDB" transform="translate(221,118)"/>
<path d="M0 0 C0.99 0.495 0.99 0.495 2 1 C2.4140625 3.50390625 2.4140625 3.50390625 2.625 6.5625 C2.69976562 7.57441406 2.77453125 8.58632812 2.8515625 9.62890625 C2.92503906 10.80259766 2.92503906 10.80259766 3 12 C3.4125 11.505 3.825 11.01 4.25 10.5 C6 9 6 9 10 9 C10.66 10.98 11.32 12.96 12 15 C9.66682784 15.77772405 7.38564077 16.42415568 5 17 C5 17.66 5 18.32 5 19 C5.66 19 6.32 19 7 19 C7 19.66 7 20.32 7 21 C8.65 20.67 10.3 20.34 12 20 C12 20.66 12 21.32 12 22 C10.375 22.8125 10.375 22.8125 8 23 C4.16856815 20.54788362 2.45867603 19.04244551 0.625 14.875 C-0.18032418 9.8819901 -0.1642011 5.04462276 0 0 Z " fill="#2898CB" transform="translate(61,114)"/>
<path d="M0 0 C5.60453398 -0.22875649 10.78471368 -0.34155712 16 2 C17.625 4.75 17.625 4.75 18 8 C16.625 11.375 16.625 11.375 15 14 C14.01 13.67 13.02 13.34 12 13 C12 11.35 12 9.7 12 8 C11.01 7.67 10.02 7.34 9 7 C8.67 6.34 8.34 5.68 8 5 C5.47266765 4.34444881 5.47266765 4.34444881 3 4 C3 3.01 3 2.02 3 1 C2.01 0.67 1.02 0.34 0 0 Z " fill="#179DDB" transform="translate(169,105)"/>
<path d="M0 0 C0.66 0 1.32 0 2 0 C2.04898438 0.81984375 2.09796875 1.6396875 2.1484375 2.484375 C2.22320312 3.56203125 2.29796875 4.6396875 2.375 5.75 C2.44460937 6.81734375 2.51421875 7.8846875 2.5859375 8.984375 C2.9728223 11.80206432 3.55686166 13.5830366 5 16 C6.32 16 7.64 16 9 16 C9.33 15.34 9.66 14.68 10 14 C12.875 13.8125 12.875 13.8125 16 14 C16.99 15.485 16.99 15.485 18 17 C18.99 17.33 19.98 17.66 21 18 C16.17161083 20.73608719 11.22607461 20.35586172 6 19 C3.22729892 16.79315629 1.57254444 15.14508888 0 12 C-0.07065617 9.95944995 -0.08421976 7.91665743 -0.0625 5.875 C-0.05347656 4.77929688 -0.04445312 3.68359375 -0.03515625 2.5546875 C-0.02355469 1.71164063 -0.01195312 0.86859375 0 0 Z " fill="#2798C9" transform="translate(129,118)"/>
<path d="M0 0 C1.93166016 0.01740234 1.93166016 0.01740234 3.90234375 0.03515625 C5.19269531 0.04417969 6.48304687 0.05320312 7.8125 0.0625 C8.81152344 0.07410156 9.81054688 0.08570312 10.83984375 0.09765625 C10.06080047 15.84253097 10.06080047 15.84253097 7.83984375 23.09765625 C6.84984375 22.76765625 5.85984375 22.43765625 4.83984375 22.09765625 C5.49984375 22.09765625 6.15984375 22.09765625 6.83984375 22.09765625 C6.50984375 17.14765625 6.17984375 12.19765625 5.83984375 7.09765625 C6.49984375 7.09765625 7.15984375 7.09765625 7.83984375 7.09765625 C7.83984375 5.44765625 7.83984375 3.79765625 7.83984375 2.09765625 C5.19984375 1.76765625 2.55984375 1.43765625 -0.16015625 1.09765625 C0.16984375 2.08765625 0.49984375 3.07765625 0.83984375 4.09765625 C0.50984375 4.75765625 0.17984375 5.41765625 -0.16015625 6.09765625 C-1.15015625 6.42765625 -2.14015625 6.75765625 -3.16015625 7.09765625 C-2.17015625 7.42765625 -1.18015625 7.75765625 -0.16015625 8.09765625 C-1.48015625 8.09765625 -2.80015625 8.09765625 -4.16015625 8.09765625 C-4.20257348 5.7647085 -4.20108562 3.43063058 -4.16015625 1.09765625 C-3.16015625 0.09765625 -3.16015625 0.09765625 0 0 Z " fill="#2A97CB" transform="translate(82.16015625,111.90234375)"/>
<path d="M0 0 C0 0.99 0 1.98 0 3 C-2.31 3 -4.62 3 -7 3 C-7.433125 3.928125 -7.433125 3.928125 -7.875 4.875 C-9 7 -9 7 -11 9 C-11.165 9.680625 -11.33 10.36125 -11.5 11.0625 C-11.7475 12.0215625 -11.7475 12.0215625 -12 13 C-12.99 13.495 -12.99 13.495 -14 14 C-14.62108626 6.08115016 -14.62108626 6.08115016 -12.3125 2.0625 C-7.94858625 -1.82963929 -5.30804858 -2.72985355 0 0 Z " fill="#787878" transform="translate(102,67)"/>
<path d="M0 0 C0.66 0 1.32 0 2 0 C2 0.66 2 1.32 2 2 C2.66 2 3.32 2 4 2 C3.67 4.97 3.34 7.94 3 11 C2.34 11 1.68 11 1 11 C1 9.35 1 7.7 1 6 C0.01 6.33 -0.98 6.66 -2 7 C-2.99 6.34 -3.98 5.68 -5 5 C-4.79375 5.845625 -4.5875 6.69125 -4.375 7.5625 C-3.94156988 11.53560946 -4.7237237 14.24624618 -6 18 C-6.33 18 -6.66 18 -7 18 C-6.67 12.72 -6.34 7.44 -6 2 C-5.34 2 -4.68 2 -4 2 C-4 2.66 -4 3.32 -4 4 C-3.34 4 -2.68 4 -2 4 C-1.34 2.68 -0.68 1.36 0 0 Z " fill="#1F9BDF" transform="translate(104,116)"/>
<path d="M0 0 C0.33 0 0.66 0 1 0 C-0.36893204 19.36893204 -0.36893204 19.36893204 -2 21 C-3.65 21 -5.3 21 -7 21 C-6.67 16.38 -6.34 11.76 -6 7 C-5.67 7 -5.34 7 -5 7 C-5 10.3 -5 13.6 -5 17 C-4.34 16.67 -3.68 16.34 -3 16 C-3.020625 15.195625 -3.04125 14.39125 -3.0625 13.5625 C-3 11 -3 11 -2 10 C-1.6068352 8.32115762 -1.25914548 6.63149955 -0.9375 4.9375 C-0.76089844 4.01839844 -0.58429688 3.09929687 -0.40234375 2.15234375 C-0.26957031 1.44207031 -0.13679688 0.73179688 0 0 Z " fill="#5C6060" transform="translate(85,66)"/>
<path d="M0 0 C0.33 0 0.66 0 1 0 C1.08333357 4.8333472 0.95261487 9.23692563 0 14 C1.32 14.33 2.64 14.66 4 15 C-0.92737019 16.97094808 -4.78020872 17.1799928 -10 17 C-10 16.67 -10 16.34 -10 16 C-8.35 16 -6.7 16 -5 16 C-5 15.01 -5 14.02 -5 13 C-4.34 13 -3.68 13 -3 13 C-3 12.34 -3 11.68 -3 11 C-5.31 10.67 -7.62 10.34 -10 10 C-10 9.34 -10 8.68 -10 8 C-5.545 7.505 -5.545 7.505 -1 7 C-0.67 4.69 -0.34 2.38 0 0 Z " fill="#2795C9" transform="translate(83,121)"/>
<path d="M0 0 C1.77007714 -0.08114106 3.54122098 -0.13925505 5.3125 -0.1875 C6.29863281 -0.22230469 7.28476563 -0.25710937 8.30078125 -0.29296875 C11 0 11 0 12.85546875 1.51171875 C13.23316406 2.00285156 13.61085937 2.49398437 14 3 C12.68 2.67 11.36 2.34 10 2 C10 2.66 10 3.32 10 4 C3.375 5 3.375 5 0 5 C-1.33981486 5.3062434 -2.67511887 5.63451555 -4 6 C-4 5.01 -4 4.02 -4 3 C-2.68 2.67 -1.36 2.34 0 2 C0 1.34 0 0.68 0 0 Z " fill="#179EDC" transform="translate(139,105)"/>
<path d="M0 0 C0.99 0.33 1.98 0.66 3 1 C2.66666667 2.66666667 2.33333333 4.33333333 2 6 C1.855625 6.78375 1.71125 7.5675 1.5625 8.375 C0.86447305 11.6324591 -0.0602663 14.80490542 -1 18 C-3.81870287 15.18129713 -3.7303841 12.90943055 -4 9 C-3.1875 6.875 -3.1875 6.875 -2 5 C-1.32033324 3.33859237 -0.65061095 1.67299959 0 0 Z " fill="#777879" transform="translate(50,67)"/>
<path d="M0 0 C1.32 0.33 2.64 0.66 4 1 C4 4.63 4 8.26 4 12 C3.01 11.34 2.02 10.68 1 10 C0.34 11.98 -0.32 13.96 -1 16 C-2.00273157 12.7822793 -1.99373398 10.2135374 -1.625 6.875 C-1.53476563 6.00617188 -1.44453125 5.13734375 -1.3515625 4.2421875 C-1 2 -1 2 0 0 Z " fill="#159FDD" transform="translate(152,109)"/>
<path d="M0 0 C2.93774463 -0.05390357 5.87450232 -0.0936255 8.8125 -0.125 C10.06256836 -0.15013672 10.06256836 -0.15013672 11.33789062 -0.17578125 C12.14033203 -0.18222656 12.94277344 -0.18867187 13.76953125 -0.1953125 C14.50792236 -0.20578613 15.24631348 -0.21625977 16.00708008 -0.22705078 C18 0 18 0 21 2 C11.595 2.495 11.595 2.495 2 3 C1.67 5.64 1.34 8.28 1 11 C0.34 11 -0.32 11 -1 11 C-1.07442057 7.13013042 -1.04702186 3.7264085 0 0 Z " fill="#2B92BC" transform="translate(102,93)"/>
<path d="M0 0 C0.66 0.33 1.32 0.66 2 1 C1.52949219 1.69480469 1.05898437 2.38960938 0.57421875 3.10546875 C-1.14309781 6.26311534 -1.68126465 8.76885255 -2.1875 12.3125 C-2.34605469 13.38113281 -2.50460938 14.44976562 -2.66796875 15.55078125 C-2.77753906 16.35902344 -2.88710937 17.16726562 -3 18 C-3.66 18 -4.32 18 -5 18 C-5.33 13.38 -5.66 8.76 -6 4 C-5.34 4 -4.68 4 -4 4 C-3.67 3.01 -3.34 2.02 -3 1 C-2.01 0.67 -1.02 0.34 0 0 Z " fill="#1F98CD" transform="translate(74,102)"/>
<path d="M0 0 C1.32 0.99 2.64 1.98 4 3 C2.9318153 8.11365014 1.76892524 13.07227969 0 18 C-0.66 17.67 -1.32 17.34 -2 17 C-2.11988017 11.12587158 -1.8682013 5.60460391 0 0 Z " fill="#787878" transform="translate(61,66)"/>
<path d="M0 0 C2.4291373 3.01327002 4.09184125 6.0405505 5.6875 9.5625 C6.34298828 10.98755859 6.34298828 10.98755859 7.01171875 12.44140625 C8 15 8 15 8 18 C5.03 18 2.06 18 -1 18 C-1.66 16.68 -2.32 15.36 -3 14 C-2.34 13.67 -1.68 13.34 -1 13 C-1 13.99 -1 14.98 -1 16 C0.98 15.67 2.96 15.34 5 15 C4.6390625 14.25234375 4.278125 13.5046875 3.90625 12.734375 C3.21015625 11.25710937 3.21015625 11.25710937 2.5 9.75 C2.0359375 8.77546875 1.571875 7.8009375 1.09375 6.796875 C0 4 0 4 0 0 Z " fill="#2A90BD" transform="translate(50,119)"/>
<path d="M0 0 C0.99 0.33 1.98 0.66 3 1 C2.67 3.97 2.34 6.94 2 10 C-0.97 10 -3.94 10 -7 10 C-6.34 8.68 -5.68 7.36 -5 6 C-4.01 6 -3.02 6 -2 6 C-1.855625 5.195625 -1.71125 4.39125 -1.5625 3.5625 C-1 1 -1 1 0 0 Z " fill="#199CD8" transform="translate(31,126)"/>
<path d="M0 0 C3 2 3 2 4 5 C4.66 5.33 5.32 5.66 6 6 C6 6.66 6 7.32 6 8 C2.25 9.125 2.25 9.125 0 8 C0.66 9.98 1.32 11.96 2 14 C0 13 -2 12 -4 11 C-3.67 8.69 -3.34 6.38 -3 4 C-2.01 4 -1.02 4 0 4 C0 3.34 0 2.68 0 2 C0 1.34 0 0.68 0 0 Z " fill="#1FA0DB" transform="translate(122,116)"/>
<path d="M0 0 C0.99 0.33 1.98 0.66 3 1 C2.360625 1.61875 1.72125 2.2375 1.0625 2.875 C-2.03873908 7.5738471 -2 12.47492702 -2 18 C-2.99 17.67 -3.98 17.34 -5 17 C-6.32598477 10.51740777 -5.61992949 7.50229282 -2 2 C-1.34 1.34 -0.68 0.68 0 0 Z " fill="#7C7B7B" transform="translate(31,66)"/>
<path d="M0 0 C-1 2 -1 2 -2.9921875 2.859375 C-5.16437961 3.81366751 -5.16437961 3.81366751 -5.7578125 5.953125 C-5.87898438 6.71109375 -6.00015625 7.4690625 -6.125 8.25 C-6.79878746 11.97387893 -7.71781204 15.4281907 -9 19 C-10.65 18.67 -12.3 18.34 -14 18 C-13.67 16.35 -13.34 14.7 -13 13 C-12 14 -11 15 -10 16 C-9.98582031 15.34773438 -9.97164062 14.69546875 -9.95703125 14.0234375 C-9.71365538 9.56373904 -9.50918335 5.97567569 -6.6875 2.375 C-4 0 -4 0 0 0 Z " fill="#666768" transform="translate(59,68)"/>
<path d="M0 0 C0.66 0 1.32 0 2 0 C3.37999314 4.55397737 2.43326669 7.54094809 1 12 C0.64628502 13.66246041 0.30404678 15.32774271 0 17 C-2.79593783 15.60203108 -2.95173777 13.86525011 -4 11 C-4.33 10.34 -4.66 9.68 -5 9 C-3.68 9.33 -2.36 9.66 -1 10 C-1.020625 8.906875 -1.04125 7.81375 -1.0625 6.6875 C-1 3 -1 3 0 0 Z " fill="#7A7A7A" transform="translate(42,58)"/>
<path d="M0 0 C3 1 3 1 4.1953125 2.78125 C5.57345538 6.58117795 4.99831309 10.1412721 4 14 C2.0625 16.5625 2.0625 16.5625 0 18 C-0.66 18 -1.32 18 -2 18 C-2 17.34 -2 16.68 -2 16 C-1.34 16 -0.68 16 0 16 C0 15.01 0 14.02 0 13 C0.66 12.67 1.32 12.34 2 12 C2.65772428 8.97065509 2.65772428 8.97065509 3 6 C2.34 6 1.68 6 1 6 C0.67 4.02 0.34 2.04 0 0 Z " fill="#2991C4" transform="translate(124,95)"/>
<path d="M0 0 C0.33 0 0.66 0 1 0 C0.55348122 8.15484303 -0.11150323 16.04264468 -2 24 C-3.65 23.67 -5.3 23.34 -7 23 C-5.68 22.67 -4.36 22.34 -3 22 C-2.95101562 20.83082031 -2.90203125 19.66164063 -2.8515625 18.45703125 C-2.77649829 16.90883196 -2.70095205 15.36065599 -2.625 13.8125 C-2.5940625 13.04357422 -2.563125 12.27464844 -2.53125 11.48242188 C-2.31383889 7.26102289 -1.90256928 3.85927672 0 0 Z " fill="#676869" transform="translate(44,63)"/>
<path d="M0 0 C2.3828125 -0.29296875 2.3828125 -0.29296875 5.125 -0.1875 C6.03507812 -0.16042969 6.94515625 -0.13335937 7.8828125 -0.10546875 C8.58148438 -0.07066406 9.28015625 -0.03585938 10 0 C8.75023244 3.65316671 8.32901247 4.78065836 5 7 C4.896875 6.360625 4.79375 5.72125 4.6875 5.0625 C4.3471875 4.0415625 4.3471875 4.0415625 4 3 C3.01 2.67 2.02 2.34 1 2 C1 2.66 1 3.32 1 4 C0.01 3.67 -0.98 3.34 -2 3 C-1.34 2.01 -0.68 1.02 0 0 Z " fill="#298CB9" transform="translate(53,93)"/>
<path d="M0 0 C2.64 0 5.28 0 8 0 C7.125 6.875 7.125 6.875 6 8 C4.00041636 8.04080783 1.99954746 8.04254356 0 8 C-0.33 7.34 -0.66 6.68 -1 6 C0.65 5.67 2.3 5.34 4 5 C4.33 4.01 4.66 3.02 5 2 C4.01 2.33 3.02 2.66 2 3 C1.34 2.67 0.68 2.34 0 2 C0 1.34 0 0.68 0 0 Z " fill="#2497C9" transform="translate(230,104)"/>
<path d="M0 0 C0.66 0 1.32 0 2 0 C1.979375 0.928125 1.95875 1.85625 1.9375 2.8125 C1.84230396 6.02286011 1.84230396 6.02286011 3 9 C2.01 9 1.02 9 0 9 C0 8.01 0 7.02 0 6 C-0.66 6 -1.32 6 -2 6 C-2 8.31 -2 10.62 -2 13 C-2.66 12.34 -3.32 11.68 -4 11 C-3.74964126 6.49354269 -3.25629805 3.25629805 0 0 Z " fill="#2997C9" transform="translate(195,105)"/>
<path d="M0 0 C-0.33 0.66 -0.66 1.32 -1 2 C-3.64 2 -6.28 2 -9 2 C-9.33 2.99 -9.66 3.98 -10 5 C-11.65 3.35 -13.3 1.7 -15 0 C-4.44191344 -1.33257403 -4.44191344 -1.33257403 0 0 Z M-15 3 C-14.34 3 -13.68 3 -13 3 C-13.33 3.66 -13.66 4.32 -14 5 C-14.33 4.34 -14.66 3.68 -15 3 Z " fill="#2097CE" transform="translate(119,99)"/>
<path d="M0 0 C0.99 0.33 1.98 0.66 3 1 C1.75282088 4.74153737 -0.09887781 6.37517516 -3 9 C-3.99 9.33 -4.98 9.66 -6 10 C-6.33 10.66 -6.66 11.32 -7 12 C-6.67566492 6.64847115 -3.50295176 3.71719957 0 0 Z " fill="#2595C9" transform="translate(70,96)"/>
<path d="M0 0 C0.97608217 2.92824652 1.08226668 4.95613276 1 8 C0.195625 8.12375 -0.60875 8.2475 -1.4375 8.375 C-2.283125 8.58125 -3.12875 8.7875 -4 9 C-4.33 9.66 -4.66 10.32 -5 11 C-2.36 11 0.28 11 3 11 C3 11.33 3 11.66 3 12 C-0.3 12 -3.6 12 -7 12 C-5.44298069 7.32894208 -2.91552627 3.91294315 0 0 Z " fill="#3492BF" transform="translate(29,125)"/>
<path d="M0 0 C2.97 0 5.94 0 9 0 C9 0.99 9 1.98 9 3 C6.69 2.67 4.38 2.34 2 2 C2.515625 3.093125 3.03125 4.18625 3.5625 5.3125 C5 9 5 9 4 12 C3.32332002 10.75539217 2.65905281 9.50403104 2 8.25 C1.62875 7.55390625 1.2575 6.8578125 0.875 6.140625 C0 4 0 4 0 0 Z " fill="#2C8AB2" transform="translate(29,93)"/>
<path d="M0 0 C-0.33 2.97 -0.66 5.94 -1 9 C-1.33 9 -1.66 9 -2 9 C-2 6.69 -2 4.38 -2 2 C-3.98 2 -5.96 2 -8 2 C-8 4.31 -8 6.62 -8 9 C-8.66 9 -9.32 9 -10 9 C-9.67 6.36 -9.34 3.72 -9 1 C-5.92677456 0.08941469 -3.19902639 -0.08886184 0 0 Z " fill="#3090BC" transform="translate(231,95)"/>
<path d="M0 0 C0.66 0 1.32 0 2 0 C2.33 0.66 2.66 1.32 3 2 C5.52733235 2.65555119 5.52733235 2.65555119 8 3 C8 2.34 8 1.68 8 1 C9.65 0.67 11.3 0.34 13 0 C12.67 1.65 12.34 3.3 12 5 C10.56344146 5.08131463 9.1255517 5.13933559 7.6875 5.1875 C6.48673828 5.23970703 6.48673828 5.23970703 5.26171875 5.29296875 C3 5 3 5 1.20703125 3.61328125 C0 2 0 2 0 0 Z " fill="#676A6D" transform="translate(87,82)"/>
<path d="M0 0 C1.5 1.0625 1.5 1.0625 3 3 C3.1875 6.6875 3.1875 6.6875 3 10 C1.35 10.33 -0.3 10.66 -2 11 C-1.505 10.54625 -1.01 10.0925 -0.5 9.625 C1.22609337 8.12364481 1.22609337 8.12364481 1 6 C-1.64 4.68 -4.28 3.36 -7 2 C-3 1 -3 1 0 2 C0 1.34 0 0.68 0 0 Z " fill="#2694C2" transform="translate(202,120)"/>
<path d="M0 0 C1.32 0 2.64 0 4 0 C3.85691406 0.50015625 3.71382813 1.0003125 3.56640625 1.515625 C2.79549606 4.89699657 2.37600527 8.31341799 1.9375 11.75 C1.84662109 12.44738281 1.75574219 13.14476563 1.66210938 13.86328125 C1.43931886 15.57525048 1.21937593 17.28758987 1 19 C0.67 19 0.34 19 0 19 C0.33 14.05 0.66 9.1 1 4 C-0.32 3.67 -1.64 3.34 -3 3 C-2.34 3 -1.68 3 -1 3 C-0.67 2.01 -0.34 1.02 0 0 Z " fill="#6C6B6C" transform="translate(70,64)"/>
<path d="M0 0 C0.66 0 1.32 0 2 0 C2.33 1.65 2.66 3.3 3 5 C3.99 5.33 4.98 5.66 6 6 C4.5625 8 4.5625 8 2 10 C-1.02824418 10.35442445 -3.96485939 10.23347235 -7 10 C-7 9.67 -7 9.34 -7 9 C-4.69 8.34 -2.38 7.68 0 7 C0 4.69 0 2.38 0 0 Z " fill="#2B98C8" transform="translate(118,101)"/>
<path d="M0 0 C1.65 0 3.3 0 5 0 C5 2.64 5 5.28 5 8 C4.01 8.495 4.01 8.495 3 9 C3 7.02 3 5.04 3 3 C2.71125 3.598125 2.4225 4.19625 2.125 4.8125 C1 7 1 7 -1 10 C-0.67 6.7 -0.34 3.4 0 0 Z " fill="#6E6E6E" transform="translate(82,56)"/>
<path d="M0 0 C0 0.99 0 1.98 0 3 C-3.13498292 4.85776765 -5.37471432 5.20140476 -9 5 C-9 4.34 -9 3.68 -9 3 C-8.34 3 -7.68 3 -7 3 C-7 2.34 -7 1.68 -7 1 C-4.53721199 -0.231394 -2.7204945 -0.07159196 0 0 Z " fill="#1C9BDB" transform="translate(232,132)"/>
<path d="M0 0 C0.66 0.33 1.32 0.66 2 1 C1.6390625 1.43570313 1.278125 1.87140625 0.90625 2.3203125 C-2.20577001 6.31407151 -3.64165788 8.73840541 -3 14 C-3.99 13.34 -4.98 12.68 -6 12 C-5.67558396 10.33157466 -5.34060811 8.66519519 -5 7 C-4.896875 6.29875 -4.79375 5.5975 -4.6875 4.875 C-3.75323803 2.32701281 -2.23654425 1.44293178 0 0 Z " fill="#2893C4" transform="translate(53,105)"/>
<path d="M0 0 C0.33 0 0.66 0 1 0 C1.36749117 7.47232038 1.36749117 7.47232038 -0.21875 9.75 C-2.52119964 11.36575414 -3.90315701 11.30855839 -6.6875 11.1875 C-7.89986328 11.14689453 -7.89986328 11.14689453 -9.13671875 11.10546875 C-9.75160156 11.07066406 -10.36648437 11.03585938 -11 11 C-10.67 9.68 -10.34 8.36 -10 7 C-9.67 7.66 -9.34 8.32 -9 9 C-6.69 9 -4.38 9 -2 9 C-1.34 6.03 -0.68 3.06 0 0 Z " fill="#2795C0" transform="translate(178,120)"/>
<path d="M0 0 C0.93423645 3.01031744 1.04449911 3.86650268 0 7 C-3.63 7 -7.26 7 -11 7 C-11.66 8.32 -12.32 9.64 -13 11 C-13.042721 9.33388095 -13.04063832 7.66617115 -13 6 C-12 5 -12 5 -9.71484375 4.90234375 C-8.34005859 4.91974609 -8.34005859 4.91974609 -6.9375 4.9375 C-6.01839844 4.94652344 -5.09929687 4.95554687 -4.15234375 4.96484375 C-3.44207031 4.97644531 -2.73179687 4.98804687 -2 5 C-2 4.34 -2 3.68 -2 3 C-1.34 3 -0.68 3 0 3 C0 2.01 0 1.02 0 0 Z " fill="#3496C3" transform="translate(213,104)"/>
<path d="M0 0 C5.67276511 -0.29341888 8.99067246 -0.00559652 14 3 C10.52487282 4.15837573 8.86329714 3.77265943 5.3125 3.0625 C4.31863281 2.86785156 3.32476562 2.67320313 2.30078125 2.47265625 C1.54152344 2.31667969 0.78226563 2.16070312 0 2 C0 1.34 0 0.68 0 0 Z " fill="#2693C5" transform="translate(171,103)"/>
<path d="M0 0 C0.33 0 0.66 0 1 0 C0.85761163 2.04190981 0.71092972 4.08352045 0.5625 6.125 C0.48128906 7.26195313 0.40007812 8.39890625 0.31640625 9.5703125 C0.02269035 12.7540478 -0.43124313 15.85510907 -1 19 C-1.66 19 -2.32 19 -3 19 C-3.09765625 12.84765625 -3.09765625 12.84765625 -3 11 C-2.67 10.67 -2.34 10.34 -2 10 C-1.6068352 8.32115762 -1.25914548 6.63149955 -0.9375 4.9375 C-0.76089844 4.01839844 -0.58429688 3.09929687 -0.40234375 2.15234375 C-0.26957031 1.44207031 -0.13679688 0.73179688 0 0 Z " fill="#686968" transform="translate(85,66)"/>
<path d="M0 0 C1.98 0 3.96 0 6 0 C6.33 0.99 6.66 1.98 7 3 C6.01 3 5.02 3 4 3 C3.67 3.33 3.34 3.66 3 4 C1.67479497 4.68268138 0.34187818 5.3507041 -1 6 C-0.67 4.02 -0.34 2.04 0 0 Z " fill="#189EDE" transform="translate(197,105)"/>
<path d="M0 0 C1.32 0.33 2.64 0.66 4 1 C-0.49344368 5.64322514 -4.86698764 5.76182476 -11 6 C-11 5.67 -11 5.34 -11 5 C-10.28972656 4.80664062 -9.57945312 4.61328125 -8.84765625 4.4140625 C-7.92855469 4.15367187 -7.00945312 3.89328125 -6.0625 3.625 C-4.68771484 3.24214844 -4.68771484 3.24214844 -3.28515625 2.8515625 C-0.83254913 2.23339896 -0.83254913 2.23339896 0 0 Z " fill="#2D95C3" transform="translate(179,132)"/>
<path d="M0 0 C0.6875 1.8125 0.6875 1.8125 1 4 C-0.1875 5.8125 -0.1875 5.8125 -2 7 C-4.1875 6.6875 -4.1875 6.6875 -6 6 C-5.34 5.34 -4.68 4.68 -4 4 C-4.66 3.67 -5.32 3.34 -6 3 C-5.67 2.34 -5.34 1.68 -5 1 C-2.4375 0.375 -2.4375 0.375 0 0 Z " fill="#656967" transform="translate(36,80)"/>
<path d="M0 0 C0.99 0.66 1.98 1.32 3 2 C3 2.99 3 3.98 3 5 C-1.625 7.125 -1.625 7.125 -5 6 C-4.34 6 -3.68 6 -3 6 C-2.87625 5.195625 -2.7525 4.39125 -2.625 3.5625 C-2.41875 2.716875 -2.2125 1.87125 -2 1 C-1.34 0.67 -0.68 0.34 0 0 Z " fill="#1898D3" transform="translate(86,129)"/>
<path d="M0 0 C0.33 1.32 0.66 2.64 1 4 C-2 6 -2 6 -4 6 C-4 6.99 -4 7.98 -4 9 C-4.99 9.33 -5.98 9.66 -7 10 C-5.6062718 5.56541027 -3.39417765 3.12621626 0 0 Z " fill="#2298CA" transform="translate(51,98)"/>
<path d="M0 0 C5 7.5 5 7.5 5 10 C3 9 1 8 -1 7 C-0.67 4.69 -0.34 2.38 0 0 Z " fill="#149BDC" transform="translate(119,120)"/>
<path d="M0 0 C1.32 0.33 2.64 0.66 4 1 C3.67 1.99 3.34 2.98 3 4 C3 4.33 3 4.66 3 5 C2.67866561 6.35706399 2.34328345 7.71082143 2 9.0625 C1.814375 9.79597656 1.62875 10.52945313 1.4375 11.28515625 C1.293125 11.85105469 1.14875 12.41695312 1 13 C0.67 13 0.34 13 0 13 C0 8.71 0 4.42 0 0 Z " fill="#1698D3" transform="translate(160,117)"/>
<path d="M0 0 C1.5 1.3125 1.5 1.3125 3 3 C3 3.99 3 4.98 3 6 C2.34 6 1.68 6 1 6 C1 7.32 1 8.64 1 10 C0.34 10 -0.32 10 -1 10 C-1.125 3.375 -1.125 3.375 0 0 Z " fill="#2A95C9" transform="translate(220,112)"/>
<path d="M0 0 C0.33 0.66 0.66 1.32 1 2 C3.31 2 5.62 2 8 2 C7.67 2.66 7.34 3.32 7 4 C4.71484375 4.4140625 4.71484375 4.4140625 1.9375 4.625 C1.01839844 4.69976562 0.09929687 4.77453125 -0.84765625 4.8515625 C-1.91306641 4.92503906 -1.91306641 4.92503906 -3 5 C-2.01 3.35 -1.02 1.7 0 0 Z " fill="#179FDD" transform="translate(108,110)"/>
<path d="M0 0 C0.99 1.32 1.98 2.64 3 4 C2.38125 4.226875 1.7625 4.45375 1.125 4.6875 C-1.61410209 6.37929835 -2.05024472 7.99244161 -3 11 C-4.10493755 7.68518735 -4.05432279 5.33868884 -3 2 C-2.01 1.34 -1.02 0.68 0 0 Z " fill="#5D5D5D" transform="translate(68,65)"/>
<path d="M0 0 C2.97 0.33 5.94 0.66 9 1 C5.86730295 4.13269705 3.02671577 4.05494397 -1.25 4.0625 C-3.10625 4.0315625 -3.10625 4.0315625 -5 4 C-5 3.67 -5 3.34 -5 3 C-3.35 3 -1.7 3 0 3 C0 2.01 0 1.02 0 0 Z " fill="#329CC7" transform="translate(78,134)"/>
<path d="M0 0 C0.33 0.99 0.66 1.98 1 3 C1.66 3 2.32 3 3 3 C3 3.99 3 4.98 3 6 C1.02 6 -0.96 6 -3 6 C-2.67 4.68 -2.34 3.36 -2 2 C-1.34 2 -0.68 2 0 2 C0 1.34 0 0.68 0 0 Z " fill="#189FDA" transform="translate(193,129)"/>
<path d="M0 0 C0.33 0.66 0.66 1.32 1 2 C-0.65 3.98 -2.3 5.96 -4 8 C-4.99 7.01 -5.98 6.02 -7 5 C-6.67 4.01 -6.34 3.02 -6 2 C-4.68 2 -3.36 2 -2 2 C-1.34 1.34 -0.68 0.68 0 0 Z " fill="#2694CB" transform="translate(155,127)"/>
<path d="M0 0 C0.433125 0.495 0.86625 0.99 1.3125 1.5 C2.99740483 3.33218192 2.99740483 3.33218192 6 3 C5.625 5.4375 5.625 5.4375 5 8 C4.01 8.495 4.01 8.495 3 9 C3 7.68 3 6.36 3 5 C1.68 4.67 0.36 4.34 -1 4 C-0.67 2.68 -0.34 1.36 0 0 Z " fill="#16A3E0" transform="translate(43,105)"/>
<path d="M0 0 C2 2 2 2 2 6 C0.35 6.66 -1.3 7.32 -3 8 C-3 6.68 -3 5.36 -3 4 C-2.01 3.67 -1.02 3.34 0 3 C0 2.01 0 1.02 0 0 Z " fill="#1C9CDF" transform="translate(72,97)"/>
<path d="M0 0 C0.66 0.33 1.32 0.66 2 1 C1.54625 1.7425 1.0925 2.485 0.625 3.25 C-0.68640796 5.46930578 -1.88280803 7.67967822 -3 10 C-3.33 7.36 -3.66 4.72 -4 2 C-2.125 0.9375 -2.125 0.9375 0 0 Z " fill="#2294C3" transform="translate(74,102)"/>
<path d="M0 0 C0.66 0 1.32 0 2 0 C1.34 3.3 0.68 6.6 0 10 C-0.99 9.67 -1.98 9.34 -3 9 C-2.34 9 -1.68 9 -1 9 C-1.020625 7.700625 -1.04125 6.40125 -1.0625 5.0625 C-1.08399454 3.70834367 -1.07148199 2.35243917 -1 1 C-0.67 0.67 -0.34 0.34 0 0 Z " fill="#3093C3" transform="translate(90,125)"/>
<path d="M0 0 C2.97 0.495 2.97 0.495 6 1 C6 3.31 6 5.62 6 8 C5.67 8 5.34 8 5 8 C5 6.35 5 4.7 5 3 C3.35 3.66 1.7 4.32 0 5 C0 3.35 0 1.7 0 0 Z " fill="#119BD5" transform="translate(99,121)"/>
<path d="M0 0 C0.66 0.33 1.32 0.66 2 1 C2 1.66 2 2.32 2 3 C2.66 3.33 3.32 3.66 4 4 C3.01 4 2.02 4 1 4 C0.01 7.465 0.01 7.465 -1 11 C-1.33 11 -1.66 11 -2 11 C-2 8.69 -2 6.38 -2 4 C-1.34 4 -0.68 4 0 4 C0 2.68 0 1.36 0 0 Z " fill="#139CDA" transform="translate(221,118)"/>
<path d="M0 0 C0.99 0.33 1.98 0.66 3 1 C2.67 3.31 2.34 5.62 2 8 C1.01 7.34 0.02 6.68 -1 6 C-0.67 4.02 -0.34 2.04 0 0 Z " fill="#199FDF" transform="translate(37,96)"/>
<path d="M0 0 C0.33 0 0.66 0 1 0 C1.36205464 1.95689037 1.71441421 3.91557668 2.0625 5.875 C2.25972656 6.96554688 2.45695313 8.05609375 2.66015625 9.1796875 C3 12 3 12 2 14 C0 12 0 12 -0.1953125 9.1796875 C-0.17210937 8.08914062 -0.14890625 6.99859375 -0.125 5.875 C-0.10695312 4.77929688 -0.08890625 3.68359375 -0.0703125 2.5546875 C-0.04710937 1.71164063 -0.02390625 0.86859375 0 0 Z " fill="#2B93C7" transform="translate(218,122)"/>
<path d="M0 0 C0.99 0 1.98 0 3 0 C2.67 2.97 2.34 5.94 2 9 C1.34 9 0.68 9 0 9 C0 6.03 0 3.06 0 0 Z " fill="#2996C2" transform="translate(105,118)"/>
<path d="M0 0 C1.03159626 3.09478879 0.97482862 4.52631393 0.5625 7.6875 C0.46066406 8.49574219 0.35882813 9.30398437 0.25390625 10.13671875 C0.17011719 10.75160156 0.08632812 11.36648437 0 12 C-0.99 12 -1.98 12 -3 12 C-3 10.68 -3 9.36 -3 8 C-2.34 8 -1.68 8 -1 8 C-1.020625 7.05125 -1.04125 6.1025 -1.0625 5.125 C-1 2 -1 2 0 0 Z " fill="#369AC8" transform="translate(168,114)"/>
<path d="M0 0 C0.66 0.66 1.32 1.32 2 2 C1.34 4.31 0.68 6.62 0 9 C-0.66 8.67 -1.32 8.34 -2 8 C-1.125 1.125 -1.125 1.125 0 0 Z " fill="#7B7B7B" transform="translate(84,58)"/>
<path d="M0 0 C0.33 0 0.66 0 1 0 C2.0006709 5.96345767 2.0662997 10.28728907 0 16 C-0.33 16 -0.66 16 -1 16 C-0.67 10.72 -0.34 5.44 0 0 Z " fill="#3C98C4" transform="translate(98,118)"/>
<path d="M0 0 C2.31 0.33 4.62 0.66 7 1 C5.824375 1.928125 5.824375 1.928125 4.625 2.875 C2.03162353 4.89858661 2.03162353 4.89858661 0 7 C-1.125 2.25 -1.125 2.25 0 0 Z " fill="#2495C5" transform="translate(139,108)"/>
<path d="M0 0 C1.65 0 3.3 0 5 0 C5 1.98 5 3.96 5 6 C4.34 5.67 3.68 5.34 3 5 C3 4.01 3 3.02 3 2 C1.68 2.33 0.36 2.66 -1 3 C-0.67 2.01 -0.34 1.02 0 0 Z " fill="#666666" transform="translate(41,56)"/>
<path d="M0 0 C5.75 0.75 5.75 0.75 8 3 C5.39417629 3.93065133 4.35801776 4.14917407 1.75 3.0625 C1.1725 2.711875 0.595 2.36125 0 2 C0 1.34 0 0.68 0 0 Z " fill="#7F797A" transform="translate(89,82)"/>
<path d="" fill="#FFFFFF" transform="translate(0,0)"/>
<path d="" fill="#FFFFFF" transform="translate(0,0)"/>
<path d="" fill="#FFFFFF" transform="translate(0,0)"/>
<path d="" fill="#FFFFFF" transform="translate(0,0)"/>
<path d="" fill="#FFFFFF" transform="translate(0,0)"/>
<path d="" fill="#FFFFFF" transform="translate(0,0)"/>
<path d="" fill="#FFFFFF" transform="translate(0,0)"/>
<path d="" fill="#FFFFFF" transform="translate(0,0)"/>
<path d="" fill="#FFFFFF" transform="translate(0,0)"/>
<path d="" fill="#FFFFFF" transform="translate(0,0)"/>
<path d="" fill="#FFFFFF" transform="translate(0,0)"/>
<path d="" fill="#FFFFFF" transform="translate(0,0)"/>
<path d="" fill="#FFFFFF" transform="translate(0,0)"/>
<path d="" fill="#FFFFFF" transform="translate(0,0)"/>
<path d="" fill="#FFFFFF" transform="translate(0,0)"/>
<path d="" fill="#FFFFFF" transform="translate(0,0)"/>
<path d="" fill="#FFFFFF" transform="translate(0,0)"/>
<path d="" fill="#FFFFFF" transform="translate(0,0)"/>
<path d="" fill="#FFFFFF" transform="translate(0,0)"/>
<path d="" fill="#FFFFFF" transform="translate(0,0)"/>
<path d="" fill="#FFFFFF" transform="translate(0,0)"/>
<path d="" fill="#FFFFFF" transform="translate(0,0)"/>
<path d="" fill="#FFFFFF" transform="translate(0,0)"/>
<path d="" fill="#FFFFFF" transform="translate(0,0)"/>
<path d="" fill="#FFFFFF" transform="translate(0,0)"/>
<path d="" fill="#FFFFFF" transform="translate(0,0)"/>
<path d="" fill="#FFFFFF" transform="translate(0,0)"/>
<path d="" fill="#FFFFFF" transform="translate(0,0)"/>
<path d="" fill="#FFFFFF" transform="translate(0,0)"/>
<path d="" fill="#FFFFFF" transform="translate(0,0)"/>
<path d="" fill="#FFFFFF" transform="translate(0,0)"/>
<path d="" fill="#FFFFFF" transform="translate(0,0)"/>
<path d="" fill="#FFFFFF" transform="translate(0,0)"/>
<path d="" fill="#FFFFFF" transform="translate(0,0)"/>
<path d="" fill="#FFFFFF" transform="translate(0,0)"/>
<path d="" fill="#FFFFFF" transform="translate(0,0)"/>
<path d="" fill="#FFFFFF" transform="translate(0,0)"/>
<path d="" fill="#FFFFFF" transform="translate(0,0)"/>
<path d="" fill="#FFFFFF" transform="translate(0,0)"/>
<path d="" fill="#FFFFFF" transform="translate(0,0)"/>
<path d="" fill="#FFFFFF" transform="translate(0,0)"/>
<path d="" fill="#FFFFFF" transform="translate(0,0)"/>
<path d="" fill="#FFFFFF" transform="translate(0,0)"/>
<path d="" fill="#FFFFFF" transform="translate(0,0)"/>
<path d="" fill="#FFFFFF" transform="translate(0,0)"/>
<path d="" fill="#FFFFFF" transform="translate(0,0)"/>
<path d="" fill="#FFFFFF" transform="translate(0,0)"/>
<path d="" fill="#FFFFFF" transform="translate(0,0)"/>
<path d="" fill="#FFFFFF" transform="translate(0,0)"/>
<path d="" fill="#FFFFFF" transform="translate(0,0)"/>
<path d="" fill="#FFFFFF" transform="translate(0,0)"/>
<path d="" fill="#FFFFFF" transform="translate(0,0)"/>
<path d="" fill="#FFFFFF" transform="translate(0,0)"/>
<path d="" fill="#FFFFFF" transform="translate(0,0)"/>
<path d="" fill="#FFFFFF" transform="translate(0,0)"/>
<path d="" fill="#FFFFFF" transform="translate(0,0)"/>
<path d="" fill="#FFFFFF" transform="translate(0,0)"/>
<path d="" fill="#FFFFFF" transform="translate(0,0)"/>
<path d="" fill="#FFFFFF" transform="translate(0,0)"/>
<path d="" fill="#FFFFFF" transform="translate(0,0)"/>
<path d="" fill="#FFFFFF" transform="translate(0,0)"/>
<path d="" fill="#FFFFFF" transform="translate(0,0)"/>
<path d="" fill="#FFFFFF" transform="translate(0,0)"/>
<path d="" fill="#FFFFFF" transform="translate(0,0)"/>
</svg>
